<svg id="Layer_2" data-name="Layer 2" xmlns="http://www.w3.org/2000/svg" viewBox="0 0 1200 1500"><defs><style>.cls-1{fill:#0a0a0a;}.cls-1,.cls-2{stroke:#fefefe;stroke-linecap:round;stroke-linejoin:round;stroke-width:2px;}.cls-2{fill:none;}</style></defs><title>Artboard 1 copy 3</title><polygon class="cls-1" points="389.62 392.76 419.19 387.46 445.5 403.07 468.89 461.47 261.06 477.62 389.62 392.76"/><ellipse class="cls-1" cx="189.76" cy="520.53" rx="31.59" ry="34.59"/><ellipse class="cls-1" cx="226.74" cy="520.53" rx="35.63" ry="39.01"/><line class="cls-2" x1="168.67" y1="494.79" x2="196.42" y2="490.49"/><line class="cls-2" x1="163.59" y1="501.16" x2="197.69" y2="497.95"/><line class="cls-2" x1="160.04" y1="508.79" x2="192.51" y2="509.69"/><line class="cls-2" x1="158.23" y1="518.61" x2="191.16" y2="522.46"/><line class="cls-2" x1="159.05" y1="528.63" x2="193.05" y2="533.23"/><line class="cls-2" x1="162.15" y1="537.32" x2="201.49" y2="548.05"/><polygon class="cls-1" points="207.66 490.65 196.43 510.81 196.43 546.66 361.7 584.02 382.33 469.71 279.59 466.71 207.66 490.65"/><polyline class="cls-2" points="1138.54 700.48 1155.63 697.96 1131.4 709.18"/><line class="cls-2" x1="1155.63" y1="697.96" x2="1142.23" y2="695.98"/><line class="cls-2" x1="1170" y1="689.27" x2="1154.64" y2="708.43"/><polygon class="cls-1" points="490.41 466.56 539.46 238.49 602.49 197.33 612.06 213.74 598.64 553.4 490.41 466.56"/><polygon class="cls-1" points="484.88 466.56 533.92 238.49 597.96 196.33 607.53 212.74 593.11 553.4 484.88 466.56"/><path class="cls-1" d="M567.29,525.5c6,1.93,27.09,12.67,34.19,29.87l-34.88-8.21Z"/><polygon class="cls-1" points="1131.4 709.18 1158.31 708.32 1166.66 697.96 1170 689.27 566.6 547.16 560.09 579.83 1131.4 709.18"/><path class="cls-1" d="M607.19,589l-25.61-29.18S571.06,517,542,496.31s-74.8-42-123.74-42c-59.56,0-67.89,29.78-78.12,90.6Z"/><polygon class="cls-1" points="1144.44 693.28 1127.73 713.66 348.18 651.85 179.78 616.09 236.25 533.23 435.39 555.62 1144.44 693.28"/><polygon class="cls-1" points="1119.68 713.02 1039.18 739.73 443.41 750.08 341.5 713.66 277.48 636.84 348.18 651.85 1119.68 713.02"/><polyline class="cls-2" points="349.57 716.54 366.9 703.3 872.12 710.32 874.43 693.58"/><line class="cls-2" x1="1053.52" y1="734.97" x2="353.34" y2="713.66"/><path class="cls-2" d="M1144.44,693.28s-12.7,5.68-17.38,9-11.39,10.41-11.39,10.41"/><polyline class="cls-2" points="1127.06 702.3 349.57 643.49 348.18 651.85"/><polyline class="cls-2" points="927.71 651.2 888.15 662.54 696.69 633.47 694.35 619.44 424.7 566.64 349.57 643.49 262.31 608.41 296.89 568.31 227.71 545.75"/><polyline class="cls-2" points="715.65 636.35 688.7 669.14 686.96 678.71"/><line class="cls-2" x1="688.7" y1="669.15" x2="379.11" y2="613.27"/><line class="cls-2" x1="695.49" y1="626.26" x2="411.81" y2="579.83"/><line class="cls-2" x1="594.86" y1="599.96" x2="586.75" y2="608.46"/><polyline class="cls-2" points="551.81 644.44 538.37 657.77 536.26 666.76"/><path class="cls-1" d="M427.88,744.53l-56.64,3.88-41.77-31.87s-51.12-2.21-79.86-19.92-69.83-80.53-69.83-80.53l97.7,20.75,64,76.82Z"/><polygon class="cls-1" points="389.92 730.97 356.29 731.96 356.29 718.95 389.92 730.97"/><polygon class="cls-1" points="356.29 731.96 312.58 698.25 293.62 690.67 293.62 656.2 341.5 713.66 356.29 718.95 356.29 731.96"/><polygon class="cls-1" points="468.48 749.65 558.69 1054.71 625.85 1088.8 590.78 747.52 468.48 749.65"/><polygon class="cls-1" points="462.47 749.75 552.68 1054.82 620.84 1090.91 584.76 747.63 462.47 749.75"/><polyline class="cls-2" points="470.51 749.61 536.38 975.47 605.63 1015.31 576.73 747.77"/><path class="cls-2" d="M581.58,559.79s-1.5,2.67-7.35,3.68-29.07.5-42.6-.84-155-22.39-164.23-24.72-14.87-7.19-13.7-18,2.92-31.81,13.15-50.15"/><path class="cls-2" d="M374.75,479.6c1.83-2.18,6,15.65,10.19,28.57,3.33,10.27,8.35,18.71,7.35,20.38s-25.73-2.17-25.73-5S368.57,487,374.75,479.6Z"/><path class="cls-2" d="M393.46,462.22c-4.18,1.64-5.18,14.19-1.84,24.72s23.73,46.45,29.41,50.13,48.11,12.36,51.62,10.19,7-17.61,9.52-25.62c1.51-4.79,6.85-17.15,6.69-20s-23.41-20-47.79-30.07C423.54,464.31,400.31,459.55,393.46,462.22Z"/><path class="cls-2" d="M502.39,513c-2.94-.65-12.86,27.74-10.69,33.42s30.9,10,32.74,7.18S508.4,514.35,502.39,513Z"/><path class="cls-2" d="M512.25,504.61s10.35,13.25,16.2,23.61c3.65,6.46,12.7,24.89,16.38,27.73s32.37,3.4,31.88-1.45-7.32-19.74-13.22-29.82c-4.46-7.61-15.18-19.52-18.51-21.36S517.82,498.24,512.25,504.61Z"/><path class="cls-2" d="M442.46,456c-10.57-.28-39.31.39-31.29,1.89s39.76,7,57.3,17.21S497.88,494,500.05,494s12.2-1.65,18.71-2.34c4.49-.48,11.53.5,12.87.5s-19-14.05-28.58-18.17"/><polyline class="cls-2" points="601.87 582.92 748.57 609.68 1022.56 669.62"/><polyline class="cls-2" points="564.96 521.64 571.98 523.59 584.04 513 596.59 214.79 593.11 211.83 541.44 248.29 494.34 469.71"/><polygon class="cls-1" points="207.66 545.07 234.44 545.07 241.65 548.04 220.85 557 207.66 545.07"/><path class="cls-1" d="M223.86,560.66l43.88,1.9,15.1,24.88-17.33,4.47s9.95,24.37,9.95,44.45l-20.19-4.24Z"/><path class="cls-1" d="M267.21,648.4c-.71,18.22-4.82,77.05-34.85,95.17a104.45,104.45,0,0,1-30.42,12,48.47,48.47,0,0,0,8.44-10.25c4.76-8.06,17.58-32.85,13.3-40.41s-6-8.31-8.79-8.06-5.26,2.31-5.62,4.27.73,3.79,2.45,5.74,2.19,5-.13,10.37-14.54,39-33.46,41.74a167.38,167.38,0,0,1-26-.46c-4.86-.47-7.7-1-7.7-1l54-110.5,9.18-1.25,10.71-23,25.14-.69Z"/><path class="cls-1" d="M210.38,745.33a48.47,48.47,0,0,1-8.44,10.25,145,145,0,0,1-23.81,3.4c18.92-2.73,31.14-36.36,33.46-41.74s1.83-8.42.13-10.37-2.82-3.79-2.45-5.74,2.81-4,5.62-4.27,4.52.48,8.79,8.06S215.14,737.27,210.38,745.33Z"/><path class="cls-1" d="M161.87,757.57l-.66,0-8,.58.66-.06a30.37,30.37,0,0,0,3.29-.5C185.57,751.71,204,705,198.84,650.47c-5.11-53.65-31.33-95.59-59.78-97.32a29.83,29.83,0,0,0-4,0l7.95-.58c30-2.19,58.43,41.14,63.79,97.31C212.18,706.49,192.07,754.7,161.87,757.57Z"/><path class="cls-1" d="M157.21,757.64a30.37,30.37,0,0,1-3.29.5l-.66.06c-29.95,2.19-58.43-41.13-63.78-97.3-5.39-56.59,14.72-104.79,44.91-107.67l.66-.06a29.83,29.83,0,0,1,4,0c28.45,1.73,54.67,43.67,59.78,97.32C204,705,185.57,751.71,157.21,757.64Z"/><path class="cls-1" d="M207.66,645.79l10.72-23,25.13-.69,25.41,28.18s4.72-22.21-9.58-62.2l-24.86-11s-16.8-34-41.23-38l-49.09,1,41.59,43.68Z"/><path class="cls-1" d="M198.48,647l9.18-1.24s-13.1-91.54-63.5-105.68l-.78,13.61S184.64,560,198.48,647Z"/><path class="cls-2" d="M143.66,561.52s35.48,9.34,47.65,76.32C201,691.08,183.63,745,155.79,751.73c-13.25,3.2-32.53-4.54-47.07-35.16"/><polygon class="cls-1" points="114.4 619.02 100.25 597.22 87.72 610.41 88.61 622.58 114.4 619.02"/><polygon class="cls-1" points="89.67 608.36 84.72 603.06 95.38 591.2 98.87 598.67 89.67 608.36"/><polyline class="cls-1" points="128.34 627.31 109.94 596.38 100.25 597.22 98.87 598.67 95.38 591.2 107.1 591.2 108.28 596.52"/><polygon class="cls-1" points="107.1 591.2 102.65 578.43 93.87 576.84 95.38 591.2 107.1 591.2"/><polygon class="cls-1" points="93.87 576.84 86.64 576.04 81.73 582.23 84.72 603.06 95.38 591.2 93.87 576.84"/><polygon class="cls-1" points="54.48 564.39 30 596.71 30 613.57 88.22 695.73 89.27 691.08 87.03 686.75 95.38 680.2 66.45 630.06 62.69 606.25 86.64 576.04 54.48 564.39"/><polygon class="cls-1" points="191.73 160.52 196.43 179.3 142.37 570.85 65.34 562.26 59.56 549.46 140.81 212.16 191.73 160.52"/><polyline class="cls-1" points="184.54 164.99 188.97 164.99 192.31 180.21 138.51 567.14 131.17 567.14"/><polygon class="cls-1" points="183.06 159.08 187.76 177.86 130.7 570.4 56.67 562.82 50.89 548.01 132.14 210.72 183.06 159.08"/><polyline class="cls-2" points="73.54 454.01 78.28 454.01 74.41 526.7 104.33 528.63 132.55 454.01 139.14 454.01"/><line class="cls-2" x1="121.94" y1="569.51" x2="183.06" y2="159.08"/><polyline class="cls-2" points="156.15 186.37 114.25 400.79 126.65 430.28 119.32 468.81 109.23 473.17 95.74 528.08"/><line class="cls-2" x1="97.67" y1="520.21" x2="74.85" y2="518.37"/><polyline class="cls-2" points="88.93 519.5 95.74 500.78 102.45 500.78"/><polygon class="cls-1" points="113.95 559.29 54.48 553.11 54.48 572.49 133.17 581.18 134.83 570 130.83 569.51 130.7 570.4 113.43 568.63 113.95 559.29"/><line class="cls-2" x1="109.16" y1="558.79" x2="108.28" y2="578.43"/><polygon class="cls-1" points="148.03 793.94 61.08 764.37 185.88 1149.05 236.5 1197.66 148.03 793.94"/><polyline class="cls-1" points="227.15 1195.05 232.36 1193.03 146.28 801.46 137.51 798.42"/><polygon class="cls-1" points="137.01 796.2 50.05 766.62 174.85 1151.3 228.48 1200.92 137.01 796.2"/><line class="cls-2" x1="146.28" y1="801.46" x2="138.89" y2="804.51"/><line class="cls-2" x1="75.93" y1="775.43" x2="195.68" y2="1170.58"/><polyline class="cls-2" points="86.03 877.53 84.66 832.32 64.06 771.39"/><polyline class="cls-2" points="119.14 790.12 137.51 868.13 165.19 920.88"/><polyline class="cls-2" points="124.11 811.25 110.88 806.1 103.5 784.8"/><polygon class="cls-1" points="95.38 775.43 96.95 794.91 103.5 793.6 103.5 784.8 114.28 788.47 114.28 782.46 122.82 785.37 121.17 769.78 95.38 775.43"/><polygon class="cls-1" points="95.38 775.43 46.04 758.78 47.35 777.24 96.95 794.91 95.38 775.43"/><polygon class="cls-1" points="46.04 758.78 74.31 754.07 121.17 769.78 95.38 775.43 46.04 758.78"/><path class="cls-1" d="M140.05,683.1,122.8,702.76c3.47-4,6-10,7.44-17.34a83.51,83.51,0,0,0,.07-28.41,83.7,83.7,0,0,0-8.86-27c-3.62-6.54-7.92-11.49-12.43-14.18l22.47,13.36c5.94,3.52,11.28,13.36,13.22,25.54S144.6,677.92,140.05,683.1Z"/><polygon class="cls-1" points="87.03 686.75 100.96 713.66 113.45 712.15 119.39 700.21 95.38 680.2 87.03 686.75"/><path class="cls-1" d="M130.24,685.42c-1.41,7.35-4,13.39-7.44,17.34a13.85,13.85,0,0,1-8.25,4.9c-12.82,2-26.54-17.35-30.66-43.29s3-48.62,15.76-50.65a13.92,13.92,0,0,1,9.37,2.1c4.51,2.69,8.81,7.64,12.43,14.18a83.7,83.7,0,0,1,8.86,27A83.51,83.51,0,0,1,130.24,685.42Z"/><polygon class="cls-1" points="110.15 712.55 91.54 764.75 84.78 766.62 103.5 713.36 110.15 712.55"/><polygon class="cls-1" points="84.78 766.62 75.05 764.37 95.38 702.89 100.96 713.66 103.5 713.36 84.78 766.62"/><polygon class="cls-1" points="89.27 691.08 79.86 732.64 75.05 738.58 71.5 759.88 75.05 764.37 95.38 702.89 89.27 691.08"/><polyline class="cls-2" points="66.98 573.87 43.16 607.58 43.16 614.84 87.03 677.79"/><polygon class="cls-1" points="163.92 414.79 388.36 386.27 390.76 389.35 384.93 406.84 254.64 491.32 153.55 489.87 163.92 414.79"/><polyline class="cls-2" points="154.09 485.96 253.43 486.94 382.33 403.07 388.36 386.27"/><polyline class="cls-2" points="155.24 477.62 255.02 477.62 368.81 404.66 371.54 395.74 163.07 420.91"/><polyline class="cls-2" points="157.55 460.93 313.71 420.05 328.65 400.92"/><line class="cls-2" x1="253.43" y1="486.94" x2="254.64" y2="491.32"/><line class="cls-2" x1="382.33" y1="403.07" x2="384.93" y2="406.84"/><polygon class="cls-2" points="182.28 605.64 178.51 605.64 148.87 634.3 142.37 645.22 151.36 643.49 182.28 605.64"/><line class="cls-2" x1="142.02" y1="623.45" x2="148.87" y2="634.3"/><line class="cls-2" x1="174.26" y1="597.22" x2="178.51" y2="605.64"/><path class="cls-2" d="M163.91,605.64s-8.36-10-14.37-12.07l-3.41,26.53"/><polyline class="cls-2" points="112.97 578.95 120.13 596.05 123.98 593.57 135.05 632.12 142.02 623.45 174.26 597.22 178.51 597.22"/><polyline class="cls-2" points="193.27 652.18 182.28 654.02 181.28 662.54 145.06 657.36"/><path class="cls-2" d="M151.36,643.49a54.44,54.44,0,0,1,2.56,15.14"/><path class="cls-2" d="M144.45,673.34l9.47,1.23,16.67,32.08A112.62,112.62,0,0,1,158.73,720l5,28.4"/><path class="cls-2" d="M140.05,683.1l5,6.79c2.86-3.32,6.59-11.94,7.1-15.55"/><polyline class="cls-2" points="145.06 689.89 161.78 749.49 153.42 748.95 130.27 701.93 129.24 695.42"/><polyline class="cls-2" points="136.33 687.34 138.05 699.54 158.29 749.26"/><path class="cls-2" d="M229.89,622.48c-1.16-8.72-10.35-41.86-26.72-61s-30.08-22-30.08-22"/><path class="cls-1" d="M231.55,698.23s3.23-5.6,7.34-3,8.74,8.37,7.36,15.17c-2,9.86-12.09,36.14-26.57,46.78-8.48,6.24-22.25,7.22-22.25,7.22Z"/><path class="cls-1" d="M220.2,699.5s2.47-5,6.84-4.22,9,9.1,9.11,11.6c.35,5.86-8.61,37.67-23.58,48.9s-22.36,10.17-27.4,10L211.32,733Z"/><path class="cls-1" d="M210.38,745.33a48.47,48.47,0,0,1-8.44,10.25c-6.09,5.71-14.4,10.85-23.8,11.61-15.15,1.22-26-8.67-26-8.67a167.38,167.38,0,0,0,26,.46c18.92-2.73,31.14-36.36,33.46-41.74s1.83-8.42.13-10.37-2.82-3.79-2.45-5.74,2.81-4,5.62-4.27,4.52.48,8.79,8.06S215.14,737.27,210.38,745.33Z"/><line class="cls-2" x1="363.93" y1="472.72" x2="287.24" y2="470.18"/><line class="cls-2" x1="196.42" y1="510.81" x2="344.79" y2="519.59"/><line class="cls-2" x1="258.01" y1="489.13" x2="352.88" y2="491.32"/><polyline class="cls-2" points="387.38 399.49 418.44 393.72 441.49 406.84 463.03 459.94"/><polyline class="cls-2" points="382.33 408.52 417.35 403.07 431.47 410.26 449.76 457.14"/></svg>
