<svg id="Layer_2" data-name="Layer 2" xmlns="http://www.w3.org/2000/svg" viewBox="0 0 1200 1500"><defs><style>.cls-1{fill:#0a0a0a;}.cls-1,.cls-2{stroke:#fefefe;stroke-linecap:round;stroke-linejoin:round;stroke-width:2px;}.cls-2{fill:none;}</style></defs><title>Artboard 1 copy 10</title><path class="cls-1" d="M646.54,1268.9c-8.79,19-23.5,23.5-37.4,23.5-27.79,0-192.49-56.81-192.49-132Z"/><path class="cls-1" d="M632.05,1231.47s18.78,19.65,14.49,37.43c-3.69,15.3-49.76,23.91-105.7-15.73l-8-16.76Z"/><rect class="cls-1" x="612.95" y="1182" width="7.64" height="142.17" transform="translate(-778.99 1302.93) rotate(-65.84)"/><ellipse class="cls-1" cx="681.63" cy="1282.18" rx="3.82" ry="2.61" transform="translate(-767.23 1379.29) rotate(-65.84)"/><rect class="cls-1" x="603.83" y="1189.94" width="7.64" height="142.17" transform="translate(-791.62 1299.3) rotate(-65.84)"/><ellipse class="cls-1" cx="672.51" cy="1290.12" rx="3.82" ry="2.61" transform="translate(-779.85 1375.66) rotate(-65.84)"/><rect class="cls-1" x="650.06" y="1142.01" width="12.18" height="226.46" transform="translate(-757.69 1340.13) rotate(-65.84)"/><ellipse class="cls-1" cx="759.46" cy="1301.59" rx="6.09" ry="4.15" transform="translate(-738.96 1461.76) rotate(-65.84)"/><rect class="cls-1" x="619.55" y="1164.61" width="12.18" height="226.46" transform="translate(-796.34 1325.64) rotate(-65.84)"/><ellipse class="cls-1" cx="728.94" cy="1324.19" rx="6.09" ry="4.15" transform="translate(-777.6 1447.27) rotate(-65.84)"/><path class="cls-1" d="M617.64,1193.7c10.3,6.34,23.38,17.37,23.38,29.22s-43.39,20-108.13,13.49l8,16.76s-124.19-41.28-124.19-92.78c0-17.16,28.6-20.84,28.6-20.84Z"/><path class="cls-1" d="M558.46,1130.76c23.3,14.1,65.8,65.6,65.8,77.45s-37.6,11.85-116.47-22.07-67.85-42.5-62.54-46.59,20.64-8.79,20.64-8.79Z"/><path class="cls-1" d="M411.33,560.63l54.56,570.13c25.75,11,85.22,4.91,92.57,0l4.91-93.18-7.77-8.17,4.7-66.83,6.54-5.92,3.07-44.55-7.77-9.81L566,851.42l7-8.58,2.45-40.67c0-7.15-5.92-8-5.92-8l2-38.82s6.34-.21,6.75-3.27l3.26-55.18-6.13-7.76,2.05-39.85,6.95-4.5,1.63-34.74L494.91,544.9Z"/><path class="cls-1" d="M667.38,526.1c0,52.51-75.81,92.36-97.27,92.36-10.83,0-76-67-76-67L631,498.51S667.38,516.9,667.38,526.1Z"/><path class="cls-2" d="M651.51,532.13c2.79,2.35,9.84,15.42,10.4,18.49"/><path class="cls-2" d="M649,541.37c-8,.63-37.3-1.9-50.68-8.93-7.15,14.3-34.53,68.24-37,70.7,6.34,5.31,10.63,10,15.33,7.76S645.52,568.91,649,541.37Z"/><polyline class="cls-2" points="578.19 524.21 587.68 528.96 556.62 592.1 552.54 588.42 549.68 594.14 522.29 569.22 534.33 540.96"/><polygon class="cls-1" points="587.68 520.58 250.1 649.52 250.1 632.15 587.68 501.98 587.68 520.58"/><polygon class="cls-1" points="250.1 632.15 158.76 590.67 280.45 510.36 286.58 511.89 418.89 420.55 587.68 489.21 587.68 501.98 250.1 632.15"/><path class="cls-1" d="M584.42,644.82c-2.81-2.81-21.82,11.29-21.82,11.29l14.87-6.79Z"/><polygon class="cls-1" points="562.6 656.11 560.92 695.65 575.42 689.17 577.47 649.32 562.6 656.11"/><path class="cls-1" d="M560.92,695.65l4.9,7.82s12.62,1.18,15.73-6.54l-6.13-7.76Z"/><polyline class="cls-2" points="569.5 794.2 569.32 797.67 560.92 801.05 523.11 785.11 523.11 739.14"/><path class="cls-2" d="M571.54,755.38c-5.11,0-8.07-1.13-12.26-2.56l-56.19-21.25c-4.3-1.53-13.59-4.09-13.59,6.54v31c0,5.82,4.49,9.7,10.83,12.46l56.81,21.87s17.89,5.26,18.28-1.23"/><path class="cls-2" d="M523.11,785.11c-11.39-1-19.63-2.81-26.7-5.6"/><line class="cls-2" x1="560.92" y1="801.05" x2="563.06" y2="754.08"/><path class="cls-2" d="M573,842.84c-6,6-11.24,6.54-14.71,6.33l-8,9.4-2.45,50.07,6.13,9.81s15.94,1.83,15.94-6.34"/><line class="cls-2" x1="547.84" y1="908.64" x2="562.14" y2="902.3"/><line class="cls-2" x1="566.02" y1="851.42" x2="550.29" y2="858.57"/><path class="cls-2" d="M566.84,956.66c-5,5-12.05,6-14.81,6l-7,6.28-4.14,67.13,6.59,8.89s15.94-.31,15.94-7.36"/><line class="cls-2" x1="540.84" y1="1036.05" x2="555.6" y2="1029.41"/><line class="cls-2" x1="560.3" y1="962.58" x2="544.98" y2="968.92"/><polygon class="cls-2" points="479.79 785.11 511.67 798.49 532.46 835.27 530.06 870.01 536.8 882.68 528.83 999.57 502.88 1015.72 462.42 960.34 460.79 807.48 479.79 785.11"/><polyline class="cls-2" points="530.26 741.85 530.26 734.53 479.79 715.32 479.79 785.11"/><line class="cls-2" x1="530.26" y1="734.53" x2="530.26" y2="690.6"/><line class="cls-2" x1="460.79" y1="807.48" x2="433.71" y2="794.45"/><path class="cls-2" d="M462.42,960.34v24.52l9.81,18-1,18.8L543.75,1093c8.38,7.15,16.38,6.19,16.55,2.89"/><line class="cls-2" x1="504.19" y1="1054.06" x2="456.67" y2="1034.33"/><path class="cls-2" d="M465.31,1037.92l10,86.3s39.85.21,49.46,0,34.21-2.86,34.49-8.17"/><polygon class="cls-2" points="447.04 732.44 468.81 741.48 468.81 757.11 447.04 747.92 447.04 732.44"/><polygon class="cls-2" points="447.25 757.11 447.04 772.59 468.81 782.31 468.81 766.46 447.25 757.11"/><polyline class="cls-2" points="446.72 574.42 446.72 635.01 463.24 649.52 472.02 640.12 472.02 564.76"/><polyline class="cls-2" points="446.72 635.01 431.36 646.46 436.26 695.65 454.25 702.25 488.99 680.99 519.02 696.35 519.02 682.63 515.75 680.58 516.57 627.66 550.9 650.28 552.54 618.46 484.21 560.1"/><line class="cls-2" x1="498.69" y1="572.47" x2="497.13" y2="685.15"/><line class="cls-2" x1="497.55" y1="654.63" x2="472.02" y2="640.12"/><polygon class="cls-1" points="524.64 687.5 541.41 696.75 548.65 693.05 548.65 668.37 542.07 664.39 542.07 654.63 524.86 641.67 524.64 687.5"/><path class="cls-1" d="M667.38,526.1c0,4.73-27,13.89-79.69-5.52"/><polyline class="cls-2" points="289.8 509.67 299.11 511.24 422.62 425.77"/><path class="cls-1" d="M393.43,421.26l-8.07-3.51c-7.21-3-10.2-19.51-6.06-32.6,3.89-12.3,15-22.85,24.25-22.84l10.22,3.88Z"/><path class="cls-1" d="M395.3,356.54c-15.77-5.64-18.75-24-11.15-39.84,7.33-15.23,23.5-20.29,34.54-14.06"/><path class="cls-1" d="M411.54,369l-16.15-10c-5.36-3.52-5.05-25.9,0-37.4s15.48-20.23,27.44-20.07h5l39.82,19.24Z"/><path class="cls-1" d="M441.37,440.79l-44.44-17.17c-6.51-2.9-9.35-38.63,9.91-52"/><path class="cls-1" d="M668.74,343.74s-42.42,15.19-105.44-8.14-104-42-111-48.22c-.64-7.08.57-11.14,5.61-14.38,26.06,1.53,99.65,15,121.5,20.76C603,300,658.19,323.06,668.74,343.74Z"/><polygon class="cls-1" points="399.99 404.92 411.54 401.65 462.42 420.72 454.45 429.03 399.99 404.92"/><polygon class="cls-1" points="411.54 401.65 411.54 361.35 460.99 378.76 462.42 420.72 411.54 401.65"/><polygon class="cls-1" points="457.92 411.46 406.84 392.45 406.84 370.38 457.92 389.36 457.92 411.46"/><polygon class="cls-1" points="406.84 370.38 411.54 368.95 461.28 387.23 457.92 389.36 406.84 370.38"/><path class="cls-1" d="M587.69,496.72,441.37,440.79s-.76-9.82-38.77-23.3c-4.75-6.75-2.61-12.57-2.61-12.57l50.88,19.16c5.06,1.68,7.05.15,7.05-4.29V385.61c0-4.75-1.22-7.21-5.51-8.58s-50.58-19.47-50.58-19.47-4.9-10.57.15-25.29c13.95.31,45.52,1.38,47.51-7.35s-2.45-11.19-6.74-14.41L581.15,282l53.33,48.43s9.36,19.62,9.36,37.55Z"/><polygon class="cls-1" points="587.68 520.58 618.85 515.57 618.85 503.21 587.68 489.21 587.68 520.58"/><polygon class="cls-1" points="618.85 515.57 636.03 501.17 636.03 483.69 618.85 503.21 618.85 515.57"/><polygon class="cls-1" points="813.35 307.69 813.35 312.39 849.24 324.81 856.06 321.59 813.35 307.69"/><polygon class="cls-1" points="813.35 312.39 799.09 317.33 838.07 336 849.24 324.81 813.35 312.39"/><path class="cls-1" d="M789,313.52,778.1,323.79v7.35l12.56,5.06,8.13,20.85s51,22.83,56.7,25.28,7.67,8.43,8.13,11.19,3.67,11.5,11.18,12.88,29.75,4.86,48.86-10.11c13.05-10.22-4.91-21.15-12.25-38.12-8-18.39-20.78-29.11-32.93-33,0,0-47.81-15-52.72-16.71s-12.41-.76-12.41-.76S844,318.27,846.6,319.34s8.59,2.3,4,4.75-8.43,4.14-11,5.22-5.67.91-9.65-.46S789,313.52,789,313.52Z"/><path class="cls-1" d="M876.34,342.33c-10.72,4.4-17.18,7-8.6,15.4,6.34,6.23,13.44,19,15.64,24.35,2.76,6.75,5,13.56,11,14.17s22.44-6.41,28-10.24-5.08-9.16-10-19.68C904.92,350.39,897.64,333.6,876.34,342.33Z"/><path class="cls-2" d="M884.42,384.67c5.52-1.84,16.49-5,21.39-6.27s6.62-7.76,5-12.07"/><path class="cls-1" d="M1085,425.49l-4.33,11.39L885,362.5H885c-2.11-.85-2.86-4-1.68-7.16s3.91-5,6-4.21Z"/><ellipse class="cls-1" cx="1082.78" cy="431.19" rx="6.09" ry="4.15" transform="translate(294.88 1290) rotate(-69.18)"/><path class="cls-1" d="M967,391.42l-2.73,7.15-88.44-33.64c-1.34-.51-1.83-2.53-1.07-4.49s2.44-3.16,3.79-2.65Z"/><ellipse class="cls-1" cx="965.64" cy="394.99" rx="3.82" ry="2.61" transform="translate(253.21 1157.18) rotate(-69.18)"/><polygon class="cls-1" points="882.72 386.32 885.62 398.57 636.03 501.17 636.03 483.69 882.72 386.32"/><polygon class="cls-1" points="882.72 386.32 803.07 355.88 689.14 372.98 684.75 373.64 681.28 378.47 643.84 385.71 636.03 483.69 882.72 386.32"/><path class="cls-1" d="M542.47,419.16l-.1,48.6c0,5.36,28.2,22.53,45.32,29s51.59,10.68,56.15,8.87V368C631.72,368,542.47,396.64,542.47,419.16Z"/><path class="cls-1" d="M640.05,501.86V372.14c-9,0-93.89,28.26-93.89,47.55v46.5C546.16,472,589.76,501.86,640.05,501.86Z"/><line class="cls-1" x1="594.67" y1="386.62" x2="594.67" y2="494.32"/><polygon class="cls-1" points="627.44 413.09 594.67 412.07 594.67 408.19 627.44 409.21 627.44 413.09"/><polygon class="cls-1" points="627.44 444.56 594.67 443.54 594.67 439.66 627.44 440.68 627.44 444.56"/><polygon class="cls-1" points="627.44 473.99 594.67 472.97 594.67 469.08 627.44 470.11 627.44 473.99"/><line class="cls-1" x1="627.44" y1="409.21" x2="594.67" y2="397.56"/><line class="cls-1" x1="627.44" y1="440.68" x2="594.67" y2="429.03"/><line class="cls-1" x1="627.44" y1="470.11" x2="594.67" y2="458.46"/><path class="cls-2" d="M567.48,399.35s-5.19,5.26-5.19,10.47v54.46c0,3.48,18.67,23.26,28.34,29v-105"/><line class="cls-1" x1="562.29" y1="464.28" x2="548.35" y2="469.6"/><path class="cls-2" d="M565.88,396l-41.75-15.18s2-6.51,3.89-8.67.4-5.64-2.25-6.25-13.9-4.5-13.9-4.5l-4.08,1.84-21.46-7.15s-6.95,8.17-9.61,14.71l-4.29-1.22s-2.86,5.92-2.86,21.25v48.84c0,4.7,2.45,8.17,3.68,10L558.91,482"/><path class="cls-2" d="M613.59,375.77l-29.38-10.49c-4.7.2-30.09,15.73-30.09,15.73l-10.37-3.62L542.37,379,538,377.3l-5.56,6.53c-4.53,5.56-7.59,13.43-7.59,20.17v55.58c0,5.93,10.52,13.55,18.54,16.58"/><polyline class="cls-2" points="469.65 386.62 519.23 404.51 519.23 450.69 469.65 432.92"/><path class="cls-1" d="M468.45,407.06l5.92-7.86,31,11.44c5.62,1.94,11,8.55,9.91,17.68-1,8.08-7.56,10.52-19.51,5"/><path class="cls-1" d="M468.45,407.06v15.33l27.28,10.93c3.78,1.54,7.25.23,7.25-5.51a10.38,10.38,0,0,0-6.64-9.81Z"/><ellipse class="cls-1" cx="495.59" cy="425.77" rx="4.02" ry="5.05" transform="translate(-146.49 304.84) rotate(-30)"/><line class="cls-1" x1="469.57" y1="439.66" x2="400.11" y2="412.38"/><line class="cls-1" x1="565.88" y1="374.09" x2="438.74" y2="330.9"/><line class="cls-1" x1="470.78" y1="375.57" x2="399.99" y2="350.28"/><path class="cls-1" d="M621.61,360.17s-42.3,12.26-102.38-14.31-98.91-47.2-105.44-53.74c-.21-6.95,1.22-10.83,6.33-13.69,25.34,3.06,96.33,20.65,117.3,27.58C560.08,313.51,612.56,339.35,621.61,360.17Z"/><path class="cls-2" d="M547.17,356a12.81,12.81,0,0,1-2.35-8.09l-5.51-2.15s-5-21.56,16.25-32.54"/><path class="cls-2" d="M518.91,300.59C512,304.07,495.8,319,505.52,339.74"/><path class="cls-2" d="M477.94,290.18c-8.52,6.38-16.32,17.53-9.51,32.26"/><path class="cls-2" d="M589.28,330.9c-6.7,3.31-10.38,9.24-10.59,10.26L595,349.9s-3.38,4.44-.55,13.09"/><polygon class="cls-1" points="532.51 346.94 528.63 354.85 536.04 352.49 532.51 346.94"/><path class="cls-1" d="M532.51,347s-76.57-30.63-79-31.87l1.57,5.08,5.11,3.43-.2,5.72,68.66,25.54Z"/><polygon class="cls-2" points="434.06 447.83 521.67 482.02 237.23 618.46 194.32 600.48 434.06 447.83"/><line class="cls-2" x1="327.16" y1="515.9" x2="396.14" y2="542.24"/><line class="cls-2" x1="357.99" y1="496.26" x2="433.73" y2="524.21"/><polyline class="cls-2" points="227.62 545.23 348.68 594.14 348.68 611.87"/><polygon class="cls-1" points="586.82 213.65 586.82 171.15 463.65 135.79 446.64 253.81 582.58 231.02 586.82 213.65"/><path class="cls-1" d="M662.68,325.84c-33.31,10.42-79.08,2.86-137.83-23.6s-84.91-44.86-84.91-44.86S510,217.94,564.19,217.94c19.41,0,22.63-4.29,22.63-4.29C597.49,213.65,662.68,305,662.68,325.84Z"/><polygon class="cls-1" points="524.85 293.6 524.85 302.24 508.87 309.33 508.87 297.9 518.91 284.46 524.85 293.6"/><polygon class="cls-1" points="508.87 297.9 469.27 282.62 469.27 293.65 508.87 309.33 508.87 297.9"/><polygon class="cls-1" points="469.27 282.62 479.48 269.85 518.91 284.46 508.87 297.9 469.27 282.62"/><path class="cls-2" d="M464.46,174.62l-10.21,68.25s48.43-22.27,79.49-26.56V193Z"/><polyline class="cls-2" points="462.3 189.05 494.91 198.53 505.14 185.42"/><polygon class="cls-1" points="148.03 567.38 148.03 572.08 183.92 584.49 190.74 581.27 148.03 567.38"/><polygon class="cls-1" points="148.03 572.08 133.78 577.01 172.76 595.68 183.92 584.49 148.03 572.08"/><path class="cls-1" d="M123.66,573.2l-10.88,10.27v7.35l12.57,5.06,8.12,20.85s51,22.83,56.71,25.28,7.66,8.43,8.12,11.19,3.68,11.5,11.19,12.88,29.73,5.36,49.81-8.28-18.85-64.22-46.13-72.95c0,0-47.82-15-52.73-16.71s-12.41-.76-12.41-.76S178.68,578,181.29,579s8.58,2.3,4,4.75-8.43,4.14-11,5.22-5.67.91-9.66-.46S123.66,573.2,123.66,573.2Z"/><path class="cls-1" d="M211,602c-10.72,4.4-16.86,9.66-16.7,18.55s.3,12.26,6.74,15.32,10.88,4.29,12.11,10-.92,8.59,5.05,9.2,33.26-5.52,38.78-9.35,1.67-14.63-4.92-24.18S232.32,593.28,211,602Z"/><path class="cls-2" d="M213.87,652.13c-.36-4.13,1.19-6.49,6.7-8.33s15-4.49,19.93-5.72,6.62-7.76,5-12.07c-6.62-17.75-12.16-20.93-18-25.57"/><path class="cls-1" d="M299.48,646.53l-2.72,7.15L208.31,620c-1.34-.51-1.83-2.53-1.07-4.49s2.44-3.16,3.79-2.65Z"/><ellipse class="cls-1" cx="298.12" cy="650.1" rx="3.82" ry="2.61" transform="translate(-415.5 697.68) rotate(-69.18)"/><path class="cls-1" d="M400,691.42l-4.32,11.39-195.6-74.39H200c-2.11-.85-2.86-4-1.68-7.16s3.91-5,6-4.21Z"/><ellipse class="cls-1" cx="397.83" cy="697.12" rx="6.09" ry="4.15" transform="translate(-395.16 821.19) rotate(-69.18)"/><polyline class="cls-2" points="704.77 370.63 808.98 415.43 808.98 430.07"/><line class="cls-2" x1="643.84" y1="396.29" x2="818.14" y2="361.64"/><line class="cls-2" x1="643.84" y1="467.24" x2="867.68" y2="380.57"/><polygon class="cls-1" points="683.65 375.17 643.84 380.57 643.84 385.71 681.28 378.47 683.65 375.17"/><polyline class="cls-2" points="827.09 396.29 821.46 393.88 643.84 445.99"/><line class="cls-2" x1="701.65" y1="429.03" x2="643.84" y2="405.53"/><ellipse class="cls-2" cx="711.3" cy="403.63" rx="43.97" ry="17.25" transform="translate(-36.05 71.46) rotate(-5.61)"/><path class="cls-1" d="M487.35,157.45C409.49,120.26,403.91,85.91,410.52,63,416.24,43.22,468.6,17.58,532,36.79Z"/><path class="cls-1" d="M532,36.79c-18.39-6.34-58.5,10.52-68.71,46.28s3.27,66.41,24.11,74.38Z"/><path class="cls-2" d="M408.59,80c9.08,11,29.65,25.39,51.44,33.74"/><path class="cls-2" d="M409.94,65.2c14.27,11.33,38.19,20.41,51.46,25.47"/><path class="cls-2" d="M422.59,47.45c18-7.29,36.19-17.46,78.57-8.9l3.47.75"/><path class="cls-2" d="M491.08,36.79c-15.07,6.13-33.16,23.9-37.29,50.95"/><path class="cls-2" d="M451.76,110.28s1.59,24.32,15.32,36.67"/><path class="cls-2" d="M451.76,37.25c-13.3,9.19-21.71,24-24.56,38.74"/><path class="cls-2" d="M425.18,94.86c-.06,8.48,2,18.89,5.19,25.72"/><ellipse class="cls-2" cx="505.86" cy="97.25" rx="48.89" ry="34.68" transform="translate(275.37 557.93) rotate(-74.3)"/><path class="cls-1" d="M567.81,40.31c-3.74-1.94-30-12.82-58.5,5.64-21.32,13.8-52.61,74.63-18.43,116.2,8.86,10.79,21.81,12.61,27.28,13.49"/><path class="cls-1" d="M613.64,64.07c-2.5-4.38-11.76-19.38-30-24.93-29.13-8.85-54.9,16.4-60.08,21.45-32.36,31.54-24.52,77.27-23.7,81.54,2,10.35,5.13,26.76,19.82,38.21,16.75,13.07,36.55,10.36,38.82,10a51.64,51.64,0,0,0,24.93-11.24Z"/><path class="cls-2" d="M523.52,60.59l-9.4-3.06C508.19,63.89,489,83.79,489,117.61s12.57,47.76,22.73,54.84"/><path class="cls-1" d="M575.08,184.73a63.4,63.4,0,0,1-23.67.69c-32-5-45.87-37.88-39.22-75.14C518.31,76,541.6,49.35,572.87,45.06c24.9-3.42,40.77,19,40.77,19l-30.25,115Z"/><path class="cls-1" d="M613.64,64.07s-17.47-11.65-31.27-10.73-46,13.79-56.7,54.56,11,68.66,23,71.42S621.91,191.75,667,192l50.88-13.57V166.52l8-2.53-4.56-20.35c-.9-1.17-2.85-3.61-4-4.78C705,126.6,644.9,74.79,613.64,64.07Z"/><path class="cls-1" d="M613.64,64.07c-9.85-2.91-22.07-9.82-41.08,0-19.55,10.1-26.15,45-26.15,45l19.41,40.26S658,169.92,685.57,166c-2.25-12.47-3.36-30.75,6.74-38.83,4.09-3.27,12.15-.07,12.15-.07S652.46,75.51,613.64,64.07Z"/><polyline class="cls-2" points="513.76 174.87 510.56 179.01 499 175.64 498.4 168.88"/><polyline class="cls-2" points="499 175.64 514.45 187.89 533.74 193.01 510.56 179.01"/><line class="cls-2" x1="533.74" y1="193.01" x2="535.25" y2="188.41"/><path class="cls-2" d="M546.41,109c18.39,6.34,126.24,34.05,137.91,35.83"/><path class="cls-2" d="M549.11,98.76s100,31.55,136.33,39.81"/><path class="cls-1" d="M725.82,164l-30.44,9.81s-3.48-30.45,15.22-33.92C725.17,137.17,725.82,156.84,725.82,164Z"/><polyline class="cls-2" points="666.97 191.97 666.97 177.89 695.38 173.8"/><path class="cls-2" d="M667,177.89s-99.16-13.53-141-27"/><path class="cls-2" d="M536,153.8c2.62,10.81,11.21,21.64,20,27"/><path class="cls-1" d="M744.09,186.26c-.34,1.17,0,2.33.84,2.55L703.7,177c-.8-.24-1.18-1.38-.84-2.56s1.25-1.94,2.06-1.71l41.23,11.83C745.35,184.32,744.43,185.08,744.09,186.26Z"/><path class="cls-1" d="M747,187.09c-.34,1.19-1.26,1.95-2.07,1.72s-1.18-1.38-.84-2.55,1.26-1.94,2.06-1.72h0C747,184.79,747.35,185.93,747,187.09Z"/><path class="cls-1" d="M712.89,192.56l-31.39-9c-.8-.23-1.18-1.37-.83-2.55s1.25-1.95,2.06-1.72l31.39,9c-.8-.22-1.72.54-2.06,1.72S712.1,192.33,712.89,192.56Z"/><path class="cls-1" d="M715,190.84c-.34,1.19-1.25,1.94-2.06,1.72h0c-.79-.23-1.17-1.38-.83-2.55s1.26-1.94,2.06-1.72h0l0,0A2,2,0,0,1,715,190.84Z"/><path class="cls-1" d="M707.23,195.56l-31.38-9c-.8-.23-1.18-1.37-.84-2.55s1.25-2,2.06-1.71l31.39,9c-.8-.22-1.72.54-2.06,1.72S706.45,195.32,707.23,195.56Z"/><path class="cls-1" d="M709.32,193.84c-.35,1.19-1.25,1.94-2.06,1.72h0c-.78-.24-1.16-1.39-.83-2.55s1.26-1.94,2.06-1.72h.06A2,2,0,0,1,709.32,193.84Z"/></svg>
