<svg id="Layer_2" data-name="Layer 2" xmlns="http://www.w3.org/2000/svg" viewBox="0 0 1200 1500"><defs><style>.cls-1{fill:#0a0a0a;}.cls-1,.cls-2{stroke:#fefefe;stroke-linecap:round;stroke-linejoin:round;stroke-width:2px;}.cls-2{fill:none;}</style></defs><title>Artboard 1 copy 6</title><polygon class="cls-1" points="498.36 317.52 502.64 309.23 500.67 308.76 493.44 314.6 498.36 317.52"/><polygon class="cls-1" points="502.64 309.23 509.57 315 506.1 322.92 498.36 317.52 502.64 309.23"/><polygon class="cls-1" points="455.56 328.2 448.9 325.26 444.24 333.5 450.44 338.07 455.56 328.2"/><polygon class="cls-1" points="516.48 367.71 523.99 373.54 520.05 380.84 511.95 376.95 516.48 367.71"/><polygon class="cls-1" points="465.97 386.54 461.8 392.79 460.44 391.61 459.63 382.02 465.97 386.54"/><polygon class="cls-1" points="461.8 392.79 467.87 395.32 470.86 389.89 465.97 386.54 461.8 392.79"/><path class="cls-1" d="M447.65,359c0,.13,0,.26.05.38,3.07,22.42,21.64,37.79,41.5,34.34a33.11,33.11,0,0,0,8.42-2.66c18.55-8.7,27.35-32.73,19.64-53.69-6.38-17.32-22.35-27.57-38.8-24.88C458.58,315.75,444.78,336.58,447.65,359Zm27.4-41.29c13.51-2.25,26.62,6.33,31.85,20.86,6.33,17.55-.9,37.7-16.13,45a27.27,27.27,0,0,1-6.9,2.23c-16.31,2.9-31.56-10-34.07-28.78,0-.11,0-.21,0-.31C447.4,337.91,458.72,320.46,475.05,317.74Z"/><path class="cls-2" d="M501.28,345c4,10.52-.56,22.58-10.13,26.94a17.1,17.1,0,0,1-4.33,1.34c-10.24,1.73-19.82-6-21.4-17.23l0-.19c-1.48-11.27,5.63-21.72,15.89-23.35C489.76,331.18,498,336.33,501.28,345Z"/><line class="cls-2" x1="450.88" y1="362.34" x2="508.7" y2="345.62"/><polygon class="cls-1" points="475.13 313.24 494.73 392.28 488.59 384.52 480.95 358.66 482.62 353.16 477.28 345.62 471.77 318.5 475.13 313.24"/><polygon class="cls-1" points="687.75 333.13 505.13 311.31 499.17 316.01 687.03 343.09 687.75 333.13"/><polygon class="cls-1" points="499.17 316.01 507.61 319.48 580.75 330.69 581.71 327.91 499.17 316.01"/><polygon class="cls-1" points="523.99 373.54 547.26 379.12 544.18 387.4 520.05 380.84 523.99 373.54"/><polygon class="cls-1" points="466.33 389.27 465.26 394.23 626.74 456.07 628.91 447.19 466.33 389.27"/><path class="cls-1" d="M592.88,325.44l-6.42-1s-38.48-.36-47.89,41.64S555.4,421,555.4,421l7.43,2.65Z"/><polygon class="cls-1" points="683.48 338.29 687.75 330.82 691.22 340.74 683.48 338.29"/><polygon class="cls-1" points="687.75 330.82 698.07 338.97 698.68 344 691.22 340.74 687.75 330.82"/><path class="cls-1" d="M566.22,425.4l83.18,33.78a31.9,31.9,0,0,0,3.76,1.26c23.89,6.39,50.67-16.08,59.8-50.2s-2.85-66.94-26.74-73.34a33.47,33.47,0,0,0-3.89-.78l-88.94-12.27c-18.85-2.6-39,15.43-46.13,42.06S548.59,418.24,566.22,425.4Z"/><path class="cls-1" d="M658.28,461.79a27.93,27.93,0,0,0,3.92.75C660.25,462.21,658.9,461.92,658.28,461.79Z"/><path class="cls-1" d="M692.21,343.27l47.66,18a4,4,0,0,0,1.38.25,3.89,3.89,0,0,0,1.34-7.55l-48.13-17.56a1.13,1.13,0,0,0-.24-.08c-1.53-.39-3.19.86-3.66,2.78S690.83,342.75,692.21,343.27Z"/><polygon class="cls-1" points="750.94 374.14 752.21 362.37 747.14 358.12 740.89 364.73 750.94 374.14"/><polygon class="cls-1" points="743.97 349.16 747.14 358.12 752.21 362.37 748.09 352.23 743.97 349.16"/><polygon class="cls-1" points="732.29 357.21 743.97 349.16 747.14 358.12 740.89 364.73 732.29 357.21"/><polygon class="cls-1" points="755.92 429.13 759.18 436.74 753.88 444.61 745.6 443.12 755.92 429.13"/><path class="cls-1" d="M657.91,461.71H658l.32.07c.62.13,2,.42,3.92.75,17.67,3.12,84.58,11.38,97.52-38.89,16.95-65.8-60.2-83.79-70.12-85.81a1,1,0,0,0-.22,0l-.36-.07-.46-.09c-23.26-4.33-48.56,17.76-57.38,50.73C622.05,422.48,634,455.32,657.91,461.71Z"/><polygon class="cls-1" points="447.66 327.46 612.93 360.43 611.24 363.82 446.31 329.83 447.66 327.46"/><polygon class="cls-1" points="446.31 329.83 450.88 335.33 609.88 367.56 611.24 363.82 446.31 329.83"/><path class="cls-2" d="M708.16,343.22c-22.33-6-47.68,16.27-56.63,49.72s2,65.43,24.28,71.4"/><polygon class="cls-1" points="615.65 353.98 606.69 370.75 620.95 378.49 628.91 361.78 615.65 353.98"/><polygon class="cls-1" points="606.69 370.75 609.95 376.18 620.95 378.49 606.69 370.75"/><polygon class="cls-1" points="636.43 448.28 625.2 457.79 627.28 445.29 636.43 448.28"/><polygon class="cls-1" points="636.43 448.28 643.49 456.78 636.43 461.53 625.2 457.79 636.43 448.28"/><path class="cls-1" d="M613.82,366.23a4.35,4.35,0,0,0,3.25,4.21l55.37,14.29a4.26,4.26,0,0,0,1.08.14,4.35,4.35,0,0,0,1.09-8.56L619.25,362a4,4,0,0,0-1.08-.14A4.34,4.34,0,0,0,613.82,366.23Z"/><polygon class="cls-1" points="695.13 381.34 684.22 378.49 679.61 386.9 687.75 395.87 695.13 381.34"/><polygon class="cls-1" points="663.18 379.57 679.61 386.9 687.75 395.87 668.06 387.18 663.18 379.57"/><polygon class="cls-1" points="666.16 372.92 663.18 379.57 679.61 386.9 684.22 378.49 666.16 372.92"/><polygon class="cls-1" points="666.16 372.92 675.13 372.78 695.13 381.34 684.22 378.49 666.16 372.92"/><path class="cls-1" d="M632.79,458.49a2.62,2.62,0,0,0,1.48.74l50.7,8a3.31,3.31,0,0,0,.55,0,3.46,3.46,0,0,0,.56-6.88l-.28,0-49-8.11a4.1,4.1,0,0,0-3.5,1.27C631.81,455.05,631.57,457.28,632.79,458.49Z"/><polygon class="cls-1" points="704.46 459.96 695.13 467.29 688.98 462.54 695.13 452.49 704.46 459.96"/><polygon class="cls-1" points="678.28 468.24 682.59 471.64 695.13 467.29 688.98 462.54 678.28 468.24"/><polygon class="cls-1" points="695.13 452.49 679.92 456.5 678.28 468.24 688.98 462.54 695.13 452.49"/><polygon class="cls-1" points="82.82 431.44 68.56 432.67 79.97 437.42 82.82 431.44"/><polygon class="cls-1" points="68.56 432.67 62.73 444.75 75.69 449.36 79.97 437.42 68.56 432.67"/><polygon class="cls-1" points="148.81 417.59 144.53 423.84 132.11 417.59 135.91 412.16 148.81 417.59"/><polygon class="cls-1" points="135.91 412.16 128.85 415.56 132.11 417.59 135.91 412.16"/><polygon class="cls-1" points="167.96 471.23 176.51 479.65 167.96 476.52 167.96 471.23"/><polygon class="cls-1" points="176.51 479.65 169.45 488.61 165.38 484.94 167.96 476.52 176.51 479.65"/><polygon class="cls-1" points="169.41 479.65 175 481.57 185.79 511.83 179.82 510.2 169.41 479.65"/><polygon class="cls-1" points="169.41 479.65 167.42 486.75 173.03 504.77 179.82 510.2 169.41 479.65"/><polygon class="cls-1" points="174.36 652.62 185.71 651.51 191.87 640.17 185.19 634.63 174.36 652.62"/><path class="cls-1" d="M84.51,492.17c17.45,23,48.22,29,68.75,13.43s23-46.84,5.61-69.82-48.22-29-68.75-13.44S67.08,469.18,84.51,492.17Zm11-67.93c16.84-12.76,42.13-7.78,56.48,11.15s12.34,44.61-4.5,57.39S105.33,500.56,91,481.64,78.64,437,95.48,424.24Z"/><ellipse class="cls-2" cx="121.69" cy="463.97" rx="24.21" ry="27.11" transform="translate(-255.65 167.84) rotate(-37.18)"/><line class="cls-2" x1="159.31" y1="449.35" x2="84.29" y2="469.52"/><polygon class="cls-1" points="99.34 417.03 144.53 510.7 142.65 495.83 126.82 461.86 121.69 459.28 121.94 453.98 104.77 419.23 99.34 417.03"/><polygon class="cls-1" points="107.54 668.57 96.6 679.38 84.81 676.91 84.25 664.15 107.54 668.57"/><path class="cls-1" d="M36.56,589.45c-4.09,44,29.29,83.14,74.56,87.34s85.28-28.08,89.37-72.12a78.49,78.49,0,0,0-.26-16.88l-6.55-52.92a75.15,75.15,0,0,0-148.9-1.73l-7.7,52C36.87,586.58,36.7,588,36.56,589.45Z"/><polygon class="cls-1" points="150.04 499.88 144.53 518.48 142.56 506.61 150.04 499.88"/><polygon class="cls-1" points="174.21 510.06 150.04 499.88 144.53 518.48 169.59 526.9 174.21 510.06"/><polygon class="cls-1" points="67.14 435.62 63.81 442.51 35.16 528.44 40.86 519.29 67.14 435.62"/><polygon class="cls-1" points="38.69 518.89 51.73 521.88 50.64 536.81 38.69 518.89"/><polygon class="cls-1" points="30 542.38 38.69 518.89 50.64 536.81 41.41 555.01 30 542.38"/><polygon class="cls-1" points="67.14 435.62 40.86 519.29 49.3 521.43 73.89 438.28 67.14 435.62"/><polygon class="cls-1" points="140.46 414.08 158.97 503.65 165.38 506.35 144.53 415.79 140.46 414.08"/><polygon class="cls-1" points="140.46 414.08 136.49 418 152.92 501.1 158.97 503.65 140.46 414.08"/><path class="cls-1" d="M198.64,574.9c-1.49-12-31.22-64.7-103.46-50.85-44.84,8.6-55.32,42.35-56.31,49.05"/><path class="cls-1" d="M155,513.39a2.17,2.17,0,0,0,0,.26L157,552a2.26,2.26,0,0,0,0,.27,5.09,5.09,0,0,0,10.18-.27c0-.09,0-.17,0-.26l-2-38.36v-.27a5.09,5.09,0,0,0-10.18.27Z"/><path class="cls-1" d="M35.18,538.1a4.68,4.68,0,0,0,.06.76L42,581.62a4.78,4.78,0,0,0,9.49-.76,4.65,4.65,0,0,0-.06-.75l-6.77-42.76a4.77,4.77,0,0,0-9.48.75Z"/><polygon class="cls-1" points="159.27 538.8 153.66 555.82 167.18 560.17 167.42 541.7 159.27 538.8"/><polygon class="cls-1" points="149.13 548.33 146.3 565.42 153.66 555.82 159.27 538.8 149.13 548.33"/><polygon class="cls-1" points="167.18 560.17 164.7 573.1 146.3 565.42 153.66 555.82 167.18 560.17"/><polygon class="cls-1" points="44.45 566.5 39.33 571.55 42.02 588.28 50.27 579.32 44.45 566.5"/><polygon class="cls-1" points="50.27 579.32 60.62 587.74 48.91 599.78 42.02 588.28 50.27 579.32"/><polygon class="cls-1" points="60.62 587.74 53.4 570.63 44.45 566.5 50.27 579.32 60.62 587.74"/><polygon class="cls-1" points="377.59 534.82 307.37 467.1 351.73 535.55 411.01 611.95 377.59 534.82"/><polygon class="cls-1" points="377.59 534.82 565.95 476.52 567.9 553.48 411.01 611.95 377.59 534.82"/><polygon class="cls-1" points="307.37 467.1 450.58 423.66 565.95 476.52 377.59 534.82 307.37 467.1"/><polygon class="cls-1" points="434.75 603.1 416.72 558 452.61 596.45 434.75 603.1"/><polygon class="cls-1" points="452.61 596.45 575.32 550.12 540.38 519.43 416.72 558 452.61 596.45"/><polygon class="cls-1" points="432.61 517.79 477.95 587 561.82 555.22 522.08 490.1 432.61 517.79"/><polygon class="cls-1" points="432.61 517.79 436.66 551.78 477.95 587 432.61 517.79"/><polygon class="cls-1" points="445.85 513.7 483.85 545.88 554.28 524.3 510.19 493.78 445.85 513.7"/><polygon class="cls-1" points="554.28 524.3 553.19 558.48 489.48 582.53 483.85 545.88 554.28 524.3"/><polygon class="cls-1" points="445.85 513.7 489.48 582.53 483.85 545.88 445.85 513.7"/><polygon class="cls-1" points="611.44 398.31 615.99 404.38 617.8 422.67 614.97 426.83 196.68 555.8 192.13 552.84 182.63 538.17 180.45 532.29 611.44 398.31"/><line class="cls-1" x1="615.99" y1="404.38" x2="182.62" y2="538.17"/><line class="cls-1" x1="192.13" y1="552.84" x2="617.8" y2="422.67"/><polygon class="cls-1" points="180.45 532.29 176.47 507.3 553.78 386.72 611.44 398.31 180.45 532.29"/><line class="cls-1" x1="579.12" y1="391.82" x2="178.25" y2="518.48"/><path class="cls-1" d="M415,420.38a5.68,5.68,0,0,0,3.78,1l.15-.06,141.59-44.22c.75-.24,1.52-1.78,1.8-3.72.32-2.2-.11-4.08-.95-4.2a1,1,0,0,0-.29,0L412.73,416.72a.75.75,0,0,0-.45.32C411.85,417.78,413.07,419.28,415,420.38Z"/><path class="cls-1" d="M423.25,423.74c1.53.89,3.06,1.27,3.84,1l.15-.05L571,379.82c.76-.23,1.54-1.8,1.83-3.78.32-2.22-.11-4.13-1-4.25a1,1,0,0,0-.29,0L421,420a.77.77,0,0,0-.45.32C420.06,421.1,421.3,422.62,423.25,423.74Z"/><polygon class="cls-1" points="409.12 394.23 452.33 412.8 348.88 447.28 315.33 422.67 409.12 394.23"/><polygon class="cls-1" points="348.88 447.28 347.38 467.65 467.96 428.37 452.33 412.8 348.88 447.28"/><polygon class="cls-1" points="315.33 422.67 309.36 432.89 347.38 467.65 348.88 447.28 315.33 422.67"/><polygon class="cls-1" points="343.18 414.23 346.86 407.19 354.82 412.8 353.74 421.95 343.18 414.23"/><polygon class="cls-1" points="354.82 412.8 393.39 401.39 398.82 408.27 353.74 421.95 354.82 412.8"/><polygon class="cls-1" points="393.39 401.39 384.74 396.57 346.86 407.19 354.82 412.8 393.39 401.39"/><polygon class="cls-1" points="309.36 432.89 304.24 446.85 379.76 517.78 382.64 499.85 309.36 432.89"/><path class="cls-1" d="M168.91,497.81c1.51.88,3,1.26,3.79,1l.15-.05,141.59-44.23c.75-.23,1.52-1.77,1.8-3.72.32-2.2-.11-4.08-1-4.2a1,1,0,0,0-.29,0L166.65,494.15a.81.81,0,0,0-.45.32C165.78,495.21,167,496.71,168.91,497.81Z"/><path class="cls-1" d="M171.46,502.43c1.53.89,3.06,1.27,3.84,1l.16-.05,143.7-44.89c.76-.24,1.54-1.8,1.83-3.78.32-2.22-.11-4.14-1-4.26a.72.72,0,0,0-.29,0L169.17,498.72a.76.76,0,0,0-.46.32C168.27,499.79,169.51,501.31,171.46,502.43Z"/><polygon class="cls-1" points="467.96 428.37 530.6 454.9 382.64 499.85 347.38 467.65 467.96 428.37"/><polygon class="cls-1" points="379.76 517.78 539.29 468.74 530.6 454.9 382.64 499.85 379.76 517.78"/><polyline class="cls-2" points="401.4 396.57 412.19 426.18 420.41 443.86 530.6 454.9"/><polyline class="cls-2" points="329.12 418.49 378.69 437.35 387.5 454.58 382.64 499.85"/><line class="cls-2" x1="452.34" y1="412.8" x2="452.94" y2="433.26"/><polyline class="cls-2" points="360.56 463.36 348.88 447.28 338.47 459.51"/><line class="cls-2" x1="315.33" y1="422.67" x2="316.34" y2="439.27"/><line class="cls-2" x1="475.78" y1="449.41" x2="385.09" y2="477.06"/><line class="cls-2" x1="386.48" y1="464.11" x2="354.82" y2="474.45"/><line class="cls-2" x1="438.99" y1="445.72" x2="479.51" y2="433.26"/><polygon class="cls-1" points="405.63 428.37 433.84 462.19 407.67 470.17 383.83 435.63 405.63 428.37"/><polygon class="cls-1" points="383.83 435.63 387.5 454.58 407.67 470.17 383.83 435.63"/><polygon class="cls-1" points="405.63 428.37 420.41 443.86 433.84 462.19 405.63 428.37"/><path class="cls-1" d="M507.55,481.55c.92,4.1,4,14.32,6.06,21.19,1.2,3.94,2.08,6.78,2.08,6.78l2.87-.29,8-2.3c-1.48-5.07-6.45-22-6.91-24.11-.54-2.44-4.07-8.69-6.79-8.15-1.39.29-3.14.4-4.32,1.3h0a3.52,3.52,0,0,0-1.29,2.71A9.75,9.75,0,0,0,507.55,481.55Z"/><path class="cls-1" d="M467.38,483.32h0l1.2,6.37L473,512.88l8.65,7h0l33.4-9.59s0-.07,0-.1l-1.4-7.4L508.56,476l0-.11v0l-.05-.22a2.57,2.57,0,0,0-.68-1.3l-.2-.2-.27-.23c-.21-.16-.44-.31-.71-.48h0a10.33,10.33,0,0,0-1.28-.58l-.38-.13q-.37-.13-.78-.24h0a28.84,28.84,0,0,0-7.2-.78,56,56,0,0,0-8.93.77c-.45.07-.92.15-1.37.24-6.49,1.21-12.09,3.29-15.57,5.55-.37.24-.7.48-1,.71a8.59,8.59,0,0,0-2.25,2.36A2.91,2.91,0,0,0,467.38,483.32Z"/><path class="cls-1" d="M467.38,483.32h0c.71,3.74,10.48,5.05,21.83,2.93s20-6.89,19.29-10.64h0c-.71-3.75-10.48-5.06-21.83-2.93S466.68,479.58,467.38,483.32Z"/><path class="cls-1" d="M466.67,479.58c.69,3.75,10.47,5.07,21.83,2.94s20-6.9,19.29-10.65a2.68,2.68,0,0,0-.28-.74l-12.09-21.42c-1.1-2-6.81-2.58-13.36-1.36s-11.64,3.88-12,6.12l-3.45,24.32A2.61,2.61,0,0,0,466.67,479.58Z"/><path class="cls-1" d="M470.1,454.46a1.34,1.34,0,0,0,0,.49c.44,2.32,6.5,3.14,13.54,1.82s12.39-4.28,12-6.6a1.6,1.6,0,0,0-.17-.46c-1.11-2-6.82-2.58-13.37-1.36S470.41,452.23,470.1,454.46Z"/><path class="cls-1" d="M463.18,496.57c.51,2.27,1.68,6.41,3,10.83l6.81,5.48,8.65,7h0c-1.94-6.56-5.89-20.14-6.3-22-.55-2.44-4-8.61-6.74-8.15h-.05C465.81,490.24,461.74,490.15,463.18,496.57Z"/><path class="cls-1" d="M414.55,674.23C511.41,760.05,761,948.93,770,954.13c12.31,7.15,113.7-57.57,163.67-88.71s112.71-70,108.86-79.71Z"/><path class="cls-1" d="M842.51,897.24l.29.27L888,935.19c4,3.36,13.92-.63,22.42-9.13,8.72-8.73,12.7-18.89,8.88-22.73l-.3-.26L873.8,865.38c-4-3.36-13.91.63-22.43,9.13C842.65,883.23,838.68,893.41,842.51,897.24Z"/><path class="cls-1" d="M887.68,934.92a2.44,2.44,0,0,0,.29.27c4,3.36,13.92-.62,22.43-9.13,8.72-8.73,12.7-18.9,8.87-22.73l-.29-.26c-4-3.36-13.92.62-22.43,9.13C887.82,920.93,883.85,931.1,887.68,934.92Z"/><path class="cls-1" d="M892.39,934.17a4.14,4.14,0,0,0,.38.35l16.29,12.26c3.32,2.49,11.1-.69,17.8-7.41,7-7,10.14-15.1,7.09-18.16l-.14-.13-14.93-13.4-.14-.13c-3.31-3-11.71.35-18.92,7.57S889.17,931,892.39,934.17Z"/><path class="cls-1" d="M908.7,946.46a2.91,2.91,0,0,0,.37.33c3.3,2.48,11.08-.71,17.79-7.42,7-7,10.14-15.1,7.09-18.16l-.14-.13c-3.16-2.83-11.15.35-18,7.22S905.64,943.41,908.7,946.46Z"/><path class="cls-1" d="M910.6,946.72l.27.24,39.1,31.3c2.86,2.28,9.76-.52,15.69-6.45,6.13-6.11,8.91-13.25,6.23-15.94l-.17-.15L934,923c-3-2.59-10.42.39-16.82,6.78S907.74,943.86,910.6,946.72Z"/><path class="cls-1" d="M949.72,978l.26.23c2.85,2.28,9.75-.51,15.68-6.45,6.12-6.12,8.9-13.25,6.22-15.94a1.07,1.07,0,0,0-.16-.14c-2.79-2.43-9.77.36-15.78,6.36S947,975.35,949.72,978Z"/><path class="cls-1" d="M952.61,978.45l.24.22,91.62,72c2,1.6,7-.39,11.18-4.62s6.34-9.45,4.43-11.36a.38.38,0,0,0-.11-.11l-87.51-76.27c-2.52-2.19-8.82.33-14.24,5.74S950.19,976,952.61,978.45Z"/><path class="cls-1" d="M1044.28,1050.51l.2.17c2,1.61,7-.39,11.17-4.61s6.35-9.45,4.44-11.37l-.11-.1c-2-1.74-7,.26-11.26,4.54S1042.37,1048.59,1044.28,1050.51Z"/><path class="cls-1" d="M945.39,831.24l.3.25L992.59,867c4.18,3.16,13.87-1.28,22-10.18,8.3-9.12,11.8-19.46,7.8-23.11l-.31-.25-46.89-35.54c-4.18-3.16-13.87,1.29-22,10.18C944.87,817.24,941.39,827.6,945.39,831.24Z"/><path class="cls-1" d="M992.28,866.77l.3.25c4.18,3.17,13.88-1.28,22-10.18,8.3-9.12,11.79-19.47,7.79-23.11a3.61,3.61,0,0,0-.3-.25c-4.18-3.17-13.88,1.28-22,10.18C991.77,852.78,988.28,863.13,992.28,866.77Z"/><path class="cls-1" d="M997,865.79a3,3,0,0,0,.39.33l16.86,11.49c3.42,2.33,11-1.21,17.42-8.23,6.64-7.3,9.43-15.56,6.24-18.48l-.15-.12-15.54-12.69L1022,838c-3.44-2.82-11.68.91-18.54,8.45S993.59,862.74,997,865.79Z"/><path class="cls-1" d="M1013.81,877.31a2.88,2.88,0,0,0,.39.3c3.41,2.33,11-1.22,17.42-8.23,6.64-7.3,9.43-15.57,6.23-18.48l-.14-.12c-3.29-2.69-11.13.87-17.67,8.05S1010.61,874.4,1013.81,877.31Z"/><path class="cls-1" d="M1015.72,877.47a2.83,2.83,0,0,0,.28.23l40.54,29.44c3,2.14,9.72-1,15.36-7.18,5.84-6.4,8.28-13.66,5.47-16.21l-.17-.15-39.17-31c-3.11-2.44-10.39.88-16.48,7.56S1012.73,874.75,1015.72,877.47Z"/><path class="cls-1" d="M1056.27,906.92a2.47,2.47,0,0,0,.27.21c3,2.15,9.71-1,15.36-7.17,5.83-6.4,8.27-13.66,5.47-16.21l-.16-.14c-2.91-2.3-9.75.82-15.47,7.1S1053.47,904.37,1056.27,906.92Z"/><path class="cls-1" d="M1059.18,907.2a2.52,2.52,0,0,0,.25.21l94.89,67.65c2.13,1.51,6.93-.72,11-5.14s5.9-9.74,3.9-11.56l-.12-.1-91-72.09c-2.62-2.07-8.79.74-14,6.4S1056.65,904.89,1059.18,907.2Z"/><path class="cls-1" d="M1154.12,974.89l.21.16c2.12,1.51,6.92-.71,10.94-5.13s5.9-9.74,3.9-11.56l-.11-.1c-2.08-1.64-7,.58-11,5.06S1152.12,973.06,1154.12,974.89Z"/><path class="cls-1" d="M1052.21,778.52s-42.37,32.58-113,73.86-159.14,88-159.14,88S470,734,414.55,674.23c-14.77-27.59-16.18-39.11-15.42-45.44s21.76-46.17,46-59.75,168-71.7,195.71-72.6S698.74,498,718.53,508C792.4,545.32,954.62,686.54,1052.21,778.52Z"/><path class="cls-2" d="M804.07,927.59c-71.62-42.48-369.42-269.65-404.94-298.8,0,0,19.09-18.29,31.3-28.43s44.41-24.44,64-10.86,90.71,66.86,117.05,69.55"/><path class="cls-2" d="M780.09,940.37c-8.15,4.35-14,11.23-10.14,13.76"/><path class="cls-2" d="M1010.49,739.83c-31.61,25.11-72.35,47.92-101.68,65.3s-120.32,68.23-166.38,81.1"/><path class="cls-2" d="M826.92,849.91c-33.25-18.17-396.49-249.55-396.49-249.55S474.3,558,566.09,528.67s115.15-25.14,115.15-25.14S873.87,646.87,967.38,770"/><path class="cls-2" d="M441.94,662.3c21.49-23.37,56.8-52.16,79.61-38.58S810.43,804,876.46,823.58"/><path class="cls-2" d="M754.66,529.6c-21.28.15-58.22.7-37.58,19.71s75,43.85,220,239.18"/><path class="cls-2" d="M718.53,508c-15-5.72-25.79-4.66-37.29-4.5s-22,8-18.06,12.92"/><path class="cls-2" d="M772.06,541.53c-55,7.78-238.14,62.63-314.62,132.7,0,21.73,4.1,33.18,5.86,42.39"/><path class="cls-2" d="M910.46,651.4c-21.74-1.07-97.54,12.51-138.4,33.15S629,768.7,612.57,791.49"/><path class="cls-2" d="M836.59,590.31c-29.89,1.36-95.06,14.47-132,29.91s-144,78.59-175.75,108.4"/><polygon class="cls-2" points="834.4 814.46 851.78 829.03 834.4 839.35 814.31 826.9 834.4 814.46"/><polyline class="cls-2" points="558.1 705.73 576.41 721.41 608.45 732.35 623.39 722.87"/><polyline class="cls-2" points="815.17 592.43 841.1 616.84 845.27 630.96 838.24 633.84"/><path class="cls-1" d="M824.05,688s-68.43,36-74,37.48c-6.69,1.81-71.22-22.51-128.68-60.4-27.56-18.18-60.06-45.16-66.53-51.85,0,0-47.05-54.48-58.36-67.16,3.18-14.68,8.8-51.43,16.94-54.69s51.78-15.75,71.88-13.58c28.06,11.59,119.85,50.15,151,83.83s74.5,94.87,80.67,106.15C820.46,674.23,829.29,685.33,824.05,688Z"/><path class="cls-2" d="M896.53,812.28C862.15,800.05,750,725.47,750,725.47c0-6.7-98.49-113.52-111.52-121.85S500.58,495.45,513.4,491.37"/><path class="cls-1" d="M825.18,687s84.25,80.07,97.52,110"/><polygon class="cls-1" points="728.6 577.37 736.64 579.9 790.23 653.59 790.23 659.46 738.99 685.64 732.11 683.83 661.86 611.59 663.13 604.71 728.6 577.37"/><polygon class="cls-2" points="638.33 631.5 632.62 633.49 628.82 651.82 630.72 656.58 672.54 678.58 676.62 674.23 638.33 631.5"/><polygon class="cls-2" points="623.39 612.86 625.83 620.22 619.59 642.73 614.75 642.73 564.73 603.08 563.78 597.92 568.8 573.48 572.2 571.71 623.39 612.86"/><polygon class="cls-2" points="555.9 556.64 557.4 562.88 552.78 586.78 549.52 588.28 510.55 543.6 509.87 538.17 514.35 518.48 517.61 517.78 555.9 556.64"/><path class="cls-1" d="M524.68,475.91l1.6,18.11c0,.11,0,.23.06.34,1,5.45,14.45,7.51,30,4.6s27.3-9.69,26.28-15.14a3.38,3.38,0,0,0-.08-.34L577.46,466c-1.41-4.88-13.79-6.67-28.07-4S524.23,470.85,524.68,475.91Z"/><ellipse class="cls-1" cx="551.13" cy="471.29" rx="26.87" ry="9.43" transform="translate(-77.37 109.57) rotate(-10.61)"/><polygon class="cls-1" points="539.05 472.15 540.23 480.34 568.65 470.25 566.21 462.92 539.05 472.15"/><polygon class="cls-1" points="539.05 472.15 532.08 468.99 533.34 476.95 540.23 480.34 539.05 472.15"/><polygon class="cls-1" points="532.08 468.99 555.16 460.39 566.21 462.92 539.05 472.15 532.08 468.99"/><path class="cls-1" d="M525.86,446a4,4,0,0,0,1.29,3.15l9.5,8.17a5.68,5.68,0,0,0,1.1.73l65.68,32.74a4.55,4.55,0,0,0,2,.51c3.14.08,5.75-3,5.84-6.86a7.1,7.1,0,0,0-3.5-6.62l-65.68-32.76a5.21,5.21,0,0,0-1.21-.4l-11.47-2.3a2.12,2.12,0,0,0-.44-.05C527.31,442.28,525.9,443.93,525.86,446Z"/><ellipse class="cls-1" cx="605.61" cy="484.32" rx="7" ry="5.69" transform="translate(107.54 1078.68) rotate(-88.69)"/><path class="cls-1" d="M509.25,452.13a4,4,0,0,0,1.3,3.16l9.49,8.16a5.53,5.53,0,0,0,1.1.73l65.69,32.75a4.79,4.79,0,0,0,2,.51c3.13.07,5.75-3,5.84-6.86a7.15,7.15,0,0,0-3.5-6.63L525.5,451.2a5.48,5.48,0,0,0-1.2-.41l-11.48-2.29a2,2,0,0,0-.43-.06C510.7,448.4,509.3,450.06,509.25,452.13Z"/><ellipse class="cls-1" cx="589.01" cy="490.45" rx="7" ry="5.69" transform="translate(85.19 1068.06) rotate(-88.69)"/></svg>
