<svg id="Layer_2" data-name="Layer 2" xmlns="http://www.w3.org/2000/svg" viewBox="0 0 1200 1500"><defs><style>.cls-1{fill:#0a0a0a;}.cls-1,.cls-2{stroke:#fefefe;stroke-linecap:round;stroke-linejoin:round;stroke-width:2px;}.cls-2{fill:none;}</style></defs><title>Artboard 1 copy</title><g id="delta-7"><path class="cls-1" d="M972.34,810.81l8.71,2.48,187.66,223.59,1.29,14.64L579,860s-33.35-23-40.09-25.82-16.07-7.2-12.54,4.43C512.43,838.78,41.9,683.73,41.9,683.73L30,600.43l10-8.22,121.78,73.4,66.49-53.88-102.18-95,27.6-25.14,11.23-80.46L290.25,363l78.19,23.61,32.33-6.44L528.61,451.7l63.84-18.93-97.57-70.84,10-2.8,98.4,23.28,215,247.6L829,647.7s-7.23-2.83-12-.79c1.74,4.34,34,24.12,34,24.12l121.4,139.78"/><polyline class="cls-2" points="820.19 938.18 819 928.46 762.06 794.7 582.02 669.84 601.62 649.18 625.53 642.61 811.11 764.97 981.05 813.29"/><polyline class="cls-2" points="822.66 768.25 620.33 634.43 560.91 621.35 569.89 667.74 768.15 808.99"/><polyline class="cls-2" points="526.29 597.68 1168.71 1036.88 819 928.46"/><polyline class="cls-2" points="925.51 961.48 861.24 826.67 1035.56 878.23"/><line class="cls-2" x1="906.12" y1="920.8" x2="803.03" y2="890.92"/><line class="cls-2" x1="883.35" y1="873.05" x2="784.29" y2="846.91"/><line class="cls-2" x1="984.61" y1="863.16" x2="930.33" y2="798.87"/><line class="cls-2" x1="922.39" y1="844.76" x2="875.59" y2="783.3"/><polyline class="cls-2" points="817.46 924.83 582.63 853.96 435.98 728.49"/><line class="cls-2" x1="418.19" y1="741.25" x2="526.32" y2="838.62"/><path class="cls-2" d="M434.48,737.58a11.78,11.78,0,0,1-16.28,3.66c-.22-.13-.44-.28-.65-.43a10.47,10.47,0,0,1-.89-.73,11.8,11.8,0,1,1,17.82-2.5Z"/><line class="cls-2" x1="41.9" y1="683.73" x2="107.89" y2="633.12"/><line class="cls-2" x1="49.23" y1="597.76" x2="62.59" y2="667.86"/><polyline class="cls-2" points="153.71 491.55 506.63 615.31 526.29 597.68 549.87 591.32 368.44 386.63"/><polyline class="cls-2" points="701.95 899.87 698.61 888.97 699.03 874.98 279.68 535.72"/><polyline class="cls-2" points="913.16 742.67 890.43 735.22 438.85 466.07"/><line class="cls-2" x1="850.94" y1="671.03" x2="687.96" y2="579.94"/><line class="cls-2" x1="818.34" y1="630.01" x2="703.61" y2="569.76"/><path class="cls-2" d="M702.24,576.22a10.44,10.44,0,0,1-13.91,3.93l-.37-.21a10.42,10.42,0,0,1-.47-17.7,10.43,10.43,0,0,1,14.75,14Z"/><line class="cls-2" x1="793.33" y1="868.14" x2="628.46" y2="817.88"/><line class="cls-2" x1="772.26" y1="818.66" x2="546.73" y2="751.77"/><line class="cls-2" x1="651.79" y1="726.1" x2="448.46" y2="672.27"/><line class="cls-2" x1="502.98" y1="686.7" x2="607.66" y2="769.84"/><line class="cls-2" x1="483.06" y1="607.05" x2="294.46" y2="766.28"/><polyline class="cls-2" points="445.7 638.59 342.75 557.84 345.73 517.42 304.92 494.54"/><polyline class="cls-2" points="453.38 632.11 567.83 657.08 548.41 670.24 437.14 645.81"/><line class="cls-2" x1="707.75" y1="692.25" x2="621.36" y2="574.85"/><line class="cls-2" x1="835.54" y1="771.91" x2="727.82" y2="638.3"/><line class="cls-2" x1="899.8" y1="790.19" x2="818.51" y2="692.36"/><line class="cls-2" x1="535.87" y1="575.52" x2="719.42" y2="516.1"/><polyline class="cls-2" points="574.82 562.91 465 495.57 432.19 478.98 395 449.55"/><polyline class="cls-2" points="567.14 565.4 607.62 631.64 620.69 624.84 580.39 561.11"/><line class="cls-2" x1="643.81" y1="605.36" x2="752.93" y2="669.44"/><polygon class="cls-1" points="129.15 519.52 44.48 594.89 161.8 665.61 228.28 611.73 129.15 519.52"/><polygon class="cls-1" points="494.88 361.93 494.02 366.26 586.7 434.48 592.45 432.77 494.88 361.93"/><polygon class="cls-1" points="494.02 366.26 405.2 382.67 528.61 451.7 586.7 434.48 494.02 366.26"/><line class="cls-2" x1="130.31" y1="712.76" x2="316.01" y2="565.12"/><line class="cls-2" x1="93.88" y1="643.87" x2="140.96" y2="704.3"/><polyline class="cls-2" points="185.57 572 193.59 566.66 267.99 603.3 374.22 698.94"/><line class="cls-2" x1="645.67" y1="431.19" x2="470.46" y2="484.91"/><line class="cls-2" x1="603.3" y1="382.41" x2="546.37" y2="399.31"/><line class="cls-2" x1="560.9" y1="394.99" x2="636.82" y2="433.91"/><polyline class="cls-2" points="477 422.83 469.11 425.03 519.8 469.79 648.96 538.91"/><line class="cls-2" x1="152.02" y1="695.5" x2="485.71" y2="802.05"/><line class="cls-2" x1="628.35" y1="436.5" x2="775.55" y2="607.53"/><path class="cls-2" d="M687.49,562.24a10.42,10.42,0,0,0,.47,17.7l.37.21-23.72-12.68-.36-.21a10.43,10.43,0,0,1,4.09-19.36,10.33,10.33,0,0,1,6.09,1.16l23.72,12.68a10.44,10.44,0,0,0-10.66.5Z"/><path class="cls-2" d="M432.35,722.45a11.8,11.8,0,1,0-15.69,17.63L396.75,722.4l-.43-.38A11.8,11.8,0,0,1,412,704.39Z"/><line class="cls-2" x1="193.59" y1="566.66" x2="131.06" y2="512.18"/><line class="cls-2" x1="469.11" y1="425.03" x2="392.33" y2="381.87"/><polygon class="cls-1" points="480.17 621.59 493.01 610.54 496.81 598.93 480.17 621.59"/><polygon class="cls-1" points="434.26 604.44 447.53 583.54 496.81 598.93 480.17 621.59 434.26 604.44"/><path class="cls-2" d="M506.63,615.31s3.3-23,17.33-28.37,25.91,4.38,25.91,4.38"/><polygon class="cls-1" points="511.44 552.05 533.63 576.1 552.16 579.78 527.61 555.26 511.44 552.05"/><polygon class="cls-1" points="533.63 576.1 540.57 580.83 552.16 579.78 533.63 576.1"/><path class="cls-2" d="M496.81,598.93,282.52,447.59S296.34,425.94,312,420s33.73-4.6,33.73-4.6L533.63,576.1"/><path class="cls-2" d="M314.93,470.48l21.7-9.19s3.67-6.63,13.8-11,16.49-4.18,16.49-4.18l7.18-6.47"/><polyline class="cls-2" points="336.63 461.29 430.08 528.73 431.94 541.88 512.15 598.59"/><polyline class="cls-2" points="536.17 585.57 466.46 524.13 450.5 518.73 366.92 446.11"/><path class="cls-2" d="M408.88,513.43a28.84,28.84,0,0,1,10.68-8.94c6.67-3,10.57-3.46,10.57-3.46"/><line class="cls-2" x1="413.04" y1="539.77" x2="411.73" y2="582.03"/><line class="cls-2" x1="466.7" y1="518.85" x2="493.84" y2="528.11"/><line class="cls-2" x1="366.24" y1="506.72" x2="363.62" y2="565.16"/><line class="cls-2" x1="424.39" y1="482.65" x2="471.22" y2="502.6"/><polyline class="cls-2" points="319.07 473.4 300.34 501.37 162.93 425.51"/><polyline class="cls-2" points="378.77 443.63 398.38 450.22 312.63 369.78"/><line class="cls-2" x1="293.01" y1="455" x2="247.18" y2="524.33"/><line class="cls-2" x1="357.03" y1="425.04" x2="417.22" y2="441.67"/><line class="cls-2" x1="191.36" y1="441.21" x2="188.57" y2="503.78"/><polygon class="cls-1" points="219.93 331 147.94 308.48 169.95 373.15 219.93 331"/><line class="cls-2" x1="331.42" y1="387.41" x2="383.74" y2="403.9"/><path class="cls-1" d="M160.77,441s-7.36-7.45-8.63-13.92-8.5-76.29,56-93.83,119.5,59.57,119.5,59.57l-4,7.15s-13.86-2.75-26.27,1.82l-3.68-4-9,3.4,2.12,3.9s-14,9.49-20.54,22.67L227,441.89l-62-30.8Z"/><line class="cls-2" x1="172.62" y1="414.9" x2="164.61" y2="495.37"/><line class="cls-2" x1="307.46" y1="369.87" x2="371.99" y2="390.64"/><polyline class="cls-2" points="351.43 420.25 391.12 426.71 322.97 374.87 372.04 420.34 345.75 415.39 337.81 405.33 332.7 415.61"/><polyline class="cls-2" points="287.17 451.46 243.19 501.15 169.95 441.69 244.04 484.49 282.52 447.59 271.43 439.27 293.02 434.22"/><path class="cls-2" d="M301.11,460.72s8.85-25.82,26.75-31.6,34.73.67,34.73.67"/><path class="cls-2" d="M227,441.89,268.3,430.3s15.56-19,27.21-23.31,30.32-5,30.32-5l1.83-9.2"/><line class="cls-2" x1="300.39" y1="405.48" x2="317.77" y2="418.14"/><line class="cls-2" x1="287.89" y1="411.31" x2="304.89" y2="423.77"/><path class="cls-2" d="M185.93,421.51s-33.89-37.86-11.12-70"/><path class="cls-2" d="M175,416.1s-19.85-32.89-10-52.74"/></g></svg>
