<svg id="Layer_2" data-name="Layer 2" xmlns="http://www.w3.org/2000/svg" viewBox="0 0 1200 1500"><defs><style>.cls-1{fill:#0a0a0a;}.cls-1,.cls-2{stroke:#fefefe;stroke-linecap:round;stroke-linejoin:round;stroke-width:2px;}.cls-2{fill:none;}</style></defs><title>Artboard 1</title><g id="eta-2"><path class="cls-1" d="M890.27,574.31c-1.26,2.83-3.86,4.42-5.81,3.55a.8.8,0,0,1-.16-.08l0,0a2.87,2.87,0,0,1-1.08-1.08,6.15,6.15,0,0,1,.05-5.51c1.26-2.84,3.87-4.44,5.81-3.56.08,0,.17.07.25.12C891,568.73,891.48,571.6,890.27,574.31Z"/><path class="cls-1" d="M889.28,567.73c-.08-.05-.17-.08-.25-.12-1.94-.88-4.55.72-5.81,3.56a6.15,6.15,0,0,0-.05,5.51,2.87,2.87,0,0,0,1.08,1.08l-37.7-20.91-3.58-2-8.54-4.72,6.91-9.86,8.28,4.73,3.5,2Z"/><polygon class="cls-1" points="1089 823.39 1168.48 799.18 1170 790.36 981.92 628.47 920.48 599.64 890.39 603.57 825.77 567.83 861.66 537.27 867.39 406.72 618.52 302.89 320.39 367.4 576.29 613.07 666.2 677.39 674.43 667.97 699.9 680.81 966.26 796.13 994.47 783.25 1089 823.39"/><path class="cls-1" d="M1112.37,838.32a4.48,4.48,0,0,1-4.5,2.58,3,3,0,0,1-.91-.31c-1.79-1-2.3-3.53-1.11-5.75s3.59-3.24,5.39-2.28a2.89,2.89,0,0,1,.5.33C1113.13,834,1113.43,836.31,1112.37,838.32Z"/><path class="cls-1" d="M1111.74,832.89a2.89,2.89,0,0,0-.5-.33c-1.8-1-4.21.06-5.39,2.28s-.68,4.79,1.11,5.75a3,3,0,0,0,.91.31l-21.4-3.84-.12,0a7,7,0,0,1-1.65-.5c-.11-.07-.24-.12-.36-.19-4-2.13-5.12-7.87-2.5-12.8s7.69-7.07,11.66-5.26c.12.06.25.12.36.19a6.86,6.86,0,0,1,1.11.73Z"/><path class="cls-1" d="M1081.84,823.55c-2.62,4.93-1.51,10.67,2.5,12.8.12.07.25.12.36.19L968.48,783.25l-1.43-.66c-3.75-2.26-4.74-7.82-2.18-12.61,2.39-4.51,7.08-6.79,10.93-5.54a5.66,5.66,0,0,1,.72.28l117,53.57C1089.53,816.48,1084.39,818.75,1081.84,823.55Z"/><path class="cls-1" d="M968.48,783.25a8.2,8.2,0,0,1-1.11-.47l-.32-.19Z"/><path class="cls-1" d="M964.87,770c-2.56,4.79-1.57,10.35,2.18,12.61l-22.57-13.67.67.18a4.52,4.52,0,0,1-1-.41,1.27,1.27,0,0,1-.23-.12c-2.59-1.57-3.26-5.41-1.5-8.72,1.65-3.11,4.9-4.7,7.56-3.82a4.24,4.24,0,0,1,1.22.6l-.55-.38,25.18,8.19C972,763.19,967.26,765.47,964.87,770Z"/><path class="cls-1" d="M950.62,756.25,950,756c-2.66-.88-5.91.71-7.56,3.82-1.76,3.31-1.09,7.15,1.5,8.72l.59.35-16.41-4.24a6.82,6.82,0,0,1-1.12-.4l-.37-.18c-4-2.14-5.13-7.87-2.49-12.81,2.54-4.78,7.68-7.07,11.65-5.25l.37.18c.23.13.46.26.68.41Z"/><path class="cls-1" d="M924.09,751.29c-2.64,4.94-1.52,10.67,2.49,12.81l.37.18L802.86,707.44l-.36-.17a7.91,7.91,0,0,1-3.92-7.06,11.83,11.83,0,0,1,1.41-5.76,12,12,0,0,1,3.21-3.83c2.59-2,5.78-2.63,8.45-1.41L935.74,746C931.77,744.22,926.63,746.51,924.09,751.29Z"/><line class="cls-1" x1="770.85" y1="687.51" x2="770.84" y2="687.51"/><path class="cls-1" d="M800,694.45a11.83,11.83,0,0,0-1.41,5.76l-27.73-12.7.33.08a4,4,0,0,1-.66-.23l-.19-.1c-2.11-1.12-2.71-4.14-1.32-6.73s4-3.73,6.14-2.77l.09,0,0,0,.05,0,.22.12-.1-.08,27.75,12.72A12,12,0,0,0,800,694.45Z"/><path class="cls-1" d="M775.45,677.9l-.17-.07,0,0-.09,0c-2.09-1-4.79.24-6.14,2.77s-.79,5.61,1.32,6.73l.19.1.32.15-23.41-5.59a7.29,7.29,0,0,1-1.24-.43l-.36-.18c-4-2.14-5.14-7.87-2.51-12.8s7.69-7.08,11.65-5.26c.13,0,.25.12.37.18a8.78,8.78,0,0,1,.79.49Z"/><line class="cls-1" x1="770.85" y1="687.51" x2="770.84" y2="687.51"/><path class="cls-1" d="M743.32,668.51c-2.63,4.93-1.51,10.66,2.51,12.8l.36.18-63.36-29-.36-.18a7,7,0,0,1-3-3.15,10.74,10.74,0,0,1,.5-9.67,11,11,0,0,1,6.93-5.64,7.18,7.18,0,0,1,4.73.4l63.34,29C751,661.43,745.87,663.71,743.32,668.51Z"/><path class="cls-1" d="M680,639.48a10.74,10.74,0,0,0-.5,9.67L596.3,611.07l-.32-.16c-3.37-1.79-4.31-6.61-2.1-10.77s6.47-5.94,9.8-4.41l83.22,38.11A11,11,0,0,0,680,639.48Z"/><polyline class="cls-2" points="646.33 314.5 575.15 329.71 530.06 456.89 624.78 501.73 751.16 469.17 761.39 466.53 846.45 444.62 853.95 401.11"/><polyline class="cls-2" points="837.32 446.98 841.78 421.11 795.91 402.95 705.48 470.21 711.87 479.29"/><line class="cls-2" x1="551.32" y1="466.95" x2="722.09" y2="346.1"/><line class="cls-2" x1="609.36" y1="494.43" x2="778.5" y2="369.64"/><polyline class="cls-2" points="840.21 430.19 795.92 413.2 709.86 476.43"/><line class="cls-2" x1="795.92" y1="413.2" x2="795.91" y2="402.95"/><line class="cls-2" x1="713.34" y1="352.29" x2="769.3" y2="376.42"/><line class="cls-2" x1="673.43" y1="447.15" x2="697.57" y2="482.97"/><polyline class="cls-2" points="643.85 496.81 533.89 446.09 691.51 333.34"/><line class="cls-2" x1="555.81" y1="463.78" x2="613.27" y2="491.54"/><polygon class="cls-1" points="660.19 310.08 858.29 395.06 878.59 373.08 727.32 222.48 630.47 181.25 600.34 260.5 660.19 310.08"/><polyline class="cls-2" points="628.34 186.86 723.87 228.02 873.96 378.1"/><polygon class="cls-2" points="633.6 202.51 614.98 264.37 657.91 302.03 717.73 326.81 633.6 202.51"/><polygon class="cls-2" points="640.05 198.48 719.34 231.82 767.42 340.89 722.22 322.2 640.05 198.48"/><polygon class="cls-2" points="734.75 247.79 779.46 353.56 850.32 383.15 859 371.81 734.75 247.79"/><polyline class="cls-2" points="320.39 367.4 344.24 368.62 456.7 424.59 494.59 423.52 610.87 530.79 708.9 621.77 1091.2 803.99 1170 790.36"/><polyline class="cls-2" points="1016.47 768.37 1015.43 734.02 881.3 672.71 826.13 677.65"/><polyline class="cls-2" points="999.46 643.56 847.44 659.81 657.47 574.04"/><polyline class="cls-2" points="890.39 603.57 908.5 612.61 961.3 647.64"/><line class="cls-2" x1="908.5" y1="612.61" x2="777.68" y2="628.32"/><polyline class="cls-2" points="597.69 488.9 688.23 587.93 768.82 560.11"/><line class="cls-2" x1="628.47" y1="522.57" x2="864.77" y2="466.49"/><polyline class="cls-2" points="783.41 485.8 812.84 529.51 768.82 560.11 874.28 616.72"/><line class="cls-2" x1="825.77" y1="567.83" x2="786.62" y2="547.74"/><polyline class="cls-2" points="792.24 543.83 727.35 511.26 724.11 499.87"/><line class="cls-2" x1="804.47" y1="535.33" x2="736.11" y2="497.02"/><line class="cls-1" x1="770.29" y1="516.18" x2="799.54" y2="509.75"/><ellipse class="cls-1" cx="790.02" cy="559.74" rx="4.68" ry="7.62" transform="translate(20.6 1147.47) rotate(-72.69)"/><path class="cls-1" d="M761.39,466.53l-10.23,2.64-18.43-8.3-2.59-1.16a3.3,3.3,0,0,1,1.72-6.29,3.45,3.45,0,0,1,1,.26l3.38,1.53Z"/><polygon class="cls-1" points="867.15 412.12 897.85 480.04 862.44 519.49 867.15 412.12"/><polygon class="cls-1" points="838.21 386.45 838.63 394.72 697.1 335.68 700.33 327.3 838.21 386.45"/><line class="cls-2" x1="566.64" y1="353.71" x2="382.42" y2="387.62"/><line class="cls-2" x1="487.39" y1="368.3" x2="521.78" y2="448.6"/><line class="cls-2" x1="444.64" y1="340.51" x2="507.14" y2="364.66"/><line class="cls-2" x1="488.18" y1="331.09" x2="553.67" y2="356.1"/><polyline class="cls-2" points="578.97 565.81 708.9 621.77 551.75 527.67"/><line class="cls-2" x1="494.59" y1="423.52" x2="499.21" y2="477.2"/><line class="cls-2" x1="599.87" y1="520.64" x2="596.33" y2="554.37"/><line class="cls-2" x1="653.23" y1="668.11" x2="672.21" y2="645.83"/><line class="cls-2" x1="699.91" y1="680.81" x2="710.71" y2="665.25"/><polyline class="cls-2" points="582.97 574.3 1089.32 809.61 1089.53 816.48"/><polyline class="cls-2" points="1016.28 762.15 1089.82 795.83 1091.2 803.99"/><polyline class="cls-2" points="1016.02 753.46 1093.62 789.95 1158.34 780.33"/><line class="cls-2" x1="1015.43" y1="734.02" x2="1115.62" y2="743.55"/><polyline class="cls-2" points="1003.14 646.74 997.24 653.84 1021.96 674.5 1036 675.02"/><path class="cls-1" d="M78.59,512.76s-9.54,9.7-11.37,20.33c-3.1,18,1.93,24.65,1.93,24.65L116,575.68l8-4.8Z"/><path class="cls-1" d="M107.78,368.65c-5.16,4-32.33,35.19-38.82,53.77S56.9,463.84,61.9,480.84,107.16,559.5,125,574.89s93.26,87.48,146.43,113.88,238.48,11.67,256.29,3.42c48.11-22.3,63.4-87.26,56.92-112.75-5.51-21.65-38.8-60.58-58.82-79.35S414.51,407,375,389s-125.49-50.46-196.44-45.52C138.67,346.22,119.14,359.83,107.78,368.65Z"/><ellipse class="cls-2" cx="538.75" cy="626.16" rx="67.32" ry="35.43" transform="translate(-259.66 837.98) rotate(-64.15)"/><polygon class="cls-2" points="561.11 603.2 548.41 599.08 533.84 613.36 525.93 637.69 529.31 657.81 542.01 661.94 556.58 647.65 564.49 623.33 561.11 603.2"/><line class="cls-2" x1="548.41" y1="599.07" x2="547.65" y2="566.2"/><line class="cls-2" x1="533.84" y1="613.36" x2="513.68" y2="598.41"/><line class="cls-2" x1="525.93" y1="637.69" x2="495.55" y2="651.3"/><line class="cls-2" x1="529.31" y1="657.81" x2="506.79" y2="685.2"/><line class="cls-2" x1="542.01" y1="661.94" x2="536.62" y2="682.58"/><line class="cls-2" x1="556.58" y1="647.65" x2="563.97" y2="653.67"/><line class="cls-2" x1="564.49" y1="623.33" x2="579.84" y2="615.55"/><line class="cls-2" x1="561.11" y1="603.2" x2="577.62" y2="575.2"/><path class="cls-2" d="M367.42,385.59c-28.59-8.66-51.65-17.56-72.53-20.06S228,350.73,228,350.73s-17,.35-37.46,20.86-31.8,48.07-31.8,48.07S214.56,435.29,217.6,462s9.28,92,22.09,100.08,91.55,49,98.15,64.62,19.92,23.85,33.47,28.6,75.89,5.88,84.17,5.38,17-6.94,23.68-26.41,22.06-56.7,45.23-77.4c22.67-20.26,41.3-11.63,42.94-9.37"/><path class="cls-2" d="M362,383.91c-18.92-6-58.18-13.67-69.06-14.67s-66.3-6.78-66.3-6.78S198.72,369,186.19,386a166.63,166.63,0,0,0-19.61,36.15"/><line class="cls-2" x1="228.04" y1="350.73" x2="226.6" y2="362.46"/><path class="cls-2" d="M251.4,365s-18.93.48-37.84,20.78-22.75,47-22.75,47"/><path class="cls-2" d="M232.38,385.91c-12.14,11.8-20.95,28.47-14.33,35.8s16.06,4.74,21.23-7.31,26.84-30,34.37-32.91,5.29-7.81-7.33-8C258,373.34,245.9,372.77,232.38,385.91Z"/><path class="cls-2" d="M274.43,390.07c-18.28,15.51-33.84,34.68-32.06,52.15s8.23,27.3,26.64,36.39S416.72,557,436.16,569.88s43.16,17.29,48.58,10.35,33.62-38.38,39.07-42.22,6.38-15.79-3.37-26.19S398.17,400.15,356.71,389.34,291.24,375.8,274.43,390.07Z"/><path class="cls-2" d="M242,493.36c0,7.78-2.13,46.62,5.29,57.46s83.18,49.51,88.21,56.29,14.93,27.61,21.48,30.43,92.18,13.64,97,10,16.9-29.45,11.12-40-32.45-25.57-49.71-36.42-152.86-86-159.33-87.68S242,484.93,242,493.36Z"/><path class="cls-2" d="M556.51,533.43c-15.68-7.68-27.47-17.6-38.57-29.92s-77.83-70.81-92.14-79.19S375,389,375,389"/><path class="cls-2" d="M229,345.31s-33.07,5.15-48.54,22S146.15,403,133.83,459.24l22.22,3.83s-6.8,39,.6,66.18l-29.84-7s-3.34,39.14,4.28,58"/><path class="cls-2" d="M208.73,350.6s-24.81-6.11-39.54-4c0,0-30.73,3.9-48,20.53a174.26,174.26,0,0,0-27,33.24s36.54-2.25,58.36,4.16"/><path class="cls-2" d="M177.49,346.16s-26.57,7.84-40.9,26.56-18.69,27.37-18.69,27.37"/><path class="cls-2" d="M143.71,424.68s33.2,8.78,48.35,22.65,17.16,31.07,18.33,43.3c1.94,20.32,4.42,67.91,20.34,80C244.16,580.9,318,619.11,318,619.11l5.44,19.46"/><path class="cls-1" d="M1030.82,929.72a4.49,4.49,0,0,1-4.53,2.54,3,3,0,0,1-.9-.31c-1.79-1-2.27-3.55-1.07-5.76s3.63-3.21,5.42-2.23a3.23,3.23,0,0,1,.49.33C1031.61,925.44,1031.89,927.73,1030.82,929.72Z"/><path class="cls-1" d="M1030.23,924.29a3.23,3.23,0,0,0-.49-.33c-1.79-1-4.22,0-5.42,2.23s-.72,4.78,1.07,5.76a3,3,0,0,0,.9.31l-21.36-4-.12,0a7,7,0,0,1-1.65-.52l-.36-.18c-4-2.18-5-7.92-2.38-12.83s7.76-7,11.71-5.15l.36.19a6.23,6.23,0,0,1,1.1.74Z"/><path class="cls-1" d="M1000.42,914.68c-2.67,4.91-1.61,10.65,2.38,12.83l.36.18L887.43,873.35l-1.42-.68c-3.73-2.29-4.67-7.86-2.07-12.63,2.44-4.49,7.15-6.73,11-5.43a4.37,4.37,0,0,1,.71.28l116.49,54.64C1008.18,907.68,1003,909.91,1000.42,914.68Z"/><path class="cls-1" d="M887.43,873.35a7.63,7.63,0,0,1-1.1-.48l-.32-.2Z"/><path class="cls-1" d="M883.94,860c-2.6,4.77-1.66,10.34,2.07,12.63L863.57,858.8l.67.18a4.18,4.18,0,0,1-1-.41l-.23-.13c-2.57-1.59-3.21-5.44-1.42-8.73,1.68-3.1,4.94-4.65,7.59-3.76a3.89,3.89,0,0,1,.76.33,4.43,4.43,0,0,1,.46.29l-.55-.39,25.11,8.43C891.09,853.31,886.38,855.55,883.94,860Z"/><path class="cls-1" d="M869.82,846.18l-.67-.23c-2.65-.89-5.91.66-7.59,3.76-1.79,3.29-1.15,7.14,1.42,8.73l.59.36-16.37-4.4a6.5,6.5,0,0,1-1.12-.4l-.36-.19c-4-2.17-5.07-7.91-2.38-12.82s7.74-7,11.7-5.16l.36.19a7.74,7.74,0,0,1,.68.42Z"/><path class="cls-1" d="M843.34,841c-2.69,4.91-1.62,10.65,2.38,12.82l.36.19L722.52,796c-.13-.06-.25-.11-.37-.18a7.88,7.88,0,0,1-3.85-7.09,11.67,11.67,0,0,1,1.46-5.74,12,12,0,0,1,3.25-3.81c2.6-2,5.8-2.58,8.46-1.33l123.57,58C851.08,834,845.92,836.22,843.34,841Z"/><line class="cls-1" x1="690.69" y1="775.81" x2="690.68" y2="775.81"/><path class="cls-1" d="M719.76,783a11.67,11.67,0,0,0-1.46,5.74l-27.61-13,.32.08a3.51,3.51,0,0,1-.66-.24l-.18-.1c-2.1-1.14-2.67-4.16-1.26-6.74s4.08-3.69,6.16-2.71l.1,0,0,0,0,0,.22.11-.1-.07,27.63,13A12,12,0,0,0,719.76,783Z"/><path class="cls-1" d="M695.38,766.24l-.17-.07,0,0-.1,0c-2.08-1-4.79.2-6.16,2.71s-.84,5.6,1.26,6.74l.18.1.33.16L667.32,770a6.56,6.56,0,0,1-1.24-.44l-.36-.18c-4-2.18-5.06-7.92-2.39-12.83s7.76-7,11.7-5.15a3,3,0,0,1,.36.19,9,9,0,0,1,.8.49Z"/><line class="cls-1" x1="690.69" y1="775.81" x2="690.68" y2="775.81"/><path class="cls-1" d="M663.33,756.55c-2.67,4.91-1.6,10.65,2.39,12.83l.36.18L603,740l-.36-.18a7.06,7.06,0,0,1-3-3.17,10.77,10.77,0,0,1,.59-9.67,10.93,10.93,0,0,1,7-5.58,7.15,7.15,0,0,1,4.72.44L675,751.4C671.09,749.55,665.93,751.78,663.33,756.55Z"/><path class="cls-1" d="M600.25,727a10.77,10.77,0,0,0-.59,9.67l-82.82-38.85-.31-.15c-3.36-1.83-4.26-6.66-2-10.79s6.51-5.89,9.84-4.33l82.86,38.87A10.93,10.93,0,0,0,600.25,727Z"/><path class="cls-1" d="M994.22,936.36l-7.41-16L598.59,735.05,297.9,629.6l-40.51,8.92L131.62,536.41,127.27,569,76.82,599.13l-32,300.5,244.87,123.14L503.91,919.12,541.85,865l71,36.95s.47,12.11,1.32,22.82c.53,6.5,1.19,12.49,2,14.93,2.07,6.48,49.62,23,62.89,25.52s305.74,39,305.74,39ZM304.73,993.6l-8.67-1.5,6.66-7.28-16.45-40.58,61.91-88.36h14.44L346.23,972.55Z"/><polygon class="cls-1" points="543.82 892.5 530.86 911.87 524.3 921.7 516.27 933.7 311.84 1028.25 289.68 1022.77 503.91 919.12 508.31 912.84 515.25 902.93 541.85 864.98 543.82 892.5"/><polyline class="cls-2" points="127.26 568.95 166.59 625.05 280.26 690.83 598.59 735.05"/><polyline class="cls-2" points="158.42 558.17 166.59 625.05 141.31 722.59"/><line class="cls-2" x1="297.9" y1="629.6" x2="280.26" y2="690.83"/><polygon class="cls-2" points="295.79 636.93 467.85 695.76 486.26 712.18 282.63 682.59 165.53 616.44 132.08 569.78 134.56 544.7 159.35 565.79 256.11 646.95 295.79 636.93"/><polyline class="cls-2" points="155.01 730.28 287.54 709.33 382.92 754.41 350.75 976.72 278.15 1011.69"/><polygon class="cls-2" points="362.62 855.88 348.18 855.88 286.27 944.24 282.94 936.04 344.34 847.83 363.89 846.89 362.62 855.88"/><polyline class="cls-2" points="286.27 944.24 348.18 855.88 362.62 855.88 362.63 855.88"/><line class="cls-2" x1="287.54" y1="709.33" x2="206.84" y2="755.04"/><line class="cls-2" x1="307.45" y1="718.74" x2="235.74" y2="819.64"/><line class="cls-2" x1="367.83" y1="747.27" x2="265.59" y2="893.25"/><polyline class="cls-2" points="378.68 783.68 262.78 723.35 219.38 779.3"/><line class="cls-2" x1="303.06" y1="724.91" x2="362.6" y2="754.73"/><line class="cls-2" x1="297.05" y1="733.37" x2="356.32" y2="763.7"/><path class="cls-1" d="M614.14,924.75,543.82,892.5l-2-27.52,71,36.95S613.29,914,614.14,924.75Z"/><polygon class="cls-1" points="114.96 709.54 210.22 756.71 302.73 984.82 267.2 1023.66 61.42 919.77 30 847.86 114.96 709.54"/><polygon class="cls-1" points="111.44 736.61 39.96 848.04 67.22 917.32 79.27 923.24 100.89 909.28 209.82 961.88 204.2 783.32 111.44 736.61"/><line class="cls-2" x1="114.96" y1="709.54" x2="111.45" y2="736.61"/><line class="cls-2" x1="210.22" y1="756.71" x2="204.2" y2="783.32"/><line class="cls-2" x1="117.44" y1="739.63" x2="144.42" y2="930.3"/><line class="cls-2" x1="131.44" y1="924.03" x2="105.86" y2="745.31"/><polyline class="cls-2" points="910.76 884.05 857.4 909.04 726.29 844.79 722.31 794.1"/><line class="cls-2" x1="857.4" y1="909.04" x2="869.43" y2="980.56"/><polyline class="cls-2" points="732.35 964.46 742.13 948.81 787.2 952.83 799.19 972.31"/><polyline class="cls-2" points="892.21 892.74 965.71 929.21 962.86 991.52"/><polyline class="cls-2" points="903.17 887.6 974.75 922.52 986.81 920.35 979.39 993.47 708.4 961.65 701.5 823.21 485.04 719.28"/><line class="cls-2" x1="979.39" y1="993.47" x2="984.73" y2="1004.2"/><line class="cls-2" x1="638.72" y1="915.42" x2="706.45" y2="922.49"/><polyline class="cls-2" points="638.72 915.42 630.52 789.13 525.94 798.18"/><polyline class="cls-2" points="636.3 878.17 524.47 820.88 529.67 740.71 356.39 741.87"/><polyline class="cls-2" points="524.47 820.88 478.16 884.92 403.84 888.5"/><line class="cls-2" x1="421.46" y1="741.43" x2="393.78" y2="972.41"/><line class="cls-2" x1="638.72" y1="915.42" x2="506.06" y2="846.34"/><ellipse class="cls-2" cx="527.93" cy="840.54" rx="9.4" ry="8.45" transform="translate(-462.84 900.41) rotate(-61.33)"/><polygon class="cls-1" points="970.25 912.45 968.21 904.71 478.39 672.54 408.44 668.36 598.59 735.05 970.25 912.45"/><path class="cls-1" d="M356.47,899.67,327.93,884.8l-3.3-1.72a3.39,3.39,0,0,0-1-.32,3.3,3.3,0,0,0-2.09,6.18l2.52,1.31,31.4,16.36Z"/><polygon class="cls-1" points="190.41 584.14 174.79 543.85 158.42 558.17 190.41 584.14"/><polygon class="cls-1" points="174.79 543.85 131.62 536.41 158.42 558.17 174.79 543.85"/><line class="cls-2" x1="92.34" y1="746.37" x2="62.39" y2="734.58"/><line class="cls-2" x1="70.11" y1="782.56" x2="57.77" y2="777.97"/><polyline class="cls-1" points="240.58 1022.65 257.42 1029.47 275.53 1038.69 332.88 1085.71 314.9 1133.44 295.4 1125.77 220.32 1085.82 63.81 951.36 71.76 936.78 91.91 946.36"/><polyline class="cls-2" points="412.23 818.44 431.34 815.85 500.84 853.56"/><line class="cls-2" x1="410.7" y1="831.22" x2="488.35" y2="870.84"/><line class="cls-2" x1="451.14" y1="851.85" x2="446.57" y2="886.44"/><polyline class="cls-2" points="392.65 741.63 379.66 835.28 386.42 836.45 403.21 819.04 412.39 741.49"/><polyline class="cls-2" points="532.99 860.36 489.03 922.06 490.93 925.4"/><polyline class="cls-2" points="543.36 886.17 527.36 909.86 520.71 919.71 513.58 930.27 401.25 981.5 395.74 976.46 506.97 922.41 512.17 914.98 519.09 905.12 542.34 871.92"/><polygon class="cls-1" points="107.21 918.32 217.27 974.06 236.16 1002.64 232.99 1021.04 92.02 949.84 91.35 928.72 107.21 918.32"/><path class="cls-1" d="M568,939.15c-1.27,2.83-3.87,4.42-5.82,3.56a.83.83,0,0,1-.16-.09l0,0a2.73,2.73,0,0,1-1.09-1.07A6.2,6.2,0,0,1,561,936c1.27-2.83,3.87-4.43,5.81-3.56l.25.13C568.76,933.57,569.22,936.45,568,939.15Z"/><path class="cls-1" d="M567,932.58l-.25-.13c-1.94-.87-4.54.73-5.81,3.56a6.2,6.2,0,0,0-.05,5.52A2.73,2.73,0,0,0,562,942.6l-37.7-20.9-3.59-2L512.17,915l6.92-9.86,8.27,4.74,3.5,2Z"/><polygon class="cls-1" points="100.48 954.11 99.88 957.57 227.57 1023.1 228.33 1018.68 100.48 954.11"/><polygon class="cls-1" points="99.88 957.57 95.44 958.35 123.24 982.5 231.59 1037.35 238.39 1035.37 227.57 1023.1 99.88 957.57"/><polygon class="cls-1" points="232.99 1021.04 240.8 1031.2 238.39 1035.37 227.57 1023.1 228.33 1018.68 232.99 1021.04"/><polygon class="cls-1" points="236.73 1025.91 249.77 1014.86 235.31 1007.56 232.99 1021.04 236.73 1025.91"/><polyline class="cls-2" points="240.8 1031.2 253.36 1035.62 272.93 1046.12 329.95 1093.48"/><line class="cls-2" x1="231.59" y1="1037.35" x2="295.4" y2="1125.77"/><line class="cls-2" x1="69.52" y1="940.89" x2="98.26" y2="957.86"/><line class="cls-2" x1="370.74" y1="838.58" x2="300.39" y2="843.55"/></g></svg>
