<svg id="Layer_2" data-name="Layer 2" xmlns="http://www.w3.org/2000/svg" viewBox="0 0 1200 1500"><defs><style>.cls-1,.cls-3{fill:#0a0a0a;}.cls-1,.cls-2,.cls-3,.cls-4{stroke:#fefefe;stroke-width:2px;}.cls-1,.cls-2{stroke-linecap:round;stroke-linejoin:round;}.cls-2,.cls-4{fill:none;}.cls-3,.cls-4{stroke-miterlimit:10;}</style></defs><title>Artboard 1 copy 8</title><path class="cls-1" d="M753.78,406.24c-5,7.69-13.48,11-19.08,7.55a1,1,0,0,1-.13-.09L710.89,399a.91.91,0,0,1-.13-.08c-5.59-3.62-6.07-12.83-1.06-20.58s13.48-11,19.08-7.56l.13.09,23.69,14.74.12.08C758.32,389.28,758.79,398.49,753.78,406.24Z"/><path class="cls-1" d="M795.63,433.33c-10.36,16-28.11,22.9-39.68,15.43L735,435.21c-11.57-7.48-12.53-26.52-2.19-42.52s28.13-22.92,39.69-15.43l20.93,13.55C805,398.29,806,417.33,795.63,433.33Z"/><ellipse class="cls-1" cx="774.71" cy="419.78" rx="34.52" ry="24.93" transform="translate(1.35 842.05) rotate(-57.09)"/><path class="cls-1" d="M846,463.8c-8.1,12.51-21.94,18-31.05,12.3-.06-.05-45-28.05-45-28.05l-.21-.14c-9.1-5.89-9.87-20.89-1.71-33.49s21.93-18,31-12.29l.22.13,45,28.05C853.37,436.2,854.14,451.2,846,463.8Z"/><path class="cls-1" d="M866.91,477.35c-10.36,16-28.12,22.9-39.68,15.42L806.3,479.23c-11.56-7.48-12.53-26.52-2.18-42.52s28.13-22.92,39.68-15.43l20.94,13.55C876.29,442.3,877.27,461.35,866.91,477.35Z"/><ellipse class="cls-1" cx="845.98" cy="463.8" rx="34.52" ry="24.93" transform="translate(-3.05 921.99) rotate(-57.09)"/><path class="cls-1" d="M896.19,463,868.77,446l-.22-.13c-9.11-5.67-22.95-.22-31,12.29s-7.39,27.6,1.71,33.49a1.91,1.91,0,0,1,.21.14l25.32,15.76Z"/><path class="cls-1" d="M941,522.71c-2.49,3.84-6.45,5.87-9.64,5.22l-67.23-13.71a15,15,0,0,1-5.22-2.12c-10.37-6.71-10.4-25.14,0-41.14s27.18-23.52,37.55-16.81a15.39,15.39,0,0,1,3.76,3.48l41.53,54C943.72,514.26,943.52,518.8,941,522.71Z"/><path class="cls-1" d="M988.39,552.22c-3,4.59-8.06,6.6-11.41,4.52l-.14-.09-47.25-29.43h0l-.07,0c-3.35-2.18-3.64-7.68-.63-12.32s8.06-6.6,11.41-4.52l.08.06,47.31,29.46.08,0C991.11,542.07,991.39,547.58,988.39,552.22Z"/><path class="cls-2" d="M977,556.74a5.47,5.47,0,0,0,1.78.7c3.19.65,7.15-1.38,9.63-5.22s2.73-8.45.71-11.07a5.28,5.28,0,0,0-1.34-1.24l-.07,0c-3.35-2.09-8.44-.08-11.42,4.52s-2.71,10.14.63,12.31Z"/><path class="cls-1" d="M988.42,1123.29,545.36,966.77s-81.82-26.28-96.09-30-83.14-12.76-122-17.83-104.16-64.75-104.16-64.75V831.08L179.2,792.23,340.79,623.32l256.75-175.1,131.37-34.91s94.8,59.51,111.13,71.34,27.75,37.89,41.83,76.17,45.6,79.39,45.6,79.39L1170,954.36v5.93Z"/><polygon class="cls-2" points="1170 960.29 988.42 1123.29 988.42 1117.36 1170 954.36 1170 960.29"/><path class="cls-2" d="M1170,954.36S940,741.64,859.16,675.68c-46.38-37.82-192.37-142.45-192.37-142.45L462.41,675.68S608,792.24,655.72,832c84.19,70.12,332.7,285.34,332.7,285.34Z"/><line class="cls-2" x1="634.4" y1="511.15" x2="430.97" y2="652.37"/><path class="cls-2" d="M445.07,642.57S600.35,762.39,666.79,820.38s321.63,297,321.63,297"/><path class="cls-2" d="M622.38,519.49s173,120.84,227.77,164.26C932.2,748.85,1170,954.36,1170,954.36"/><line class="cls-2" x1="896.19" y1="1031.25" x2="1079.21" y2="876.29"/><line class="cls-2" x1="916.13" y1="1049.83" x2="1098.36" y2="892.71"/><line class="cls-2" x1="844.2" y1="982.88" x2="1026.49" y2="831.22"/><line class="cls-2" x1="803.68" y1="945.32" x2="986.39" y2="797.12"/><line class="cls-2" x1="626.11" y1="786.09" x2="807.21" y2="651.3"/><line class="cls-2" x1="505.6" y1="689.73" x2="685.62" y2="563.97"/><line class="cls-2" x1="546" y1="661.5" x2="849.09" y2="908.49"/><line class="cls-2" x1="941.69" y1="833.38" x2="652.3" y2="587.25"/><line class="cls-2" x1="730.34" y1="811.72" x2="828.29" y2="736.93"/><line class="cls-2" x1="756.6" y1="791.67" x2="691.36" y2="737.53"/><line class="cls-2" x1="805.6" y1="754.25" x2="740.99" y2="700.58"/><polyline class="cls-2" points="892.75 942.49 910.69 1018.97 1002.71 1104.54"/><polyline class="cls-2" points="984.02 866.56 1067.99 885.79 1158.34 964.83"/><polyline class="cls-2" points="797 1043.72 821.94 962.23 1003.59 811.72 1060.24 815.84"/><line class="cls-2" x1="841" y1="946.44" x2="880.44" y2="952.73"/><line class="cls-2" x1="986.39" y1="825.96" x2="992.97" y2="859.11"/><polygon class="cls-1" points="472.54 367.14 597.54 448.22 340.79 623.32 212.42 530.98 472.54 367.14"/><path class="cls-2" d="M561.12,733.59,507.83,875.18s-21.66,55.63-16.65,74.36"/><polyline class="cls-2" points="639.1 796.85 617.05 818.5 538.67 793.24 374.2 663.86 462.41 675.68 367.36 605.2"/><path class="cls-2" d="M577.38,746.58l-51.61,132s-22.07,53.26-17.19,75.8"/><path class="cls-2" d="M617.06,818.5,577.38,930.74s-10.54,28.24-8.52,44.33"/><path class="cls-2" d="M636.09,815.83l-9.42,8.77L586.84,939.18s-9.24,26.46-7,39.76"/><polyline class="cls-2" points="494.49 916.8 532.51 925.67 597.54 873.71"/><path class="cls-2" d="M579.48,888.14l-71.65-13S284.67,830.3,266,831.25"/><path class="cls-2" d="M189.64,781.32s98.79,79,107.8,88.61,32.72,29.36,36.63,49.87"/><path class="cls-2" d="M196.54,774.1S298,857.26,303.35,862.61,349,903.4,350.82,922"/><path class="cls-2" d="M502.63,889.63s-190-35-209-35.39"/><path class="cls-2" d="M591,982.88s-2.08-14.23,11.06-9.35,332,115,340.91,133.7"/><polyline class="cls-2" points="815.05 984.73 898.2 1059.48 883.78 1077.49"/><line class="cls-2" x1="898.2" y1="1059.48" x2="584.55" y2="946.44"/><line class="cls-2" x1="641.39" y1="820.18" x2="653.17" y2="808.68"/><line class="cls-2" x1="655.72" y1="832.02" x2="666.79" y2="820.38"/><path class="cls-2" d="M611.26,956.06l-85.49-77.5S321.28,702.31,287.12,679.42c0,0,151.59,168.75,149.92,254.89"/><path class="cls-2" d="M678.1,980.15s-73.52-69.5-98.62-92c-14.2-12.74-43.23-37.48-57.78-49.82-53.41-45.27-154-130.08-215.6-178.74"/><path class="cls-2" d="M531.76,710.31s-255.36,53.22-316.44,79.2"/><polyline class="cls-2" points="207.18 762.98 223.68 776.84 295.38 756.2 382.25 670.19"/><line class="cls-2" x1="371.57" y1="681.88" x2="433.65" y2="731.68"/><polygon class="cls-2" points="281.96 816.44 322.78 774.1 331.22 818.5 281.96 816.44"/><path class="cls-2" d="M223.12,831.08s74.24,62.78,74.24,77"/><path class="cls-2" d="M727.19,874.85s-34.47,104.22-37,129.88"/><line class="cls-2" x1="499.42" y1="684.88" x2="485.91" y2="694.52"/><line class="cls-2" x1="492.66" y1="699.95" x2="435.21" y2="711.85"/><polygon class="cls-2" points="918.4 1012.44 985.61 1073.75 998.47 1062.86 931.26 1001.55 918.4 1012.44"/><polygon class="cls-2" points="936.99 996.71 1004.19 1058.01 1017.05 1047.12 949.85 985.82 936.99 996.71"/><path class="cls-2" d="M723.85,414.65S825,474.48,862.8,514.76"/><path class="cls-2" d="M718.65,416s121.92,74.5,148.67,108.24"/><line class="cls-2" x1="740.84" y1="429.93" x2="713.95" y2="584.06"/><line class="cls-2" x1="678.1" y1="558.66" x2="690.07" y2="549.99"/><path class="cls-2" d="M740.84,603.24s108.95-16.41,168.25,10.28"/><path class="cls-2" d="M758.07,615.6s104-16.52,158.88,9.87"/><polyline class="cls-2" points="821 661.5 837.51 648.47 803.68 598.25 641.83 478.43 666.79 533.24 569.81 467.13"/><line class="cls-2" x1="699.02" y1="556.46" x2="705.31" y2="525.42"/><path class="cls-2" d="M840,660.58l5.25-2.92s63.82,0,103,9.52"/><path class="cls-2" d="M837.51,648.47s75.7,2.83,105,11.22"/><path class="cls-2" d="M1144.32,921.1c-10.21-7-139.64-179.7-188.69-237.54-1.15-1.35-6.9-8.3-.17-7.1"/><polyline class="cls-2" points="652.3 486.18 724.78 458.73 730.6 429.93 712.59 417.65"/><polyline class="cls-2" points="901.67 610.5 913.59 633.08 885.81 651.49"/><polyline class="cls-2" points="1027.51 813.59 1104.27 882.88 1109.38 878.96"/><path class="cls-2" d="M1104.27,882.88S968.58,706.37,933.73,664.23"/><path class="cls-2" d="M905,728.64s66.69,1,97.69,13.34"/><line class="cls-2" x1="844.73" y1="664.23" x2="835.04" y2="672.06"/><line class="cls-2" x1="859.16" y1="675.68" x2="850.15" y2="683.75"/><path class="cls-2" d="M980.83,723.52S920.44,668.14,894.16,646c-13.71-11.57-39.85-34.14-54.28-46.91-59.08-52.29-211-159.15-211-159.15"/><path class="cls-2" d="M940.12,672.06s-48.83-42.65-63.76-58.24c-63.18-66-232.42-177.93-232.42-177.93C691.75,463,870.13,559.4,887.36,574.09"/><path class="cls-2" d="M894.16,646s-13.8-23.86-17.8-32.13c-24-49.51-81.15-148-81.15-148"/><path class="cls-2" d="M880.5,604.42c-13.18-29.52-50.26-102.72-64.3-123.7"/><line class="cls-2" x1="662.27" y1="482.4" x2="723.85" y2="527.32"/><polygon class="cls-2" points="782.21 465.87 792.99 491.57 750.68 476.18 782.21 465.87"/><polyline class="cls-2" points="439.06 388.23 490.19 421.38 550.41 417.65"/><polyline class="cls-2" points="288.55 585.74 297.25 545.62 248.11 508.5"/><line class="cls-2" x1="255.91" y1="514.4" x2="445.98" y2="392.72"/><polyline class="cls-2" points="575.44 433.89 440.26 450.79 349.05 511.15 315.61 605.2"/><path class="cls-1" d="M349.05,511.15c0-35.06,43.26-67.44,71.69-67.44,28.43,10.49,135.76,59.47,178.77,89.52L600,535c69.81,50.51,171.44,144.29,171.44,219.73,0,15.49-123.4-4-256.08-116l-2.47,1.72S349.05,537.21,349.05,511.15Z"/><path class="cls-2" d="M515.37,638.77C519.31,623.1,552.9,521.44,600,535"/><path class="cls-2" d="M520.07,623.74c24.26,27.56,127.51,101.84,219,124.45,0-12.49,10.7-30.88,26.09-28"/><path class="cls-2" d="M634.4,705.29c0-17.93,21.52-87.51,64.13-84.51"/><path class="cls-2" d="M624.21,699.6c0-16.61,23.09-89.64,65.66-87.8"/><path class="cls-2" d="M471.42,510.71s12-13.86,17.26-16.89c3.89-2.25,17.27-4.88,17.27-4.88s-15.83-10-21-7.88C477.4,484.17,471.42,510.71,471.42,510.71Z"/><line class="cls-2" x1="471.42" y1="510.71" x2="381.83" y2="458.32"/><line class="cls-2" x1="492.53" y1="482.1" x2="406.38" y2="446.02"/><path class="cls-2" d="M520.07,623.74l-2.47,1.73S374.11,528.12,351,498.25"/><path class="cls-2" d="M536.89,584.37,535,581.7s-80.51-46.21-91.77-53.53c-9.39,12.2-16.64,33-16.64,33"/><path class="cls-1" d="M544.15,571.47l-1.79-4.08s-153-97.7-166-104.87"/><polygon class="cls-1" points="185.79 832.63 198.61 843.22 215.32 824.18 199.2 809.92 185.79 832.63"/><polygon class="cls-1" points="207.75 850.56 223.12 831.08 215.32 824.18 198.61 843.22 207.75 850.56"/><polygon class="cls-1" points="207.75 850.56 223.12 831.08 260.72 864.7 250.88 876.23 207.75 850.56"/><path class="cls-1" d="M258.66,891l9-8.48s3.76-4.31.29-8c-3.09-3.26-7.23-.66-7.23-.66l-7.26,5.06Z"/><path class="cls-1" d="M131.38,827.66c-6.7,7.83-16.69,10.29-22.41,5.56l-.14-.12-24.2-20s-.08-.08-.13-.11c-5.7-4.88-4.84-15.23,1.91-23.12s16.7-10.29,22.42-5.56l.14.12,24.2,20a1.5,1.5,0,0,1,.13.11C139,809.42,138.14,819.77,131.38,827.66Z"/><path class="cls-1" d="M174,864.18c-14,16.29-34.81,21.33-46.59,11.25l-21.31-18.26c-11.78-10.08-10-31.47,4-47.77s34.82-21.34,46.59-11.25L178,816.41C189.74,826.49,188,847.88,174,864.18Z"/><ellipse class="cls-1" cx="152.7" cy="845.92" rx="38.85" ry="28.06" transform="translate(-589.07 411.55) rotate(-49.41)"/><path class="cls-1" d="M225.6,905.74c-10.91,12.74-27.17,16.74-36.49,9-.06-.06-46-38.06-46-38.06l-.22-.18c-9.27-7.94-7.87-24.79,3.12-37.62s27.18-16.74,36.49-9.06l.22.19,46,38.06C238,876.06,236.6,892.91,225.6,905.74Z"/><path class="cls-1" d="M246.91,924c-14,16.29-34.81,21.33-46.59,11.25L179,917c-11.78-10.08-10-31.47,3.95-47.77S217.8,847.88,229.56,858l21.32,18.25C262.64,886.31,260.88,907.7,246.91,924Z"/><ellipse class="cls-1" cx="225.6" cy="905.74" rx="38.85" ry="28.06" transform="translate(-609.03 487.82) rotate(-49.41)"/><path class="cls-1" d="M281.73,912.44l-28-23.18-.22-.18c-9.31-7.69-25.57-3.69-36.48,9s-12.39,29.69-3.12,37.62l.21.19L240,957.33Z"/><path class="cls-1" d="M322.75,985.74c-3.35,3.91-8.08,5.59-11.54,4.38l-72.94-25.41a16.8,16.8,0,0,1-5.51-3.14c-10.56-9.05-7.82-29.61,6.15-45.9s33.85-22.16,44.41-13.11A17,17,0,0,1,287,907l38.22,66.5C327.06,976.73,326.15,981.76,322.75,985.74Z"/><path class="cls-1" d="M371.19,1025.79c-4,4.68-10,6.15-13.41,3.32l-.14-.12-48.29-39.93h0l-.07-.06c-3.42-2.93-2.91-9.11,1.14-13.84s10-6.15,13.41-3.32c0,0,.06,0,.08.07l48.36,40s.05,0,.08.07C375.75,1014.88,375.23,1021.06,371.19,1025.79Z"/><path class="cls-2" d="M357.78,1029.12a6.34,6.34,0,0,0,1.88,1.05c3.46,1.2,8.18-.47,11.53-4.38s4.32-9,2.46-12.25a6,6,0,0,0-1.31-1.58l-.08-.07c-3.42-2.83-9.4-1.35-13.41,3.33s-4.55,10.91-1.15,13.83A.27.27,0,0,1,357.78,1029.12Z"/><path class="cls-3" d="M484.77,375.08l-12.23-7.94-47.3,29.8-38.74,24.4-9,5.66-5.9,3.72c-13.25-14.11-8.36-45,12-71.54C405.22,331,436.14,318.37,452.65,331L474.75,348C482.16,353.65,485.4,363.46,484.77,375.08Z"/><path class="cls-3" d="M487.73,377l-15.19-9.85-47.3,29.8-38.74,24.4-9,5.66-7.15,4.51c-4.19-18,3.16-43.72,20.7-66.6,24.39-31.79,59.23-46,77.83-31.73l8.3,6.36C487,347,490.3,360.9,487.73,377Z"/><path class="cls-3" d="M487.73,377l-15.19-9.85-47.3,29.8-38.74,24.4-9,5.66c.07-16.65,7.59-37.15,21.85-55.73,24.38-31.8,59.23-46,77.83-31.74C487,347,490.3,360.9,487.73,377Z"/><path class="cls-3" d="M600.73,447.36l-3.19.86-20.69-13.41-14.09-9.14-90.22-58.53-47.3,29.8-38.74,24.4c1.17-13.93,7.73-30.26,19.18-45.2,21.63-28.21,52.55-40.82,69.06-28.17L594.3,439.66A23,23,0,0,1,600.73,447.36Z"/><path class="cls-3" d="M604.27,446.43l-.86.22-5.87,1.57-20.69-13.41-14.09-9.14-90.22-58.53-47.3,29.8q1.32-1.87,2.73-3.72c24.38-31.79,59.23-46,77.84-31.73l88.1,67.56C599.27,433.16,602.69,439.17,604.27,446.43Z"/><path class="cls-3" d="M604.27,446.43l-.86.22-5.87,1.57-20.69-13.41-14.09-9.14c12-3.63,23.1-2.8,31.15,3.38C599.27,433.16,602.69,439.17,604.27,446.43Z"/><path class="cls-3" d="M603.41,446.65l-5.87,1.57-20.69-13.41c6.64-.37,12.66,1.19,17.45,4.86Z"/><path class="cls-3" d="M347.61,308.4c-4.53-9.57-29.9-62.12-29.9-62.12-1.69-3-.78-16.14,16-5.45,0,0,134,85.21,140.76,89.15s50.11,53.3,73.38,70.19l86.6,62.35c5.93,4.28,7.43,9.53,7.43,15.91l-44.29-30.21-125-81.08-17.89,11.27Z"/><polygon class="cls-3" points="347.61 308.4 378.02 367.14 395.59 345.94 391.37 337.02 347.61 308.4"/><line class="cls-4" x1="472.54" y1="367.14" x2="331.15" y2="274.13"/><path class="cls-1" d="M374.2,663.86c0-14.64-9.33-25.86-28.69-43.76l-72.83-68.29c-2.18-7.32-18.87-59.11-18.87-59.11-2.53-7.47-6.2-17.74-18-25.9L104.6,375.59c-4.78-3.95-22.34-8.77-27,11.54,0,0-21.12,83.89-22.81,94S30,632.61,30,645.28c0,31.53,3.38,45,29.84,66.72l105,84.3c6.47,4.94,14.35-4.07,14.35-4.07L334.27,630.14Z"/><line class="cls-2" x1="282.09" y1="585.74" x2="67.01" y2="429.51"/><line class="cls-2" x1="249.21" y1="719.05" x2="287.12" y2="565.36"/><line class="cls-2" x1="277.69" y1="603.6" x2="62.96" y2="446.02"/><line class="cls-2" x1="102.34" y1="474.92" x2="59.84" y2="712"/><line class="cls-2" x1="101.41" y1="480.11" x2="276.44" y2="608.64"/><line class="cls-2" x1="121.07" y1="488.67" x2="114.27" y2="524.81"/><path class="cls-3" d="M148.06,617.42C126.42,645.63,95.51,658.23,79,645.57l-22.1-17c-16.51-12.65-12.35-45.78,9.28-74,13.39-17.47,30.35-29,45.25-32.15l5.39,3.95,8.54,6.26,9,6.58,20.54,15.07,12.37,9.08C168.73,578.9,162,599.19,148.06,617.42Z"/><path class="cls-3" d="M171,566.19c-1,16-8.45,34.9-21.71,52.19-24.38,31.8-59.23,46-77.84,31.73l-8.28-6.35c-18.62-14.27-13.93-51.61,10.45-83.41,12.8-16.68,28.47-28.51,43.17-33.93l8.54,6.26,9,6.58,20.54,15.07Z"/><path class="cls-3" d="M171,566.19c-1,16-8.46,34.89-21.71,52.19-24.38,31.79-59.23,46-77.84,31.73S57.57,598.5,82,566.7c12.86-16.77,28.63-28.65,43.41-34l9,6.58,20.54,15.07Z"/><path class="cls-3" d="M267.68,644.65l-3.06,12.4-15.26,61.84-18.63,19.48h0l-.46.49c-12.16,4.74-23.65,4.57-31.7-1.6L79,645.58c-6.82-5.22-10.11-13.94-10.11-24.34,0-14.82,6.68-33.1,19.38-49.66,13.64-17.78,31-29.37,46.05-32.32l20.54,15.07,90.75,66.58v12.33l.12.07Z"/><path class="cls-3" d="M267.68,644.65l-3.06,12.4-15.26,61.84-18.63,19.48h0c-16.15,8.27-31.95,9.35-42.51,1.25l-88.1-67.56c-18.6-14.27-13.92-51.61,10.46-83.41,13.12-17.11,29.27-29.12,44.29-34.33l90.75,66.58v12.33l.12.07Z"/><path class="cls-3" d="M267.68,644.65l-3.06,12.4-15.26,61.84-18.64,19.49c-16.15,8.27-31.95,9.35-42.51,1.25-18.6-14.27-13.92-51.61,10.46-83.41,13.9-18.11,31.2-30.51,46.94-35.19v12.21l.12.07Z"/><path class="cls-3" d="M267.68,644.65l-3.06,12.4-15.26,61.84L217.73,752l-19.17-14.69c-6.81-5.23-10.1-13.93-10.1-24.34,0-14.82,6.68-33.09,19.38-49.67,11.23-14.65,25-25.09,37.89-30Z"/><path class="cls-3" d="M264.62,657.05l-15.26,61.84-33.89,35.42c-6.14-18,1-45.68,19.69-70.1A111.58,111.58,0,0,1,264.62,657.05Z"/><polyline class="cls-2" points="54.92 481 111.43 522.47 116.82 526.42 125.36 532.68 134.32 539.26 154.86 554.33 167.23 563.41 171.03 566.2 245.61 620.91 245.61 621.03 245.61 633.24 245.73 633.31 267.68 644.65 264.62 657.04 249.36 718.89 230.73 738.37 230.72 738.38 230.26 738.87 217.73 751.96 215.47 754.32"/></svg>
