<svg id="Layer_2" data-name="Layer 2" xmlns="http://www.w3.org/2000/svg" viewBox="0 0 1200 1500"><defs><style>.cls-1{fill:#0a0a0a;}.cls-1,.cls-2{stroke:#fefefe;stroke-linecap:round;stroke-linejoin:round;stroke-width:2px;}.cls-2{fill:none;}</style></defs><title>Artboard 1 copy 2</title><path class="cls-1" d="M899.15,356.36,293.31,333.13S402.31,224.55,491,224.55h91.25C646.5,224.55,840.42,280.74,899.15,356.36Z"/><path class="cls-2" d="M434.26,331.46l1.05-11.69s121.82-.88,162.41,0c45.84,1,183.23,8,183.23,8l15.33,14.94"/><path class="cls-2" d="M736.92,260c-37.17-6.48-94.78-14.39-126.2-16.88-24.56-2-105.28-2-122.5-2-30.87,0-79.09,6.9-79.09,6.9"/><path class="cls-2" d="M761,269.07s-101.94-13.52-147-16.56c-28.86-1.95-96.45-1.95-128.17-1.95-42.54,0-93.32,6.57-93.32,6.57"/><path class="cls-2" d="M899.15,356.36S826.78,327,762.79,314.58c-114.65-22.32-259.92-17-367.17-5.85-63.66,6.63-102.31,24.4-102.31,24.4"/><line class="cls-2" x1="502.91" y1="241.15" x2="491.03" y2="224.55"/><line class="cls-2" x1="582.28" y1="224.55" x2="602.91" y2="242.62"/><line class="cls-2" x1="552.28" y1="241.44" x2="540.11" y2="224.55"/><path class="cls-2" d="M494.07,228.8c-11,.88-54.07,13.12-58.76,16"/><line class="cls-2" x1="458.26" y1="242.57" x2="440.05" y2="234.49"/><path class="cls-2" d="M587.56,229.17s61.51,8.65,99.82,23.05"/><line class="cls-2" x1="660.17" y1="248.52" x2="677.12" y2="241.15"/><path class="cls-2" d="M639.75,254.71s38.3,36,47.63,49.28"/><path class="cls-2" d="M587.56,251.41s24.83,31,36.72,48.64"/><path class="cls-2" d="M673.53,302.79S636.88,265.67,633,262.26l-23.6-1.36s22.13,29.56,28.13,39.61"/><line class="cls-1" x1="666.59" y1="295.77" x2="633.76" y2="294.71"/><line class="cls-1" x1="650.23" y1="279.3" x2="622.21" y2="278.33"/><polyline class="cls-1" points="435.31 319.77 431.85 326.86 431.01 331.76"/><path class="cls-1" d="M348.83,882.88s-33.63-44.52-48-73.27l-31.44,1.46-18.19-18.46-11-393.11s18.73-41.22,24.81-44.06,184.51-36,359.9-30.76,292.75,48.13,307.26,53.4,80.24,59.78,96.73,177.23,90.54,159.72,40.64,324.32Z"/><path class="cls-1" d="M30.07,598c.52,22.77,3.92,41.39,7.76,43.37a1.5,1.5,0,0,0,.7.17c4.12-.09,7-19.74,6.46-43.88S40.64,554,36.52,554.13a1.42,1.42,0,0,0-.76.26C32.06,556.75,29.55,575.41,30.07,598Z"/><ellipse class="cls-1" cx="37.53" cy="597.84" rx="3.96" ry="32.36" transform="translate(-13.7 1.02) rotate(-1.31)"/><path class="cls-1" d="M81.84,524.38l2.38-1.44A3.35,3.35,0,0,0,81.84,524.38Z"/><path class="cls-1" d="M64.76,596.79C66,651.22,75.46,695.7,86.33,700.4a5.89,5.89,0,0,0,1.3.36,5,5,0,0,0,.67,0c11.7-.27,20.11-47.28,18.79-105s-11.89-104.28-23.57-104a4,4,0,0,0-.7.06,5.28,5.28,0,0,0-1.48.56C70.82,498.13,63.51,542.76,64.76,596.79Z"/><path class="cls-1" d="M38.53,641.55a1.5,1.5,0,0,1-.7-.17l45.74,23.48L86,666.08C92.6,665.72,97.24,634,96.35,595s-7-70.67-13.71-70.52h-.06L80.24,526,35.76,554.39a1.42,1.42,0,0,1,.76-.26c4.12-.09,7.91,19.4,8.47,43.54S42.65,641.46,38.53,641.55Z"/><path class="cls-1" d="M107.09,595.83c1.32,57.69-7.09,104.7-18.79,105a5,5,0,0,1-.67,0l158.77,22.4a4.74,4.74,0,0,0,.84.05c14.61-.33,25.12-59.06,23.47-131.14s-14.85-130.26-29.45-129.93a6,6,0,0,0-.86.09L82.82,491.89a4,4,0,0,1,.7-.06C95.2,491.55,105.76,538.13,107.09,595.83Z"/><path class="cls-1" d="M117.52,463.79c0,19.12,3,34.81,6.77,36.55a1.72,1.72,0,0,0,.69.15c4.12,0,7.47-16.43,7.47-36.7s-3.35-36.7-7.47-36.7a1.57,1.57,0,0,0-.77.21C120.46,429.21,117.52,444.81,117.52,463.79Z"/><ellipse class="cls-1" cx="124.98" cy="463.79" rx="3.96" ry="27.16"/><path class="cls-1" d="M171.84,522l56.82-1.53h.15c6.64-.18,12-26.72,12-59.45s-5.41-59.45-12.07-59.45h-.07l-56.91,1.53c6.68,0,12.09,26.61,12.09,59.45S178.49,521.81,171.84,522Z"/><path class="cls-1" d="M125,500.49a1.72,1.72,0,0,1-.69-.15l45.19,20.58,2.36,1.07c6.65-.18,12-26.73,12-59.45s-5.41-59.45-12.09-59.45h-.06l-2.38,1.21-45.12,23a1.57,1.57,0,0,1,.77-.21c4.12,0,7.47,16.44,7.47,36.7S129.1,500.49,125,500.49Z"/><path class="cls-1" d="M1069,684.5s73.58-6.4,101-38.85L1057.78,657.3Z"/><path class="cls-2" d="M1069.52,879.63s-83.83-26-139.07-32.49-118.92-9.75-189.76-8.45-163.61,7.16-207.3,11.7c-68.89,7.14-184.56,32.49-184.56,32.49s-41.11-71.77-43-81.85"/><polygon class="cls-1" points="546.44 902.99 538.26 875.08 546.44 868.58 976.59 868.58 960.32 902.58 546.44 902.99"/><path class="cls-1" d="M1054.69,918.7s-73.64-15-107.22-17.38S839.64,891,758.63,891.94s-198.21,8.74-239.26,13.85c-59.92,7.48-130.43,20.51-130.43,20.51s210.41,209.15,280.83,209.15c63.82,0,146.3-1,173.3-3.44S1017.88,1039.73,1054.69,918.7Z"/><path class="cls-2" d="M950.58,1065.22c-42.71,4.77-153.37,8.17-183.87,8.17s-189.23.7-213.79-1.83"/><line class="cls-2" x1="677.81" y1="1073.47" x2="675.63" y2="1135.45"/><line class="cls-2" x1="675.63" y1="1123.5" x2="586.74" y2="1073.47"/><line class="cls-2" x1="619.86" y1="1073.47" x2="588.65" y2="1097.7"/><line class="cls-2" x1="747.97" y1="1073.47" x2="746.23" y2="1135"/><line class="cls-2" x1="823.81" y1="1072.16" x2="822.09" y2="1133.26"/><line class="cls-2" x1="822.95" y1="1123.5" x2="921.43" y2="1067.67"/><line class="cls-2" x1="895.26" y1="1069.35" x2="917.34" y2="1091.66"/><path class="cls-2" d="M985.55,1031.5s-144.25,7.89-233.42,8.47-238.82-.34-238.82-.34"/><path class="cls-2" d="M854.72,894.38s6.68,112.31,0,143.05"/><path class="cls-2" d="M794.57,892.05s5.28,136,4,147.14"/><path class="cls-2" d="M838.81,893.54s2.77,112.83,2.31,123H817s-3.23-109.06-4.63-124.08"/><line class="cls-2" x1="840.27" y1="957.21" x2="815.12" y2="957.21"/><line class="cls-2" x1="839.07" y1="904.35" x2="813.09" y2="904.35"/><line class="cls-2" x1="546.44" y1="868.58" x2="555.65" y2="902.19"/><polygon class="cls-1" points="781.3 846.81 707.22 846.81 709.17 860.64 781.3 860.64 781.3 846.81"/><polygon class="cls-1" points="707.22 846.81 666.61 868.58 669.53 887.75 709.17 860.64 707.22 846.81"/><polygon class="cls-1" points="781.3 860.64 777.73 885.39 669.53 887.75 709.17 860.64 781.3 860.64"/><polygon class="cls-1" points="780.68 864.93 829.4 864.93 833.3 882.88 778.1 882.88 780.68 864.93"/><polygon class="cls-1" points="999.26 647.5 1067.56 658.93 1170 645.65 1168.15 626.44 1143.81 564.37 1129.06 553.16 1039.1 512.12 958.6 490.21 999.26 647.5"/><path class="cls-2" d="M1008.94,530.21l-8.25-28.55s-57.12-88.05-101.54-112.52"/><path class="cls-2" d="M960.07,495.9l34.59,8.29s5.55,23.08,16.06,26.87,29.79,8.47,34.76,9.35,11.1-5,11.1-5l16.06,12,9.74,40.3-10.81,8.47S1061,581.29,1050.44,579l-33.39-5.06c-8.18-1.75-4.38,20-4.38,20L985,592.4Z"/><polygon class="cls-1" points="903.75 406.52 940.38 419.72 1002.21 658.93 966.98 653.62 903.75 406.52"/><polygon class="cls-2" points="1082.38 587.72 1168.15 626.44 1087.82 622.48 1082.38 587.72"/><polygon class="cls-2" points="1071.57 596.19 1087.82 622.48 1082.38 587.72 1071.57 596.19"/><polygon class="cls-2" points="1072.64 547.42 1061.04 526.94 1056.58 535.44 1072.64 547.42"/><polygon class="cls-2" points="1072.64 547.42 1143.81 564.37 1061.04 526.94 1072.64 547.42"/><polygon class="cls-2" points="1143.81 564.37 1168.15 626.44 1082.38 587.72 1072.64 547.42 1143.81 564.37"/><polygon class="cls-2" points="1145.16 567.82 1117.77 564.37 1120.39 578.09 1161.45 609.36 1145.16 567.82"/><polygon class="cls-2" points="1161.45 609.36 1110.79 585.73 1120.39 578.09 1161.45 609.36"/><polygon class="cls-2" points="1117.77 564.37 1105.91 563.39 1110.79 585.73 1120.39 578.09 1117.77 564.37"/><line class="cls-2" x1="976.51" y1="559.52" x2="1081.25" y2="583.05"/><line class="cls-2" x1="1073.56" y1="551.22" x2="967.28" y2="523.81"/><line class="cls-2" x1="1024.3" y1="538.51" x2="1032.55" y2="572.1"/><line class="cls-2" x1="979.43" y1="526.94" x2="987.59" y2="562"/><polygon class="cls-2" points="1002.21 658.93 952.98 702.59 921.28 698.93 966.98 653.62 1002.21 658.93"/><polygon class="cls-2" points="868.07 692.79 877.27 590.18 951.31 592.38 921.28 698.93 868.07 692.79"/><polygon class="cls-2" points="951.31 592.38 921.28 698.93 966.98 653.62 951.31 592.38"/><polygon class="cls-2" points="877.27 590.18 844.45 627.2 868.07 692.79 877.27 590.18"/><path class="cls-2" d="M839.42,658.93s-155,15.4-310.21,104.79l6.13-76.62Z"/><path class="cls-2" d="M452.56,387.34l27,19.18L794.22,442S498.41,403.72,452.56,387.34Z"/><line class="cls-2" x1="479.58" y1="406.52" x2="535.34" y2="687.1"/><polygon class="cls-2" points="951.31 592.38 722.91 585.62 691.5 452.73 916.3 455.55 951.31 592.38"/><polygon class="cls-2" points="903.75 406.52 860.86 428.25 916.3 455.55 903.75 406.52"/><polyline class="cls-2" points="860.86 428.25 806.66 425.32 839.42 454.58"/><path class="cls-2" d="M809.67,454.21l-3-28.89s-6.87-39.36-12.44-58.07"/><polygon class="cls-1" points="279.94 750.06 529.21 763.72 452.56 387.34 225.83 400.32 279.94 750.06"/><path class="cls-2" d="M529.21,763.72S383.45,771.23,305.81,801H277.08l2.86-51Z"/><polyline class="cls-2" points="1012.67 593.87 1004.59 618.28 991.71 618.28"/><line class="cls-2" x1="502.87" y1="738.94" x2="426.91" y2="400.32"/><path class="cls-1" d="M515.84,589,358.15,674s-18.63-14.53-44-11.18l6.06-29,5.19-57.39L303.15,459.79l-2.25-3-7.59-5.67S306,453,316,449.61L491.2,465Z"/><path class="cls-2" d="M1009,605.1c4.37-13.18,40.89-6.73,40.89-6.73,8.68.73,38,24.11,38,24.11L1170,645.65"/><path class="cls-2" d="M1015.58,599.05l5.64,52.13S989.53,776,973.16,806.24"/><polyline class="cls-2" points="1039.1 512.12 1061.04 526.94 1129.06 553.16"/><line class="cls-2" x1="1087.82" y1="622.48" x2="1067.55" y2="658.93"/><polygon class="cls-2" points="277.08 801.03 269.38 811.07 300.82 809.61 305.81 801.03 277.08 801.03"/><polygon class="cls-1" points="245.16 577.48 258.2 625.35 320.24 633.77 398.57 605.63 459.55 565.21 443.19 492.51 371.3 461.74 300.9 456.78 230.7 453.54 245.16 577.48"/><polygon class="cls-1" points="230.7 453.54 245.16 577.48 387.85 575.53 438.36 542.32 426.91 493.39 367.33 464.98 230.7 453.54"/><polygon class="cls-1" points="438.36 542.32 233.17 539.17 224.1 485.5 426.91 493.39 438.36 542.32"/><polygon class="cls-1" points="233.17 539.17 228.53 568.13 124.57 554.95 113.22 499.51 216.95 463.8 224.1 485.5 233.17 539.17"/><line class="cls-2" x1="233.17" y1="539.17" x2="124.57" y2="554.95"/><line class="cls-2" x1="224.1" y1="485.5" x2="113.22" y2="499.51"/><polyline class="cls-2" points="438.36 542.32 459.55 565.21 496.21 563.97 480.54 493.39 443.19 492.51 426.91 493.39"/><line class="cls-2" x1="387.85" y1="575.53" x2="398.57" y2="605.63"/><line class="cls-2" x1="367.33" y1="464.98" x2="371.3" y2="461.74"/><line class="cls-2" x1="225.83" y1="400.32" x2="455.2" y2="400.32"/><line class="cls-2" x1="279.94" y1="750.06" x2="523.95" y2="737.89"/><line class="cls-2" x1="417.55" y1="493.39" x2="429.24" y2="542.18"/><path class="cls-1" d="M205.52,802.58l-2.36-1.07a3.37,3.37,0,0,0,2.29,1.07Z"/><path class="cls-2" d="M262.34,801.05h0Z"/><path class="cls-1" d="M151.21,744.38c0,19.12,3,34.81,6.76,36.55a1.77,1.77,0,0,0,.69.16c4.13,0,7.47-16.44,7.47-36.71s-3.34-36.7-7.47-36.7a1.6,1.6,0,0,0-.77.21C154.14,709.8,151.21,725.4,151.21,744.38Z"/><ellipse class="cls-1" cx="158.67" cy="744.39" rx="3.96" ry="27.16"/><path class="cls-1" d="M203,684.89l2.37-1.21A3.54,3.54,0,0,0,203,684.89Z"/><path class="cls-1" d="M205.52,802.58l56.82-1.53h.16c6.64-.18,12-26.72,12-59.44s-5.41-59.46-12.08-59.46h-.07l-56.91,1.53c6.68,0,12.09,26.62,12.09,59.45S212.17,802.4,205.52,802.58Z"/><path class="cls-1" d="M158.66,781.09a1.77,1.77,0,0,1-.69-.16l45.19,20.58,2.36,1.07c6.65-.18,12-26.73,12-59.45s-5.41-59.45-12.09-59.45h-.06L203,684.89l-45.13,23a1.6,1.6,0,0,1,.77-.21c4.13,0,7.47,16.44,7.47,36.7S162.79,781.09,158.66,781.09Z"/><polyline class="cls-2" points="320.24 633.77 325.43 576.38 303.15 459.79 300.9 456.78"/><polyline class="cls-2" points="844.45 627.2 699.81 624.92 722.91 585.62"/><polyline class="cls-2" points="691.5 452.73 661.6 461.84 699.81 624.92"/><line class="cls-2" x1="499.62" y1="507.38" x2="672.72" y2="509.32"/><line class="cls-2" x1="508.38" y1="551.45" x2="682.59" y2="551.45"/><line class="cls-2" x1="691.5" y1="692.58" x2="709.17" y2="839.51"/><line class="cls-2" x1="680.7" y1="696.13" x2="696.74" y2="839.95"/><line class="cls-2" x1="630.2" y1="420.25" x2="596.23" y2="324.15"/><line class="cls-2" x1="619.98" y1="418.68" x2="585.89" y2="324.11"/><path class="cls-2" d="M684.79,732.76s-17.7-.5-14.83,25.27,7.26,54.06,7.26,54.06L663.36,825s-194.7,6.3-322.63,43.6"/><path class="cls-2" d="M605.92,379.68S589.6,387.92,584,371.4l-10.23-34.08-11.7-5.6s-144.51,1.35-304.78,33.93"/><ellipse class="cls-2" cx="556.94" cy="657.77" rx="20.1" ry="21.61" transform="translate(-184.11 1097.87) rotate(-80.45)"/><ellipse class="cls-2" cx="512.72" cy="435.85" rx="20.1" ry="21.61" transform="translate(-2.15 869.16) rotate(-80.45)"/><ellipse class="cls-2" cx="632.29" cy="632.12" rx="15.32" ry="16.47" transform="translate(-95.97 1150.79) rotate(-80.45)"/><ellipse class="cls-2" cx="608.7" cy="450.59" rx="15.32" ry="16.47" transform="translate(63.37 976.1) rotate(-80.45)"/><polygon class="cls-1" points="698.77 483.49 615.33 508.68 621.79 551.63 715.61 554.72 698.77 483.49"/><polygon class="cls-1" points="621.79 551.63 688.24 575.53 715.61 554.72 621.79 551.63"/><polygon class="cls-1" points="698.77 483.49 667.76 488.16 615.33 508.68 698.77 483.49"/><path class="cls-2" d="M839.42,658.93S885,771.59,901.06,844.07"/><path class="cls-2" d="M794.22,442s-4.53-50.57-22.09-103.51"/><path class="cls-2" d="M1081.25,832.15s-110.59-33.28-193.16-36.44"/><path class="cls-2" d="M965.66,406.52s-131.89-36.77-185.5-40.8"/><path class="cls-2" d="M674,790.18s-269.17,16.38-346.89,53.89"/><path class="cls-2" d="M579.48,356.36s-181.31,4-335,33.92"/><path class="cls-2" d="M868.06,692.79s27.84,71.53,35.69,103.84"/><line class="cls-2" x1="106.85" y1="626.92" x2="263.69" y2="645.03"/><line class="cls-2" x1="106.85" y1="645.03" x2="266.94" y2="666.08"/><line class="cls-2" x1="91.77" y1="499.51" x2="120.53" y2="493.22"/><line class="cls-2" x1="245.16" y1="577.48" x2="228.53" y2="568.13"/><line class="cls-2" x1="230.7" y1="453.54" x2="216.95" y2="463.8"/></svg>
