<svg id="Layer_2" data-name="Layer 2" xmlns="http://www.w3.org/2000/svg" viewBox="0 0 1200 1500"><defs><style>.cls-1{fill:#0a0a0a;}.cls-1,.cls-2{stroke:#fefefe;stroke-linecap:round;stroke-linejoin:round;stroke-width:2px;}.cls-2{fill:none;}</style></defs><title>Artboard 1 copy 11</title><ellipse class="cls-1" cx="843.83" cy="875.68" rx="10.88" ry="28.24" transform="translate(-13.58 13.3) rotate(-0.9)"/><path class="cls-1" d="M860.59,870.75a3.79,3.79,0,1,1-6,4.6,3.75,3.75,0,0,1-.53-3.66l-14.83-19.38,3.14-2.4,14.83,19.37A3.78,3.78,0,0,1,860.59,870.75Z"/><polygon class="cls-1" points="824.51 851.36 830.53 931.33 1164.64 1185.21 1168.84 1179.2 846.16 920.14 842.51 850.04 824.51 851.36"/><polygon class="cls-1" points="830.53 931.33 797.18 906.08 784.92 852.4 824.51 851.36 830.53 931.33"/><path class="cls-1" d="M839.05,875.15a3.79,3.79,0,1,1-6,4.61,3.74,3.74,0,0,1-.53-3.67l-14.84-19.37,3.15-2.41,14.83,19.38A3.72,3.72,0,0,1,839.05,875.15Z"/><ellipse class="cls-1" cx="817.35" cy="880.75" rx="10.88" ry="28.24" transform="translate(-13.67 12.88) rotate(-0.9)"/><ellipse class="cls-1" cx="1164.92" cy="1180.71" rx="5.07" ry="5.4" transform="matrix(0.99, -0.17, 0.17, 0.99, -180.34, 210.46)"/><ellipse class="cls-1" cx="460.26" cy="886.03" rx="28.24" ry="10.88" transform="translate(-500.89 1156.36) rotate(-78.26)"/><path class="cls-1" d="M482.82,881.56a3.79,3.79,0,1,1-6.55.94l-14.83-19.37,3.14-2.41,14.83,19.38A3.74,3.74,0,0,1,482.82,881.56Z"/><polygon class="cls-1" points="398.15 792.1 393.67 873.64 434.84 925.32 444.69 852.39 398.15 792.1"/><polygon class="cls-1" points="434.84 925.32 30.13 1225.47 30.13 1182.21 393.67 873.64 434.84 925.32"/><polygon class="cls-1" points="30.13 1225.47 35.53 1228.48 448.96 934.03 464.58 860.72 444.69 852.39 434.84 925.32 30.13 1225.47"/><path class="cls-1" d="M464.51,882.32a3.78,3.78,0,1,1-6,4.6,3.74,3.74,0,0,1-.53-3.67l-14.84-19.37,3.14-2.4,14.84,19.37A3.75,3.75,0,0,1,464.51,882.32Z"/><ellipse class="cls-1" cx="436.22" cy="881.22" rx="28.24" ry="10.88" transform="translate(-515.33 1129) rotate(-78.26)"/><line class="cls-2" x1="379.08" y1="886.03" x2="418.47" y2="937.46"/><line class="cls-2" x1="130.7" y1="1096.84" x2="142.53" y2="1142.11"/><line class="cls-2" x1="136.62" y1="1119.47" x2="398.77" y2="911.74"/><ellipse class="cls-1" cx="35.08" cy="1225.47" rx="5.07" ry="5.4" transform="translate(-203.57 22.95) rotate(-9.59)"/><polyline class="cls-1" points="36.87 1220.47 36.87 1186.41 132.84 1105"/><path class="cls-1" d="M852.19,778l-415,66.72-47.6-64.18a29.59,29.59,0,0,1,21.12-47.09c.87-.08,1.76-.12,2.66-.12a29.43,29.43,0,0,1,14.16,3.61h0l33.1-2.15,21.28-7.67,250.83-10,1.19,0a29.42,29.42,0,0,1,14.25,3.65Z"/><path class="cls-1" d="M525.67,672.14h-19.5s-12.35-1.3-15.35,10.31l-8.91,44.67,59,52.88,11.6-54c2-9.94,10.24-17.56,26-18L722,705.29a43.31,43.31,0,0,1,16.82,2.8l-67.87-34.74Z"/><polygon class="cls-1" points="547.58 631.97 528.08 631.97 567.54 654.33 581.76 701.88 680.91 697.68 666.68 663.03 627.27 647.24 547.58 631.97"/><line class="cls-2" x1="567.54" y1="654.33" x2="637.55" y2="652.61"/><path class="cls-1" d="M671.69,691.67l-9.44-24.22s-22.75-12-42.91-11.64S578.46,671,578.46,671l7.11,23.77Z"/><polygon class="cls-1" points="528.08 631.97 525.67 672.14 581.76 701.88 567.54 654.33 528.08 631.97"/><path class="cls-1" d="M551,737.75l-21.63,37.69-28.73-25.88a18.62,18.62,0,0,1-6.7-14.47c0-8,7.63-15.82,17.06-15.82a16.21,16.21,0,0,1,7.38,1.78Z"/><path class="cls-1" d="M551,737.76a22.36,22.36,0,0,1,11.82,20c0,12.27-9.32,22.21-20.81,22.21a19.88,19.88,0,0,1-12.63-4.56,22.71,22.71,0,0,1-8.17-17.65c0-12.26,9.31-22.21,20.8-22.21A19.69,19.69,0,0,1,551,737.76Z"/><path class="cls-1" d="M759.73,735.66a22.38,22.38,0,0,1,11.82,20c0,12.26-9.32,22.21-20.81,22.21a19.88,19.88,0,0,1-12.64-4.57,22.72,22.72,0,0,1-8.17-17.64c0-12.27,9.32-22.21,20.81-22.21A19.69,19.69,0,0,1,759.73,735.66Z"/><path class="cls-1" d="M865.59,812.15a32.16,32.16,0,0,1-31.34,32.14l-364.48,9H469a32.15,32.15,0,0,1-.82-64.28l364.47-9h.82A32.16,32.16,0,0,1,865.59,812.15Z"/><path class="cls-1" d="M852.19,778a39,39,0,0,1-17.7,73.1h-.08L470,860.71h-1a39.55,39.55,0,0,1-1-79.09H468l364.32-8.42h1.09A38.77,38.77,0,0,1,852.19,778Z"/><path class="cls-1" d="M865.59,812.15a32.16,32.16,0,0,1-31.34,32.14l-364.48,9H469a32.15,32.15,0,0,1-.82-64.28l364.47-9h.82A32.16,32.16,0,0,1,865.59,812.15Z"/><path class="cls-2" d="M865.59,812.15a32.15,32.15,0,0,1-31.34,32.14h-.81a32.15,32.15,0,0,1-.81-64.29h.81A32.16,32.16,0,0,1,865.59,812.15Z"/><path class="cls-2" d="M501.11,821.17a32.14,32.14,0,0,1-31.33,32.14H469a32.15,32.15,0,0,1-.81-64.29H469A32.15,32.15,0,0,1,501.11,821.17Z"/><path class="cls-2" d="M495.92,821.17a27,27,0,0,1-26.28,27H469a26.95,26.95,0,0,1-.67-53.89H469A27,27,0,0,1,495.92,821.17Z"/><path class="cls-2" d="M486,821.17a17,17,0,0,1-16.57,17H469a17,17,0,0,1-.42-34H469A17,17,0,0,1,486,821.17Z"/><path class="cls-2" d="M860.39,812.15a27,27,0,0,1-26.27,26.94h-.68a26.95,26.95,0,0,1-.68-53.89h.68A27,27,0,0,1,860.39,812.15Z"/><path class="cls-2" d="M850.43,812.15a17,17,0,0,1-16.56,17h-.43a17,17,0,0,1-.43-34h.43A17,17,0,0,1,850.43,812.15Z"/><path class="cls-1" d="M738.79,708.09s-4.75-2.8-16.82-2.8l-143.51,2.8c-15.72.4-23.94,8-26,18l-11.6,54v4.86l7.21,9.16h17.72l38.66-79.62L716.06,712l45.6,45.89s-10.35-27-13.53-36.12C746.77,717.86,744.69,711.11,738.79,708.09Z"/><polygon class="cls-1" points="694.12 907.22 689.22 912.5 681.41 912.93 687.04 907.29 694.12 907.22"/><polygon class="cls-1" points="687.04 907.29 681.41 912.93 678.12 907.39 687.04 907.29"/><polygon class="cls-1" points="711.94 907.02 707.05 912.32 699.23 912.74 704.86 907.1 711.94 907.02"/><polygon class="cls-1" points="704.86 907.1 699.23 912.74 695.94 907.2 704.86 907.1"/><polygon class="cls-1" points="729.8 906.83 724.88 912.14 717.07 912.56 722.72 906.9 729.8 906.83"/><polygon class="cls-1" points="722.72 906.9 717.07 912.56 713.76 907 722.72 906.9"/><polygon class="cls-1" points="747.64 906.62 742.72 911.95 734.9 912.38 740.55 906.71 747.64 906.62"/><polygon class="cls-1" points="740.55 906.71 734.9 912.38 731.59 906.8 740.55 906.71"/><polygon class="cls-1" points="765.47 906.43 760.54 911.76 752.73 912.2 758.4 906.51 765.47 906.43"/><polygon class="cls-1" points="758.4 906.51 752.73 912.2 749.41 906.61 758.4 906.51"/><polygon class="cls-1" points="797.18 899.78 797.18 906.08 786.86 916.4 781.46 916.4 780.26 906.27 765.47 906.43 758.4 906.51 749.41 906.61 747.64 906.62 740.55 906.71 731.59 906.8 729.8 906.83 722.72 906.9 713.76 907 711.94 907.02 704.86 907.1 695.94 907.2 694.12 907.22 687.04 907.29 678.12 907.39 659.13 907.63 660.27 917.61 654.26 917.61 565.83 804.54 565.83 794.02 604.5 714.4 716.06 712 763.53 759.77 797.18 899.78"/><path class="cls-2" d="M763.53,759.77c-18.63-6.91-156.84-4.51-176.36,3.31l-6.92,27.34,27,36.35s1.2-9.61,10.21-12,147-11.83,158.07-4.86Z"/><path class="cls-2" d="M616,731.83c-13.82,7.66-23.88,29.83-23.88,29.83l29.73,52.41"/><polyline class="cls-1" points="548.11 794.02 506.94 801.84 506.94 852.39"/><path class="cls-2" d="M719.06,728.82c14.88,3.76,40,29.84,40,29.84l12.49,50"/><path class="cls-2" d="M588.22,711.1c-5.29-.54-14.88-.06-19.08,9.41-4.87,11-18.43,60.09-18.43,60.09l3.21,6L565.83,794l38.66-79.62S592.35,711.52,588.22,711.1Z"/><path class="cls-2" d="M747,743.14l-9.42-21.43c-4.6-10.61-12.78-13.17-17.47-13.17-1.69,0-4.06,3.46-4.06,3.46l3,16.82-103,3L604.49,714.4l-17.32,48.68,30.34,51.67"/><polyline class="cls-2" points="780.26 906.27 789.57 906.27 781.46 916.4"/><polyline class="cls-2" points="654.26 917.61 652.11 907.7 651.76 901.18 607.3 826.77"/><line class="cls-1" x1="651.76" y1="901.18" x2="797.18" y2="899.78"/><line class="cls-2" x1="587.17" y1="750.09" x2="562.15" y2="741.11"/><line class="cls-2" x1="577.6" y1="769.79" x2="556.07" y2="761.65"/><line class="cls-2" x1="739.72" y1="735.81" x2="742.6" y2="733.11"/><polyline class="cls-2" points="793.86 845.29 793.86 795.23 770.72 789.68"/><polyline class="cls-2" points="580.25 850.58 580.25 835.49 584.42 828.31"/><polygon class="cls-1" points="657.47 663.03 551.71 607.74 575.75 135.43 619.01 130.62 675.5 576.5 675.5 584.91 657.47 663.03"/><rect class="cls-1" x="675.5" y="576.5" width="19.23" height="8.41"/><polygon class="cls-1" points="694.73 584.91 675.5 663.03 657.47 663.03 675.5 584.91 694.73 584.91"/><polygon class="cls-2" points="689.95 588.81 672.65 659.12 662.25 659.12 678.47 588.81 689.95 588.81"/><line class="cls-2" x1="672.52" y1="659.12" x2="663.35" y2="654.33"/><polygon class="cls-1" points="694.73 576.5 626.02 130.62 619.01 130.62 675.5 576.5 694.73 576.5"/><line class="cls-2" x1="661.04" y1="647.55" x2="552.5" y2="592.29"/><polyline class="cls-2" points="627.79 142.08 620.47 142.08 603.19 143.64 616.55 624.9"/><line class="cls-2" x1="554.8" y1="547.06" x2="615.04" y2="570.48"/><line class="cls-2" x1="562.6" y1="393.85" x2="610.4" y2="403.44"/><line class="cls-2" x1="570.5" y1="238.51" x2="605.86" y2="239.98"/><line class="cls-2" x1="579.88" y1="134.97" x2="562.82" y2="597.54"/><polyline class="cls-2" points="608.63 339.76 646.02 343.8 658.87 343.8"/><line class="cls-2" x1="623.65" y1="628.51" x2="615.04" y2="340.45"/><ellipse class="cls-1" cx="624.29" cy="136.2" rx="6.65" ry="7.08" transform="translate(-13.96 105.85) rotate(-9.59)"/><polygon class="cls-1" points="584.92 608.79 584.92 647.24 569.61 647.24 569.61 611.75 584.92 608.79"/><path class="cls-1" d="M584.92,608.79c-7.66,4.8-15.31,14.21-15.31,38.45L547.51,636c0-24.23,7.65-33.65,15.31-38.44Z"/><polygon class="cls-1" points="584.92 647.24 627.27 647.24 584.92 625.1 584.92 647.24"/></svg>
