<svg id="Layer_2" data-name="Layer 2" xmlns="http://www.w3.org/2000/svg" viewBox="0 0 1200 1500"><defs><style>.cls-1{fill:#0a0a0a;}.cls-1,.cls-2{stroke:#fefefe;stroke-linecap:round;stroke-linejoin:round;stroke-width:2px;}.cls-2{fill:none;}</style></defs><title>Artboard 1 copy 4</title><polygon class="cls-1" points="663.31 483.97 859.63 384.34 859.63 380.72 663.31 475.49 663.31 483.97"/><polygon class="cls-1" points="859.63 380.72 793.17 380.72 655.09 436.32 663.31 475.49 859.63 380.72"/><polygon class="cls-1" points="704.36 463.13 699.73 448.58 659.96 453.04 663.31 483.97 704.36 463.13"/><polygon class="cls-1" points="699.73 448.58 656.31 439.08 659.96 453.04 699.73 448.58"/><line class="cls-2" x1="827.86" y1="396.06" x2="759.08" y2="394.45"/><polyline class="cls-2" points="859.63 380.72 812.89 395.71 775.08 394.82 793.17 380.72"/><line class="cls-2" x1="682.16" y1="425.42" x2="745.76" y2="435.69"/><polyline class="cls-2" points="697.07 427.83 772.03 397.41 821.1 399.32"/><line class="cls-2" x1="741.14" y1="401.67" x2="758.74" y2="402.8"/><line class="cls-2" x1="737.82" y1="411.29" x2="788.62" y2="415"/><polyline class="cls-2" points="697.44 448.08 720.21 435.79 687.58 430.35 662.62 438.97"/><path class="cls-1" d="M507.11,429c0,9.57,6.16,17.6,14.47,19.77l20.91,5.47a18.79,18.79,0,0,0,4.89.64c11.33,0,20.5-9.84,20.5-22,0-11.37-8.07-20.72-18.42-21.85L528,408.78a17.56,17.56,0,0,0-1.93-.1C515.62,408.68,507.11,417.79,507.11,429Z"/><path class="cls-1" d="M526.88,432.94c0,11.37,8.06,20.72,18.41,21.85l21.42,2.31a17.69,17.69,0,0,0,1.93.1c10.5,0,19-9.11,19-20.34,0-9.57-6.17-17.59-14.47-19.77l-20.92-5.48a19.2,19.2,0,0,0-4.88-.63C536.06,411,526.88,420.81,526.88,432.94Z"/><ellipse class="cls-1" cx="568.65" cy="436.86" rx="19" ry="20.35"/><ellipse class="cls-1" cx="568.64" cy="436.85" rx="13.06" ry="13.99"/><path class="cls-1" d="M546.78,463.85c0-22.81,17-41.31,37.9-41.31a35.31,35.31,0,0,1,5,.35l54.78,7.81c12.65,1.81,23.34,10.41,28.87,22.34l-52.08,43.6Z"/><path class="cls-1" d="M601.56,471.67a44,44,0,0,0,4.3,19.13l4.44-2.25a38.38,38.38,0,0,1-3.85-16.88c0-19.88,14.77-36,33-36,13.9,0,25.79,9.36,30.65,22.61l4.44-2.24c-5-13.49-16.43-23.41-30.12-25.36a35.56,35.56,0,0,0-5-.35C618.52,430.35,601.56,448.85,601.56,471.67Z"/><path class="cls-1" d="M610.3,488.55c5.54,11.36,16.52,19.1,29.15,19.1,18.24,0,33-16.11,33-36a38.51,38.51,0,0,0-2.36-13.37L666.79,460a34.44,34.44,0,0,1,2,11.7c0,17.67-13.14,32-29.36,32-11.16,0-20.88-6.8-25.83-16.81Z"/><path class="cls-1" d="M613.62,486.87c5,10,14.67,16.81,25.83,16.81,16.22,0,29.36-14.34,29.36-32a34.44,34.44,0,0,0-2-11.7h0Z"/><path class="cls-1" d="M606.45,471.67a38.38,38.38,0,0,0,3.85,16.88l3.32-1.68L666.78,460h0l3.31-1.67c-4.86-13.25-16.75-22.61-30.65-22.61C621.22,435.69,606.45,451.79,606.45,471.67Z"/><line class="cls-2" x1="674.55" y1="456.04" x2="674.54" y2="456.06"/><line class="cls-2" x1="636.41" y1="467.2" x2="625.45" y2="439.08"/><path class="cls-2" d="M606.64,475.56a79.87,79.87,0,0,0,25.93,1.72s-2.39-7.5,3.84-10.08,9.24,3.46,9.24,3.46c-1.27-13.46-21.71-27.22-37.28-11.1"/><path class="cls-2" d="M633.28,436.32c9.64,2,16.6,5.17,20.07,17.27l16.75,4.71"/><line class="cls-2" x1="653.35" y1="453.59" x2="640.62" y2="459.97"/><path class="cls-2" d="M656.15,465.35c1.58,15.3-9,28.31-20.35,32.65"/><path class="cls-2" d="M642.09,472.46s.8,8.29-18.2,9.21"/><path class="cls-1" d="M790.4,520.64c-.18,7.74,4.42,14.31,10.68,15.84L868,553a12,12,0,0,0,2.54.34c7.52.17,13.78-6.79,14-15.56.18-7.74-4.43-14.29-10.68-15.84l-66.9-16.5a10.89,10.89,0,0,0-2.55-.35C796.86,504.91,790.61,511.88,790.4,520.64Z"/><path class="cls-1" d="M857.29,537.15c-.18,7.75,4.43,14.3,10.69,15.85a11.87,11.87,0,0,0,2.55.34c7.52.18,13.77-6.79,14-15.55.18-7.74-4.42-14.3-10.68-15.85a12,12,0,0,0-2.56-.34C863.76,521.43,857.5,528.39,857.29,537.15Z"/><path class="cls-1" d="M863.37,538.81c-.19,7.84,4.54,14.47,10.91,15.9l7.23,1.63a11.15,11.15,0,0,0,2.32.28c7.51.17,13.77-6.79,14-15.54.19-7.85-4.54-14.48-10.92-15.91l-7.22-1.62a11.15,11.15,0,0,0-2.32-.28C869.83,523.09,863.57,530.05,863.37,538.81Z"/><ellipse class="cls-1" cx="884.2" cy="540.75" rx="15.87" ry="13.61" transform="translate(322.93 1412.06) rotate(-88.66)"/><path class="cls-1" d="M879.85,540.87c-.07,3,1.72,5.57,4.16,6.17l84.15,20.78a4.71,4.71,0,0,0,1,.13c2.94.07,5.37-2.65,5.45-6.06a6,6,0,0,0-4.16-6.19L886.3,534.94a4.73,4.73,0,0,0-1-.14C882.37,534.74,879.92,537.45,879.85,540.87Z"/><path class="cls-1" d="M964,561.64c-.07,3,1.73,5.58,4.16,6.18a4.81,4.81,0,0,0,1,.13c2.93.07,5.37-2.64,5.45-6.06a6,6,0,0,0-4.16-6.18,4.81,4.81,0,0,0-1-.13C966.51,555.51,964.07,558.23,964,561.64Z"/><path class="cls-1" d="M965.68,561.68a4.08,4.08,0,0,0,2.84,4.21l102.16,25.22a2.93,2.93,0,0,0,.68.1c2,0,3.67-1.81,3.72-4.15a4.11,4.11,0,0,0-2.84-4.22L970.08,557.63a3.1,3.1,0,0,0-.69-.1C967.39,557.48,965.72,559.34,965.68,561.68Z"/><path class="cls-1" d="M1059.88,586.71c-.17,7.45,4.87,13.61,11.26,13.77a10.38,10.38,0,0,0,2.74-.31l3.23-.84c4.45-1.14,7.83-5.7,8-11.24a12.44,12.44,0,0,0-4-9.71l-2.65-2.28a10.44,10.44,0,0,0-6.61-2.62C1065.37,573.33,1060.06,579.25,1059.88,586.71Z"/><ellipse class="cls-1" cx="1075" cy="587.85" rx="11.76" ry="10.08" transform="translate(462.17 1648.81) rotate(-88.66)"/><path class="cls-1" d="M1073.2,587.81a2,2,0,0,0,1.41,2.09l9,2.24a1.66,1.66,0,0,0,.33,0,2,2,0,0,0,1.85-2,2,2,0,0,0-1.41-2.09l-9-2.23a1.4,1.4,0,0,0-.34,0A2,2,0,0,0,1073.2,587.81Z"/><path class="cls-1" d="M1094.49,574.7l6.76-1.14.41-.08Z"/><path class="cls-1" d="M1094.49,574.7l6.76-1.14.41-.08Z"/><path class="cls-1" d="M1092.26,615.53l7-1.4c-9.51-5.63-12.2-12.53-12.2-23.28,0-10.44,9.75-16.29,14.15-17.29l-6.76,1.14s-12.65,3.13-14.15,14.48C1077.74,608.87,1092.26,615.53,1092.26,615.53Z"/><path class="cls-1" d="M1082.24,590a2,2,0,0,0,1.4,2.08l74.74,18.46a1.86,1.86,0,0,0,.34,0,2,2,0,0,0,1.84-2,2,2,0,0,0-1.41-2.09L1084.42,588l-.35,0A2,2,0,0,0,1082.24,590Z"/><ellipse class="cls-1" cx="1158.76" cy="608.53" rx="2.09" ry="1.79" transform="matrix(0.02, -1, 1, 0.02, 523.31, 1752.75)"/><path class="cls-1" d="M1091,617.62l1.29-2.09s-14.52-6.66-11.92-26.35c1.5-11.35,14.15-14.48,14.15-14.48v-2.41s-14.6,2.41-16.8,16.23C1074.46,608.72,1091,617.62,1091,617.62Z"/><polygon class="cls-1" points="1094.48 572.29 1094.48 574.71 1101.66 573.48 1105.66 572.8 1105.66 570.39 1094.48 572.29"/><path class="cls-1" d="M1094.49,574.7l6.76-1.14.41-.08Z"/><polygon class="cls-1" points="1090.97 617.62 1097.97 616 1099.3 614.13 1092.26 615.53 1090.97 617.62"/><polygon class="cls-1" points="650.34 508.79 815.97 499.19 873.82 510.6 684.46 533.07 679.56 530.48 650.34 508.79"/><polygon class="cls-1" points="873.82 510.6 873.82 516.13 721 536.53 721 528.73 873.82 510.6"/><polygon class="cls-1" points="721 528.73 721 545.08 714.39 548.86 684.46 533.07 721 528.73"/><polygon class="cls-1" points="861.13 517.82 861.13 521.02 858.52 521.86 842.75 520.28 861.13 517.82"/><polyline class="cls-2" points="777.03 501.45 830.98 515.68 830.98 521.86"/><polyline class="cls-2" points="721 504.7 784.79 521.16 784.79 528.02"/><polyline class="cls-2" points="698.46 506 751.29 525.14 751.29 532.49"/><line class="cls-2" x1="655.09" y1="508.56" x2="694.01" y2="531.93"/><line class="cls-2" x1="786.75" y1="504.01" x2="663.31" y2="513.5"/><line class="cls-2" x1="797.97" y1="506.97" x2="672.47" y2="519"/><polyline class="cls-2" points="721 528.73 715.95 531.93 688.28 535.08"/><polygon class="cls-1" points="859.26 748.93 850.36 754.49 537.72 593.38 517.99 581.24 525.77 518.38 521.04 494.88 530.92 499.19 619.63 550.5 901.63 697.48 890.13 714.63 859.26 748.93"/><polygon class="cls-1" points="593.21 478.2 612.68 480.84 679.56 530.48 619.63 550.5 548.3 499.33 545.88 491.82 593.21 478.2"/><polygon class="cls-1" points="558.86 501.7 618.66 543.69 627.7 543.69 666.76 531.18 668.02 528.67 612.12 483.97 604.06 483.97 560.82 496.9 558.86 501.7"/><polygon class="cls-1" points="536.76 494.88 530.92 499.19 543.29 545.64 609.2 554.54 619.63 553.01 619.63 550.5 548.3 499.33 536.76 494.88"/><polygon class="cls-1" points="549.27 505.17 611.71 549.39 545.8 539.24 549.27 505.17"/><line class="cls-1" x1="596.82" y1="538.85" x2="596.21" y2="547.01"/><polygon class="cls-1" points="545.88 502.77 542.71 527.28 536.76 504.2 537.03 499.19 545.88 502.77"/><polygon class="cls-1" points="545.88 491.82 536.76 494.88 548.3 499.33 545.88 491.82"/><polygon class="cls-1" points="619.63 550.5 901.63 697.48 952.24 674.4 679.56 530.48 619.63 550.5"/><polyline class="cls-2" points="690.4 536.2 630.57 556.21 606 560.52 545.8 551.76 523 540.74"/><polygon class="cls-1" points="536.76 494.88 521.04 494.88 530.92 499.19 536.76 494.88"/><line class="cls-2" x1="525.77" y1="518.38" x2="537.72" y2="524.71"/><line class="cls-2" x1="670.14" y1="533.63" x2="680.74" y2="539.43"/><line class="cls-2" x1="630.1" y1="547.01" x2="640.55" y2="552.87"/><line class="cls-2" x1="647.62" y1="550.5" x2="911.58" y2="692.94"/><line class="cls-2" x1="674.07" y1="541.66" x2="943.7" y2="678.3"/><polygon class="cls-2" points="847.47 629.53 817.16 641.99 875.02 662.53 885.96 657.71 847.47 629.53"/><line class="cls-2" x1="785.94" y1="586.62" x2="771.31" y2="590.94"/><polyline class="cls-2" points="741.54 601.18 726.64 606.28 722.53 613.98 736.43 646.03"/><polygon class="cls-1" points="545.8 551.76 544.82 560.52 522.06 548.36 523 540.74 545.8 551.76"/><polygon class="cls-1" points="522.06 548.36 544.82 560.52 890.13 714.63 859.26 748.93 539.08 589.3 518.68 575.6 522.06 548.36"/><line class="cls-2" x1="630.57" y1="556.21" x2="620.61" y2="594.34"/><polyline class="cls-2" points="899.01 701.39 722.53 613.98 629.44 560.52"/><line class="cls-2" x1="694.71" y1="598" x2="679.56" y2="620.65"/><line class="cls-2" x1="673.09" y1="585.58" x2="666.07" y2="614.63"/><line class="cls-2" x1="688.28" y1="607.62" x2="670.14" y2="598"/><line class="cls-2" x1="651.61" y1="573.25" x2="642.99" y2="604.33"/><line class="cls-2" x1="650.95" y1="575.64" x2="627.97" y2="566.17"/><line class="cls-2" x1="646.95" y1="590.06" x2="624.16" y2="580.72"/><polyline class="cls-2" points="545.8 551.76 616.74 592.61 625.59 557.08"/><polygon class="cls-1" points="537.72 593.38 545.8 613.98 821.81 754.49 807.76 732.54 537.72 593.38"/><polygon class="cls-1" points="545.8 613.98 527.02 613.98 517.99 581.24 537.72 593.38 545.8 613.98"/><polygon class="cls-1" points="850.36 754.49 846.56 775.07 821.81 754.49 807.76 732.54 850.36 754.49"/><path class="cls-1" d="M846.56,775.07c57.57,37.82,209.41,84.54,260,84.54,23.36,0,52.28-18.35,60.07-26.14s-49-66.74-88.44-96.78c-36.7-27.91-109.44-69.84-118-66l-8,3.66-50.61,23.08-11.5,17.15-30.87,34.3-8.9,5.56Z"/><path class="cls-2" d="M981.87,678.3a38.5,38.5,0,0,0-13.5,3.05c-4.73,1.95-42.55,18.08-45.89,21.69s-12,15.58-16.13,35.88-5,33.93-4.72,38.93,6.84,24.53,10,29.37"/><path class="cls-2" d="M922.48,703c16.13,9.74,169.49,105.3,199.74,154.3-37.07.47-203.35-73.09-220.59-79.49s-51.27-23.36-51.27-23.36"/><path class="cls-1" d="M972.54,686.22,943.7,699.43s63,36.57,79.46,47.55l29.34-14.32S981.59,689,972.54,686.22Z"/><polyline class="cls-1" points="972.54 686.22 972.54 699.15 955.95 706.56"/><path class="cls-1" d="M972.54,699.15s36.3,12.65,80,33.51"/><line class="cls-1" x1="1041.16" y1="727.35" x2="1013.01" y2="740.53"/><line class="cls-1" x1="1034.38" y1="724.27" x2="1006.42" y2="736.5"/><polygon class="cls-1" points="521.04 494.88 502.92 490.3 493.45 516.24 524.67 527.28 525.77 518.38 521.04 494.88"/><polygon class="cls-1" points="502.92 490.3 457.13 472.68 445.63 499.33 493.45 516.24 502.92 490.3"/><polygon class="cls-1" points="517.99 581.24 440.26 547 445.63 499.33 524.67 527.28 517.99 581.24"/><polygon class="cls-1" points="527.02 613.98 508.67 609.69 440.26 547 517.99 581.24 527.02 613.98"/><polygon class="cls-1" points="515.2 553.01 511.5 578.38 517.99 600.28 512.84 597.61 507.32 578.5 510.75 555.11 515.2 553.01"/><polygon class="cls-1" points="515.2 553.01 495.18 545.78 493.45 548.36 510.75 555.11 515.2 553.01"/><polygon class="cls-1" points="507.32 578.5 490.02 570.64 493.45 548.36 510.75 555.11 507.32 578.5"/><polygon class="cls-1" points="490.02 570.64 500.38 591.8 512.84 597.61 507.32 578.5 490.02 570.64"/><polygon class="cls-1" points="457.13 472.68 453.23 468.79 502 456.09 508.21 456.44 575.41 472.68 587.65 479.8 545.88 491.82 536.76 494.88 521.04 494.88 502.92 490.3 457.13 472.68"/><polygon class="cls-1" points="453.23 468.79 439.33 481.02 445.63 499.33 457.13 472.68 453.23 468.79"/><path class="cls-1" d="M468.86,469.9l56.92,20.4h8.15s35.22-11.1,36.29-12.05l-.92-3.53h0l-64.12-14.26Z"/><path class="cls-1" d="M559.82,472.53a15.32,15.32,0,0,0,.49,3.35,13.4,13.4,0,0,0,2.09,4.78l1.06,1.35c.73-.31,1.43-.61,2.1-.93a20.33,20.33,0,0,0,4.66-2.83l-.36-1.35-.06-.24-.54-2-.37-1.35c-.87-3.21-2.42-5.54-3.54-5.28h0l-4.44,1s0,0,0,0C560.1,469.29,559.73,470.65,559.82,472.53Z"/><path class="cls-1" d="M523.55,471.66a18.44,18.44,0,0,0,1.17,6.49l4.52,12.15h4.69s21-4.22,31.63-9.22l-2.95-7.9-3-8a18.63,18.63,0,0,0-34.64-.73A18.42,18.42,0,0,0,523.55,471.66Z"/><path class="cls-1" d="M519.76,488.14l6,2.16h3.86l-1.25-4.55c-.88-3.22-2.42-5.54-3.55-5.29h0l-4.44,1h0C519.23,481.76,519,484.79,519.76,488.14Z"/><path class="cls-1" d="M560.87,469.09c-4.79,6.43-24.12,10.9-36.15,9.06"/><polygon class="cls-1" points="536.76 460.63 538.61 471.67 549.64 468.79 545.01 458.59 536.76 460.63"/><circle class="cls-1" cx="542.44" cy="464.77" r="3.24"/><path class="cls-1" d="M168.72,773c-.19,11,10.14,20.19,23.09,20.42s23.6-8.57,23.78-19.62v-.3l.86-49.67c.19-11-10.16-20.17-23.1-20.4S169.75,712,169.56,723v.3Z"/><ellipse class="cls-1" cx="192.15" cy="773.41" rx="20.01" ry="23.45" transform="matrix(0.02, -1, 1, 0.02, -584.43, 952.31)"/><path class="cls-1" d="M168.55,782.44c-.19,11,10.16,20.19,23.11,20.41s23.59-8.56,23.78-19.6V783l.09-5.22c.19-11.05-10.15-20.19-23.1-20.41s-23.6,8.56-23.79,19.61v.3Z"/><ellipse class="cls-1" cx="192" cy="782.84" rx="20.01" ry="23.45" transform="translate(-594.01 961.43) rotate(-89.02)"/><path class="cls-1" d="M183,851.27c-.07,3.69,3.38,6.74,7.71,6.82s7.88-2.86,7.94-6.55v-.09L199.82,783c.07-3.69-3.39-6.74-7.71-6.82s-7.87,2.86-7.94,6.54v.1Z"/><ellipse class="cls-1" cx="190.82" cy="851.41" rx="6.68" ry="7.83" transform="translate(-663.72 1027.66) rotate(-89.02)"/><path class="cls-1" d="M183.46,934.74c-.05,2.8,2.57,5.11,5.85,5.17s6-2.17,6-5v-.07l1.42-83.36c.05-2.8-2.57-5.12-5.85-5.18s-6,2.17-6,5v.07Z"/><ellipse class="cls-1" cx="189.31" cy="939.91" rx="17.16" ry="20.11" transform="translate(-753.7 1113.12) rotate(-89.02)"/><ellipse class="cls-1" cx="189.25" cy="943.46" rx="13.61" ry="15.95" transform="translate(-757.31 1116.56) rotate(-89.02)"/><polygon class="cls-1" points="198.55 992.14 200.96 993.66 215.42 985.04 212.77 983.23 198.55 992.14"/><polygon class="cls-1" points="161.64 947.22 164.19 951.11 169.49 948.04 169.5 948.04 179.45 942.28 179.49 942.25 176.25 938.46 161.64 947.22"/><path class="cls-1" d="M169.5,948c13.55.58,29.05,31.71,29.05,44.1l14.22-8.91q-.41-1.14-.81-2.31c-7-19.51-19-46.5-32.47-38.66l0,0Z"/><path class="cls-1" d="M184.1,1025.17a3.8,3.8,0,0,0,7.5.13v-.06l1.21-70.59a3.8,3.8,0,0,0-7.51-.14v.06Z"/><ellipse class="cls-1" cx="187.85" cy="1025.23" rx="3.2" ry="3.75" transform="translate(-840.44 1195.53) rotate(-89.02)"/><path class="cls-1" d="M176.25,938.46l3.24,3.8C193,934.42,205,961.41,212,980.92q.4,1.17.81,2.31l2.65,1.81C203.78,946.29,188.87,930.88,176.25,938.46Z"/><polygon class="cls-1" points="176.25 938.46 179.45 942.28 179.49 942.25 176.25 938.46"/><polygon class="cls-1" points="414.34 618.3 422.87 632.46 430.99 645.97 494.34 612.73 496.5 611.59 500.38 609.56 486.58 576.64 454.35 594.24 432.34 606.26 414.34 618.3"/><polygon class="cls-1" points="402.78 585.25 455.64 561.1 477.82 581.42 432.33 606.26 426.1 609.56 402.78 585.25"/><path class="cls-1" d="M457.93,592.29l-17.67-14.53s-8.17-5.9-20.33-.34-11.46,13.76-11.46,13.76l17.63,18.38Z"/><path class="cls-1" d="M434.73,637.88a33.26,33.26,0,0,0,.5,5.86l4-2.08,53.32-28,4-2.07c-.27-.25-.54-.49-.8-.71a37.33,37.33,0,0,0-24.13-8.74C451.2,602.16,434.73,618.14,434.73,637.88Z"/><polygon class="cls-1" points="392.79 574.84 427.83 611.36 158.82 749.67 162.53 709.44 392.79 574.84"/><polygon class="cls-1" points="426.11 648.53 435.87 659.47 467.97 642.74 479.49 636.72 509.77 620.94 500.38 609.56 492.52 613.68 439.2 641.66 426.11 648.53"/><path class="cls-1" d="M422.82,630.71c0,.59,8.17,15.26,8.17,15.26l8.28,9.1a34.39,34.39,0,0,1-4-11.33,33.26,33.26,0,0,1-.5-5.86c0-19.74,16.47-35.72,36.81-35.72a37.33,37.33,0,0,1,24.13,8.74c.26.22.53.46.8.71l0,0L486,602.75a39.14,39.14,0,0,0-31.65-8.51,38.32,38.32,0,0,0-22,12A36.24,36.24,0,0,0,422.82,630.71Z"/><path class="cls-1" d="M426.1,609.56l6.23-3.3,3.34,3.3S425.52,621.64,431,646l-4.89,2.57-48.83,9.59-8.77-16.26,59.33-30.51Z"/><polygon class="cls-1" points="373.07 650.34 162.99 755.6 158.82 749.67 368.5 641.87 373.07 650.34"/><line class="cls-2" x1="354.71" y1="597.1" x2="381.45" y2="635.21"/><polyline class="cls-2" points="304.41 626.5 321.49 666.04 325.97 673.93"/><polyline class="cls-2" points="278.13 641.87 290.64 681.07 296.27 688.82"/><polyline class="cls-2" points="215.13 678.69 221.27 717.56 227.18 723.44"/><line class="cls-2" x1="216.41" y1="686.76" x2="359.79" y2="604.33"/><line class="cls-2" x1="218.3" y1="698.73" x2="368.5" y2="616.76"/><polygon class="cls-1" points="162 715.16 153.67 720.42 150.34 750.78 159.14 746.13 162 715.16"/><polyline class="cls-2" points="435.67 609.56 375.99 640.74 368.5 641.87"/><polygon class="cls-1" points="398.22 580.49 415.04 572.61 424.5 553.01 440.26 547 455.64 561.1 402.78 585.25 398.22 580.49"/><path class="cls-1" d="M435.87,659.47a42.32,42.32,0,0,0,35.67,19.19c23.21,0,42-18.26,42-40.78a39.47,39.47,0,0,0-3.79-16.94l-4.61,2.4a34.61,34.61,0,0,1,3.19,14.54c0,19.72-16.48,35.72-36.81,35.72a37,37,0,0,1-31.05-16.53Z"/><path class="cls-1" d="M440.49,657.07a37,37,0,0,0,31.05,16.53c20.33,0,36.81-16,36.81-35.72a34.61,34.61,0,0,0-3.19-14.54Z"/><path class="cls-1" d="M439,637.88a27.69,27.69,0,0,0,.25,3.78l53.32-28a33.15,33.15,0,0,0-21-7.42C453.54,606.26,439,620.41,439,637.88Z"/><path class="cls-1" d="M434.73,637.88a33.26,33.26,0,0,0,.5,5.86,34.39,34.39,0,0,0,4,11.33l3.73-2a30.35,30.35,0,0,1-3.6-10c-.08-.46-.15-.93-.2-1.41a27.69,27.69,0,0,1-.25-3.78c0-17.47,14.59-31.62,32.59-31.62a33.15,33.15,0,0,1,21,7.42c.5.42,1,.84,1.47,1.28a31.19,31.19,0,0,1,6.4,8.23l3.73-1.94a35.6,35.6,0,0,0-7.65-9.64c-.27-.25-.54-.49-.8-.71a37.33,37.33,0,0,0-24.13-8.74C451.2,602.16,434.73,618.14,434.73,637.88Z"/><line class="cls-2" x1="476.75" y1="645.48" x2="489.22" y2="669.21"/><path class="cls-2" d="M468,642.74a6.5,6.5,0,0,0,11.52-6Z"/><path class="cls-2" d="M476.75,645.48c-4.14,2.22-11.92,2.33-16,1"/><path class="cls-1" d="M473.07,637.87c-3.2,1.85-16.31.14-20.25-3.36-2.34-11.77,11.55-21.15,21.28-11.16C476.75,629.42,477,635.63,473.07,637.87Z"/><line class="cls-2" x1="461.27" y1="590.46" x2="436.13" y2="570.02"/><line class="cls-2" x1="486.58" y1="576.64" x2="440.26" y2="547.01"/><path class="cls-2" d="M497.62,627.28c4.47,28.76-34.2,49.07-57.13,29.79"/><path class="cls-1" d="M360.61,466.29A19.6,19.6,0,0,0,369,482.24l10.53,7.52a24.16,24.16,0,0,0,14.07,4.45c12.85,0,23.26-9.78,23.26-21.85,0-9.36-6.27-17.35-15.08-20.45l-.3-.12-12.08-4.24a22.37,22.37,0,0,0-7.5-1.28C370.15,446.27,360.61,455.23,360.61,466.29Z"/><path class="cls-1" d="M370.36,472.36a21.41,21.41,0,0,0,9.19,17.4,23.69,23.69,0,0,0,6.95,3.41l13.11,4a22.66,22.66,0,0,0,6.53.95c11.78,0,21.32-9,21.32-20A19.74,19.74,0,0,0,418,461.42l-11.45-7.21a24.19,24.19,0,0,0-12.94-3.69C380.78,450.52,370.36,460.3,370.36,472.36Z"/><path class="cls-1" d="M384.82,478.06c0,8.92,6.21,16.48,14.79,19.07a22.61,22.61,0,0,0,6.53.95c11.77,0,21.32-9,21.32-20A19.71,19.71,0,0,0,418,461.42,22.16,22.16,0,0,0,406.14,458C394.36,458,384.82,467,384.82,478.06Z"/><ellipse class="cls-1" cx="406.14" cy="478.06" rx="14.21" ry="13.35"/><path class="cls-1" d="M374.32,505.17v54h70l22.22-71.44L431,470.92a40.22,40.22,0,0,0-17.3-3.87C391.94,467.05,374.32,484.11,374.32,505.17Z"/><path class="cls-1" d="M403,526.17a41.18,41.18,0,0,0,.59,7l5.54-.58a35.6,35.6,0,0,1-.57-6.4c0-20.62,17.27-37.34,38.57-37.34,20.77,0,37.71,15.9,38.52,35.83l5.54-.58a42.7,42.7,0,0,0-24.68-36.31,45.06,45.06,0,0,0-19.38-4.34C422.75,483.43,403,502.57,403,526.17Z"/><path class="cls-1" d="M409.12,532.57a37.36,37.36,0,0,0,17.7,25.36,39.31,39.31,0,0,0,20.3,5.58c21.29,0,38.56-16.72,38.56-37.34,0-.5,0-1,0-1.51l-3.95.41c0,.37,0,.73,0,1.1,0,18.51-15.5,33.51-34.6,33.51-17,0-31.14-11.87-34.05-27.52Z"/><path class="cls-1" d="M413.07,532.16c2.91,15.65,17.05,27.52,34.05,27.52,19.1,0,34.6-15,34.6-33.51,0-.37,0-.73,0-1.1Z"/><path class="cls-1" d="M408.55,526.17a35.6,35.6,0,0,0,.57,6.4l3.95-.41,68.62-7.09,3.95-.41c-.81-19.93-17.75-35.83-38.52-35.83C425.82,488.83,408.55,505.55,408.55,526.17Z"/><polyline class="cls-2" points="485.64 524.66 475.39 517.92 408.63 523.76"/><path class="cls-2" d="M475.39,517.92c-.93-5.84-6.9-23.16-21.41-28.5"/><path class="cls-1" d="M439.33,529.44c-9.27-2.44-13.55-2.92-18.92-6.71.19-8.05,6.89-18.36,17.9-19.06,12.05-.77,18.48,9.1,19.28,15.81.56,4.65-2.77,8.36-2.77,8.36Z"/><line class="cls-2" x1="443.41" y1="489" x2="446.57" y2="520.44"/><path class="cls-2" d="M454.82,527.84s-1-8-8.25-7.4-7.24,9-7.24,9Z"/><path class="cls-1" d="M452.93,528s-2.4,6.63-12.26,7.22c-7,.41-12.1-4.71-12.1-4.71Z"/><path class="cls-2" d="M470.74,526.2c-1.28,20.81-26.46,33-47.27,24.43"/><polygon class="cls-1" points="349.74 568.41 99.28 597.26 99.28 589.98 348.63 557.77 349.74 568.41"/><path class="cls-1" d="M398.22,528.7l-50.48,20.55,2,19.16,79.39-9.15s-20-5-25.55-26.11Z"/><polygon class="cls-1" points="348.63 557.77 325.68 530.71 324.38 521.44 347.74 549.25 348.63 557.77"/><polygon class="cls-1" points="324.38 521.44 368.28 504.67 398.22 528.7 347.74 549.25 324.38 521.44"/><line class="cls-2" x1="375.01" y1="510.07" x2="329.99" y2="528.12"/><polygon class="cls-1" points="325.68 530.71 124.7 562.97 99.28 589.98 348.63 557.77 325.68 530.71"/><line class="cls-2" x1="270.25" y1="539.61" x2="283.53" y2="566.18"/><polyline class="cls-2" points="272.96 545.02 163.82 562.97 160.33 582.1"/><line class="cls-2" x1="185.2" y1="553.26" x2="185.64" y2="559.38"/><line class="cls-2" x1="156.97" y1="557.79" x2="152.1" y2="583.16"/><line class="cls-2" x1="124.7" y1="562.97" x2="155.98" y2="562.97"/><line class="cls-2" x1="106.57" y1="589.04" x2="153.27" y2="577.07"/><line class="cls-2" x1="219.97" y1="553.74" x2="222.18" y2="574.11"/><polyline class="cls-2" points="328.19 533.68 280.63 542.95 288.54 557.25 343.82 552.1"/><polygon class="cls-1" points="369.3 512.37 368.51 507.18 361.3 502.39 361.84 507.13 369.3 512.37"/><polygon class="cls-1" points="352.5 519.1 351.71 513.91 344.75 508.71 345.28 513.45 352.5 519.1"/><polygon class="cls-1" points="336.8 525.39 336 520.2 329.72 514.36 330.26 519.1 336.8 525.39"/><path class="cls-1" d="M75.21,566.4c0,13.13,12.36,23.78,27.6,23.78,13.59,0,24.9-8.49,27.17-19.65l6.33-31.13a15.21,15.21,0,0,0,.29-2.95c0-9.38-8.81-17-19.69-17a20.67,20.67,0,0,0-16.28,7.43L80,553A21.51,21.51,0,0,0,75.21,566.4Z"/><ellipse class="cls-1" cx="102.81" cy="566.39" rx="27.59" ry="23.79"/><ellipse class="cls-1" cx="101.11" cy="569.98" rx="27.59" ry="23.79"/><path class="cls-1" d="M72.88,607.8c0,5,4.66,9,10.42,9a10.51,10.51,0,0,0,9.7-5.71l17.28-38A7.41,7.41,0,0,0,111,570c0-4.69-4.41-8.48-9.83-8.48A10,10,0,0,0,92,566.7L73.7,604.32A7.75,7.75,0,0,0,72.88,607.8Z"/><ellipse class="cls-1" cx="83.3" cy="607.8" rx="10.42" ry="8.98"/><path class="cls-1" d="M48.29,657.19c0,5.58,5.25,10.12,11.73,10.12,5.18,0,9.56-2.88,11.13-6.88L90.86,610a6,6,0,0,0,.41-2.19c0-3.81-3.57-6.89-8-6.89a8.15,8.15,0,0,0-7.2,3.92l-26.67,48A8.91,8.91,0,0,0,48.29,657.19Z"/><path class="cls-1" d="M36.29,657.19c0,.26,0,.5,0,.75l.14,3.6c.42,10.09,10.05,18.16,21.86,18.16a23.79,23.79,0,0,0,15.11-5.22l3-2.5a19.16,19.16,0,0,0,7.33-14.79c0-11.3-10.62-20.47-23.74-20.47S36.29,645.89,36.29,657.19Z"/><ellipse class="cls-1" cx="58.3" cy="660.85" rx="21.87" ry="18.85"/><polygon class="cls-1" points="32.07 637.9 32.84 642.35 53.76 640.19 53.14 635.12 32.07 637.9"/><path class="cls-1" d="M53.14,635.12l.62,5.07c7.59,2.51,22.32,39.08,18.5,65.42l1.46,3.7C78.58,677.18,60.79,637.13,53.14,635.12Z"/><path class="cls-1" d="M52,709.31l20.3-3.7c3.82-26.34-10.91-62.91-18.5-65.42l-20.92,2.16C42.92,647.14,56.2,684.83,52,709.31Z"/><polygon class="cls-1" points="51.96 709.31 52.72 713.12 73.72 709.31 72.26 705.61 51.96 709.31"/><path class="cls-1" d="M30,710c0,2.45,2.29,4.43,5.13,4.43a5.18,5.18,0,0,0,4.75-2.77l20.37-43.51a3.85,3.85,0,0,0,.35-1.61c0-2.38-2.23-4.32-5-4.32A5.07,5.07,0,0,0,51,664.93l-20.6,43.43A3.79,3.79,0,0,0,30,710Z"/><ellipse class="cls-1" cx="35.13" cy="710.04" rx="5.13" ry="4.42"/><ellipse class="cls-1" cx="769.53" cy="366.54" rx="8.06" ry="11.11"/><path class="cls-1" d="M766.3,366.54c0,11.14,6.55,20.17,14.63,20.17h.25l69.39-1.62h.24c8-.17,14.39-9.14,14.39-20.16s-6.56-20.17-14.63-20.17h-.26l-69.38,1.61h-.24C772.72,346.56,766.3,355.52,766.3,366.54Z"/><path class="cls-1" d="M850.4,344.76c-8,.12-14.46,9.11-14.46,20.17s6.55,20.17,14.63,20.17h.17c8-.13,14.46-9.11,14.46-20.17s-6.55-20.17-14.63-20.17Z"/><path class="cls-1" d="M842,365.06c0,11.15,6.55,20.18,14.62,20.18h.17l8.46-.15h.16c8-.12,14.46-9.09,14.46-20.16s-6.55-20.17-14.62-20.17H865l-8.45.13h-.16C848.4,345,842,354,842,365.06Z"/><path class="cls-1" d="M865,344.76c-8,.12-14.46,9.11-14.46,20.17s6.55,20.17,14.63,20.17h.17c8-.13,14.45-9.11,14.45-20.17s-6.54-20.17-14.62-20.17Z"/><path class="cls-1" d="M860,364.93c0,4,2.34,7.23,5.24,7.23h0l90.89-1.44h.05c2.87,0,5.18-3.27,5.18-7.23s-2.34-7.22-5.23-7.22h-.07l-90.87,1.44h-.07C862.27,357.75,860,361,860,364.93Z"/><path class="cls-1" d="M956.07,356.27c-2.86,0-5.17,3.26-5.17,7.22s2.34,7.23,5.24,7.23h.06c2.86-.05,5.17-3.27,5.17-7.23s-2.34-7.22-5.23-7.22Z"/><path class="cls-1" d="M952.51,363.49c0,2.76,1.62,5,3.63,5h0L1065,366.76h0c2,0,3.58-2.24,3.58-5s-1.62-5-3.61-5h0l-108.83,1.73h0C954.11,358.54,952.51,360.76,952.51,363.49Z"/><ellipse class="cls-1" cx="1065.01" cy="361.77" rx="10.87" ry="15"/><ellipse class="cls-1" cx="1071.69" cy="361.67" rx="10.03" ry="13.83"/><path class="cls-1" d="M1070.63,361.71c0,1.28.75,2.32,1.67,2.32h0l5.73-.09h0c.91,0,1.65-1,1.65-2.3s-.74-2.32-1.67-2.32h0l-5.73.1h0C1071.36,359.43,1070.63,360.45,1070.63,361.71Z"/><polygon class="cls-1" points="1089.48 337.21 1091.15 340.54 1100.6 334.84 1099.15 331.57 1089.48 337.21"/><path class="cls-1" d="M1074.77,361.78c0,17.36,14.71,26.92,21.53,27.91V386.5c-28.35-10.82-17.29-42.68-5.15-46l-1.67-3.33A27.58,27.58,0,0,0,1074.77,361.78Z"/><polygon class="cls-1" points="1096.3 386.5 1096.3 389.69 1104.99 384.75 1104.99 381.77 1096.3 386.5"/><path class="cls-1" d="M1096.3,386.5l8.69-4.73c-28.3-10.55-19.45-36.83-13.84-41.23C1079,343.82,1068,375.68,1096.3,386.5Z"/><path class="cls-1" d="M1081.72,361.44c0,1.28.74,2.31,1.66,2.31h0l84.92-1.3h0c.92,0,1.66-1,1.66-2.31s-.75-2.3-1.68-2.3h0l-84.93,1.3h0C1082.45,359.15,1081.72,360.18,1081.72,361.44Z"/><ellipse class="cls-1" cx="1168.33" cy="360.14" rx="1.67" ry="2.31"/></svg>
