<svg id="Layer_2" data-name="Layer 2" xmlns="http://www.w3.org/2000/svg" viewBox="0 0 1200 1500"><defs><style>.cls-1{fill:#0a0a0a;}.cls-1,.cls-2{stroke:#fefefe;stroke-linecap:round;stroke-linejoin:round;stroke-width:2px;}.cls-2{fill:none;}</style></defs><title>Artboard 1 copy 7</title><polygon class="cls-1" points="969.83 214.97 1017.86 683.02 976.91 1184.14 783.97 1171.54 749.32 718.72 780.3 311.57 969.83 214.97"/><polygon class="cls-1" points="976.65 197.73 969.83 214.97 1017.86 683.02 1030.38 683.02 976.65 197.73"/><polygon class="cls-1" points="1030.38 683.02 986.28 1199.63 976.91 1184.14 1017.86 683.02 1030.38 683.02"/><polygon class="cls-1" points="986.28 1199.63 780.65 1184.14 783.97 1171.54 976.91 1184.14 986.28 1199.63"/><polygon class="cls-1" points="780.65 1184.14 743.37 718.02 749.32 717.67 783.97 1171.54 780.65 1184.14"/><polygon class="cls-1" points="743.37 718.02 776.97 300.29 780.3 311.57 749.32 717.67 743.37 718.02"/><polygon class="cls-1" points="976.65 197.73 776.97 300.29 780.3 311.57 969.83 214.97 976.65 197.73"/><polygon class="cls-1" points="1030.38 683.02 986.28 1199.63 990.08 1199.63 1034.18 683.02 980.45 197.73 976.65 197.73 1030.38 683.02"/><polygon class="cls-1" points="1039.47 683.02 995.37 1199.63 999.18 1199.63 1043.29 683.02 989.56 197.73 985.75 197.73 1039.47 683.02"/><polygon class="cls-1" points="995.37 1199.63 990.08 1199.63 1034.18 683.02 980.45 197.73 985.75 197.73 1039.47 683.02 995.37 1199.63"/><polygon class="cls-1" points="1016.25 667.28 914.52 688.44 898.25 621.24 972.12 237.32 969.83 214.97 963.8 218.04 883.59 608.12 857.65 615.29 785.86 308.74 780.3 311.57 779.02 328.31 844 642.24 825.45 726.93 844.7 804.3 782.2 1148.36 783.97 1171.54 790.02 1171.94 859.05 827.05 883.59 823.55 968.35 1183.58 976.91 1184.14 979.39 1153.8 900.17 802.72 915.05 728.17 1016.16 703.84 1017.86 683.02 1016.25 667.28"/><polygon class="cls-1" points="855.04 651.58 883.88 645.82 903.15 707.43 885.57 786.87 856.39 791.4 834.78 726.93 855.04 651.58"/><polygon class="cls-1" points="785.86 308.74 791.49 309.26 863.01 613.81 857.65 615.29 785.86 308.74"/><polygon class="cls-1" points="963.8 218.04 963.01 221.85 791.49 309.26 785.86 308.74 963.8 218.04"/><polygon class="cls-1" points="898.25 621.24 904.46 621.24 974.21 257.66 972.12 237.32 898.25 621.24"/><polygon class="cls-1" points="898.25 621.24 904.46 621.24 920.06 687.29 914.52 688.44 898.25 621.24"/><polygon class="cls-1" points="900.17 802.72 905.64 802.72 920.53 729.67 915.05 728.17 900.17 802.72"/><polygon class="cls-1" points="900.17 802.72 905.64 802.72 980.32 1142.45 979.39 1153.8 900.17 802.72"/><polygon class="cls-1" points="864.16 826.32 794.06 1172.2 790.02 1171.94 859.05 827.05 864.16 826.32"/><polygon class="cls-1" points="1016.16 703.84 1015.91 706.91 920.53 729.67 915.05 728.17 1016.16 703.84"/><polyline class="cls-1" points="914.52 688.44 903.15 707.43 1017.86 683.02"/><line class="cls-1" x1="915.05" y1="728.17" x2="903.15" y2="707.43"/><polyline class="cls-1" points="898.25 621.24 883.88 645.82 969.83 214.97"/><line class="cls-1" x1="883.59" y1="608.12" x2="883.88" y2="645.82"/><polyline class="cls-1" points="857.65 615.29 855.04 651.58 780.3 311.57"/><line class="cls-1" x1="844" y1="642.24" x2="855.04" y2="651.58"/><polyline class="cls-1" points="859.05 827.05 856.39 791.4 783.97 1171.54"/><line class="cls-1" x1="844.7" y1="804.3" x2="856.39" y2="791.4"/><polyline class="cls-1" points="900.17 802.72 885.57 786.87 976.91 1184.14"/><line class="cls-1" x1="883.59" y1="823.55" x2="885.57" y2="786.87"/><rect class="cls-1" x="765.77" y="687.29" width="94.58" height="54.76" transform="translate(1626.12 1429.35) rotate(-180)"/><polygon class="cls-1" points="822.06 687.29 845.92 684.03 847.5 690.89 824.87 690.89 822.06 687.29"/><polygon class="cls-1" points="719.36 757.06 716.25 776.3 675.06 787.16 688.57 763.84 719.36 757.06"/><polygon class="cls-1" points="719.36 774.09 790.8 758.45 796.75 742.05 739.54 742.06 734.27 753.77 722.51 756.37 719.36 774.09"/><polygon class="cls-1" points="719.13 652.56 789.99 671.82 796.75 687.29 740.98 686.87 734.27 671.12 721.05 667.07 719.13 652.56"/><path class="cls-1" d="M765.77,680.45h16s9.06,7.91,9.06,31.62-9.06,37.1-9.06,37.1h-16Z"/><path class="cls-1" d="M765.77,686.87v-6.42s10.46,7.38,10.46,31.62-10.46,37.1-10.46,37.1v-62.3Z"/><polygon class="cls-1" points="846.8 742.06 823.11 740.37 819.67 743.59 845.92 749.17 846.8 742.06"/><path class="cls-1" d="M739.54,742.06h26.23s7.69-10.17,7.69-30-7.69-25.2-7.69-25.2H741Z"/><polygon class="cls-1" points="689.73 657.48 734.27 671.12 745.1 696.53 772.77 703.3 774.7 712.07 772.42 723.97 746.35 726.93 734.27 753.77 688.57 763.84 689.73 657.48"/><polyline class="cls-2" points="689.67 663.32 730.77 675.91 742.46 699.98 773.46 706.43"/><line class="cls-2" x1="774.7" y1="712.07" x2="689.18" y2="708.22"/><polyline class="cls-2" points="772.98 721.03 742.46 723.11 730.77 747.8 688.66 756.21"/><line class="cls-1" x1="738.89" y1="692.62" x2="689.47" y2="681.97"/><line class="cls-1" x1="739.89" y1="728.53" x2="688.89" y2="734.49"/><line class="cls-1" x1="790.4" y1="703.84" x2="812.15" y2="703.84"/><line class="cls-1" x1="789.99" y1="724.05" x2="812.15" y2="724.05"/><polygon class="cls-1" points="814.05 745.25 862.9 760.72 877.6 734.49 864.3 734.49 845.92 749.17 819.67 743.59 814.05 745.25"/><polygon class="cls-1" points="877.6 693.69 862.37 674.79 814.22 684.03 822.06 687.29 845.92 684.03 864.3 693.69 877.6 693.69"/><path class="cls-1" d="M796.75,742.05c0,1.28,2.84,3.2,6.46,3.2h10.85c6.4,0,15.24-6,15.24-32.13,0-23.49-8.69-29.09-15.08-29.09H803.38c-3.71,0-6.63,1.89-6.63,3.26,0,0,6.92-.81,10.85,8.44,1.54,3.66,2.62,8.88,2.62,16.34a50.75,50.75,0,0,1-2.62,17.33C803.68,740.17,796.75,742.05,796.75,742.05Z"/><path class="cls-1" d="M803.38,684c-3.71,0-6.63,1.88-6.63,3.26,0,0,13.48-1.56,13.48,24.77s-13.48,30-13.48,30c0,1.28,2.84,3.2,6.46,3.2,6.4,0,16.29-6,16.29-32.14C819.5,689.63,809.76,684,803.38,684Z"/><rect class="cls-1" x="800.25" y="706.43" width="83.35" height="14.6" transform="translate(1683.84 1427.47) rotate(-180)"/><rect class="cls-1" x="813.02" y="712.2" width="72.28" height="3.07" transform="translate(1698.32 1427.47) rotate(-180)"/><polygon class="cls-1" points="845.92 684.03 864.3 693.69 864.3 706.43 858 706.43 847.5 690.89 845.92 684.03"/><polygon class="cls-1" points="864.3 721.03 864.3 734.49 845.92 749.17 846.8 742.06 859.22 721.03 864.3 721.03"/><rect class="cls-1" x="864.3" y="693.69" width="13.3" height="40.8"/><polygon class="cls-1" points="679.71 638.3 715.89 649.59 718.18 666.19 689.73 657.48 679.71 638.3"/><polygon class="cls-1" points="714.39 665.03 714.18 653.3 707.67 651.76 703.84 661.79 714.39 665.03"/><polygon class="cls-1" points="721.05 667.07 724.03 657.48 727.1 658.4 727.62 669.08 721.05 667.07"/><polygon class="cls-1" points="727.62 669.08 737.51 661.67 739.54 663.77 734.27 671.12 727.62 669.08"/><polygon class="cls-1" points="734.27 753.77 739.89 762.65 737.08 764.4 728.44 755.06 734.27 753.77"/><polygon class="cls-1" points="728.44 755.06 727.62 767.2 724.33 767.2 722.51 756.37 728.44 755.06"/><polygon class="cls-1" points="715.35 757.94 714.39 770.87 709.12 772.11 705.01 760.22 715.35 757.94"/><polygon class="cls-1" points="777.67 749.17 776.23 755.06 772.95 755.06 772.05 749.17 777.67 749.17"/><polygon class="cls-1" points="776.75 680.45 775.57 673.96 772.82 673.96 771.5 680.45 776.75 680.45"/><polygon class="cls-1" points="584.88 844.11 583.83 848.4 556.64 848.4 554.63 844.35 584.88 844.11"/><polygon class="cls-1" points="578.38 573.71 578.38 570.93 565.83 570.93 565.83 573.29 578.38 573.71"/><path class="cls-1" d="M490.84,600.77a132.84,132.84,0,1,1-55.16,125.77A132.84,132.84,0,0,1,490.84,600.77Z"/><path class="cls-1" d="M520.63,720.42H501.25l-9.53-13.29h-5.25l-3.33,11.55h-7.87c-8.23,0-2-12.08-2-18.25s-6.21-18.24,2-18.24h7.87l3.33,11.55h5.25l9.53-13.29h19.54"/><path class="cls-1" d="M677.42,724.05l11.26-.41,4.73-13.12h2.16v13.12l5.12-2.95c2.63-1.45.33-7.88.33-15.69,0-5.31,3.41-14-.52-15.09l-4.93-1.71v10.27h-2.16l-4.73-12.75-10.19-5.27"/><ellipse class="cls-2" cx="600.63" cy="700.47" rx="72.9" ry="69.98" transform="translate(-122.06 1274.18) rotate(-87.83)"/><ellipse class="cls-2" cx="600.63" cy="700.47" rx="72.9" ry="69.98" transform="translate(-122.06 1274.18) rotate(-87.83)"/><ellipse class="cls-2" cx="600.63" cy="700.47" rx="72.9" ry="69.98" transform="matrix(0.04, -1, 1, 0.04, -122.06, 1274.18)"/><polygon class="cls-2" points="628.55 675.42 638.21 698.18 628.95 721.12 606.18 730.78 583.25 721.52 573.58 698.75 582.85 675.82 605.62 666.15 628.55 675.42"/><polygon class="cls-2" points="632.24 671.66 643.48 698.14 632.71 724.81 606.23 736.05 579.55 725.27 568.31 698.79 579.09 672.12 605.57 660.88 632.24 671.66"/><polyline class="cls-2" points="605.62 666.15 605.57 660.88 602.18 627.6"/><polyline class="cls-2" points="628.55 675.42 632.24 671.66 650.36 649.02"/><polyline class="cls-2" points="638.21 698.18 643.48 698.14 670.62 699.95"/><polyline class="cls-2" points="628.95 721.12 632.71 724.81 650.97 750.95"/><polyline class="cls-2" points="606.18 730.78 606.23 736.05 602.19 773.35"/><polyline class="cls-2" points="583.25 721.52 579.55 725.27 550 750.95"/><polyline class="cls-2" points="573.58 698.75 568.31 698.79 530.65 699.95"/><polyline class="cls-2" points="582.85 675.82 579.09 672.12 551.22 649.02"/><polygon class="cls-2" points="626.73 638.3 577.82 638.3 598.55 649.59 598.55 646.87 609.49 646.87 609.49 649.59 626.73 638.3"/><ellipse class="cls-2" cx="599.56" cy="700.43" rx="85.57" ry="81.07" transform="translate(-123.05 1273.07) rotate(-87.83)"/><line class="cls-2" x1="605.62" y1="615.09" x2="607.57" y2="627.92"/><line class="cls-2" x1="596.46" y1="627.72" x2="594.9" y2="615.03"/><line class="cls-2" x1="555.21" y1="645.17" x2="544.89" y2="637.49"/><line class="cls-2" x1="547.98" y1="652.63" x2="538.93" y2="643.88"/><line class="cls-2" x1="530.85" y1="695.16" x2="518.64" y2="695.39"/><line class="cls-2" x1="518.52" y1="703.54" x2="530.72" y2="704.15"/><line class="cls-2" x1="547.04" y1="747.53" x2="537.39" y2="755.63"/><line class="cls-2" x1="553.38" y1="754.4" x2="543.77" y2="762.76"/><line class="cls-2" x1="606.23" y1="773.12" x2="604.6" y2="785.82"/><line class="cls-2" x1="597.11" y1="773.29" x2="595.58" y2="785.91"/><line class="cls-2" x1="653.72" y1="747.8" x2="660.83" y2="756.21"/><line class="cls-2" x1="648.22" y1="753.77" x2="655.51" y2="762.11"/><line class="cls-2" x1="670.52" y1="704.2" x2="680.53" y2="704.55"/><line class="cls-2" x1="670.52" y1="696.21" x2="680.59" y2="696.85"/><line class="cls-2" x1="652.84" y1="651.76" x2="659.97" y2="643.1"/><line class="cls-2" x1="646.99" y1="645.71" x2="654.48" y2="637.25"/><line class="cls-2" x1="473.25" y1="700.47" x2="495.22" y2="700.47"/><polyline class="cls-2" points="518.84 708.93 503.67 708.93 495.22 700.47 503.67 692.02 518.84 692.02"/><polyline class="cls-2" points="680.12 690.3 686.32 693.69 689.73 703.84 685.97 714.52 679.37 715.23"/><line class="cls-2" x1="689.73" y1="703.84" x2="701.04" y2="704.27"/><path class="cls-1" d="M585,592.78l1.71,15.69h21.5l-1-15.2C600.27,593.05,592.75,592.88,585,592.78Z"/><path class="cls-1" d="M607.24,593.27l.14,3.15c11.15.34,20.9.79,28,1.25l7.34,4.37,3.8.59.6-2.1-3.22-.66-8.58-5.35C628.21,594.06,618.48,593.61,607.24,593.27Z"/><path class="cls-1" d="M490.84,597.62v3.15c7-1.7,17.23-2.89,29.25-3.66l1.9-3.27C509.15,594.62,498.16,595.82,490.84,597.62Z"/><path class="cls-1" d="M530.59,598.49v2.56l3.34-4.65c15.53-.59,32.71-.69,48.92-.49l3.84,12.56-1.47-12.53-.24-3.16c-16.82-.22-34.84-.15-51.05.47Z"/><path class="cls-1" d="M522,593.84l-3.09,5.3,11.69-.65,3.34-5.24c16.21-.62,34.23-.69,51.05-.47,7.77.1,15.29.27,22.26.49,11.24.34,21,.79,28.1,1.25l8.58,5.35,3.22.66-6.58-5.63c-13.37-10.58-43.54-21.61-72-21.61-27.63,0-55.65,8.58-77.7,24.33C498.16,595.82,509.15,594.62,522,593.84Z"/><polygon class="cls-1" points="518.9 599.14 518.9 601.71 530.59 601.05 530.59 598.49 518.9 599.14"/><path class="cls-2" d="M621.35,596.93c.79,5.76,1.09,21.3,1.09,21.3"/><path class="cls-2" d="M620.09,617.55a33.82,33.82,0,0,0-5.83-12l-6.07-3"/><polyline class="cls-2" points="584.62 601.71 579.09 604.66 578.38 617.91"/><path class="cls-2" d="M575.45,618.82s-11.39-18.05-16.81-23"/><path class="cls-2" d="M674.24,630.31c-2.24,9.17-10.82,17.12-10.82,17.12"/><path class="cls-2" d="M695.14,672.81c-3.92,1.94-17.13,5.59-17.13,5.59"/><path class="cls-2" d="M676.57,726.93c5.59,3,16.49,11.19,19.62,15.13"/><path class="cls-2" d="M537.37,645.81c-8.26-5.92-45.83-27.57-70-23.88"/><path class="cls-2" d="M522.41,674.39c-17.32-5.13-66.12-11.59-81.94-4.24"/><path class="cls-2" d="M521.29,723.17c-20.46,6.21-60.73,19.48-81.84,21.91"/><path class="cls-2" d="M535.56,753.24c-12.63,9-53.6,36.81-72,39"/><path class="cls-2" d="M662.13,754.58c4.5,6.14,13.35,24,12.93,32.58"/><path class="cls-2" d="M647.57,769.18s-5,27.64-7.61,32.62c-4.44,2.76-22.55,8.27-26.62,9.19a174.22,174.22,0,0,0,.93-26.46"/><path class="cls-2" d="M583.74,784.43c-2.55,6.87-13.32,25.38-13.32,25.38s-16.53-4.86-21.13-7.48c-.65-6.43.5-29.27,1.24-33.54"/><path class="cls-2" d="M575.37,787.58l-20.74-10.15s.5,21.87,8,25.12C572.2,806.72,575.37,787.58,575.37,787.58Z"/><path class="cls-2" d="M640,779.68l-20.12,7.85s-2.18,18.72,8,15.16S640,779.68,640,779.68Z"/><path class="cls-2" d="M621.9,584.43c4,2.91,7.59,5.4,7.59,5.4-13-2-79.94-5-90.7-3.68a22.51,22.51,0,0,0-6.4-8"/><path class="cls-2" d="M561.61,573.47a35,35,0,0,1,13,12.95"/><path class="cls-2" d="M594.9,576.12a41.59,41.59,0,0,1,9.68,11.7"/><path class="cls-1" d="M488.18,816v3.21s31.54,25.9,80.54,25.9,77.91-25.9,77.91-25.9V816s-32.24-3.44-72.31-3.44S488.18,816,488.18,816Z"/><path class="cls-2" d="M646.63,819.17s-32.24-3.43-72.31-3.43-86.14,3.43-86.14,3.43"/><polyline class="cls-2" points="604.6 813.14 609.12 788.33 589.46 787.89 580.01 812.54"/><line class="cls-2" x1="621.58" y1="808.65" x2="621.87" y2="814.01"/><line class="cls-2" x1="561.17" y1="806.92" x2="557.69" y2="812.7"/><polygon class="cls-1" points="565 848.4 572.79 840.65 572.79 837.11 565 845.02 565 848.4"/><rect class="cls-1" x="572.79" y="837.11" width="10.96" height="3.54"/><polygon class="cls-1" points="583.74 840.65 576.99 848.4 565 848.4 572.79 840.65 583.74 840.65"/><path class="cls-2" d="M548.22,843.55s13.67-12.08,19.19-22.32l40.55.65s-3.75,13.26-9,19.78"/><path class="cls-2" d="M587.62,821.56s-4.68,9.77-9.36,15.55"/><polygon class="cls-1" points="411.35 745.08 402.29 732.72 402.29 677.24 411.35 662.02 411.35 745.08"/><path class="cls-1" d="M369.56,732.72h32.73a59.25,59.25,0,0,0,9.06-31.28c0-18.33-9.06-24.2-9.06-24.2H369.56Z"/><polygon class="cls-1" points="469.93 747.78 461.62 734.86 469.4 700.47 461.62 673.13 469.4 658.87 459.62 658.87 459.62 650.86 411.35 662.02 405.7 685.84 375.34 691.16 375.34 712.55 405.7 718.59 411.35 745.08 459.62 759.01 459.62 749.59 469.93 747.78"/><polygon class="cls-1" points="454.75 667.73 454.75 663.24 464.5 655.11 464.5 658.87 454.75 667.73"/><polygon class="cls-1" points="454.75 667.73 459.85 667.76 469.4 658.87 464.5 658.87 454.75 667.73"/><polygon class="cls-1" points="469.4 658.87 469.4 653.71 464.5 655.11 464.5 658.87 469.4 658.87"/><polygon class="cls-1" points="454.75 741.27 454.75 745.93 464.76 753.24 464.76 747.78 454.75 741.27"/><polygon class="cls-1" points="464.76 747.78 469.93 747.78 469.93 754.42 464.76 753.24 464.76 747.78"/><polygon class="cls-1" points="454.75 741.27 459.75 741.15 469.93 747.78 464.76 747.78 454.75 741.27"/><polyline class="cls-2" points="459.62 655.72 416.75 666.5 411.35 689.84 375.91 696.14"/><polyline class="cls-2" points="375.91 706.99 411.35 713.73 416.75 740.42 459.62 753.2"/><polyline class="cls-2" points="459.85 667.76 454.75 679.87 459.62 700.43 453.69 731.85 459.75 741.15"/><line class="cls-2" x1="375.91" y1="701.44" x2="459.62" y2="700.43"/><line class="cls-2" x1="454.74" y1="679.87" x2="412.73" y2="683.85"/><line class="cls-2" x1="453.69" y1="731.84" x2="413.01" y2="721.96"/><polygon class="cls-1" points="402.29 677.24 336.84 676.9 336.84 659.79 420.1 641.25 418.3 660.39 411.35 662.02 402.29 677.24"/><polygon class="cls-1" points="336.84 732.14 336.84 747.53 420.1 770.17 418.29 747.08 411.35 745.08 402.29 732.72 336.84 732.14"/><path class="cls-1" d="M358.06,701.44c0,27.21-6.35,39.83-6.35,39.83h17.85s6.35-12.62,6.35-39.83-6.35-33.68-6.35-33.68H351.71S358.06,674.23,358.06,701.44Z"/><path class="cls-1" d="M351.71,667.76v73.51s6.35-12.62,6.35-39.83S351.71,667.76,351.71,667.76Z"/><path class="cls-1" d="M336.84,676.9v55.24h14.87s3.77-9.48,3.77-29.94-3.77-25.3-3.77-25.3Z"/><polygon class="cls-1" points="454.75 651.99 463.58 631.57 422.92 640.62 421.11 659.76 454.75 651.99"/><polygon class="cls-1" points="439.24 655.57 432.83 643.12 426.44 644.69 426.75 658.46 439.24 655.57"/><polygon class="cls-1" points="418.3 660.39 412.73 648.63 410.31 649.23 411.35 662.02 418.3 660.39"/><polygon class="cls-1" points="411.35 662.02 398.26 652.04 396.34 654.14 408.14 667.4 411.35 662.02"/><polygon class="cls-1" points="364.57 667.76 363.18 660.71 359.5 660.71 358.06 667.76 364.57 667.76"/><polygon class="cls-1" points="358.06 741.27 359.46 748.33 363.14 748.33 364.57 741.27 358.06 741.27"/><polygon class="cls-1" points="463.58 782 422.92 770.94 421.11 747.9 453.69 757.3 463.58 782"/><polygon class="cls-2" points="426.22 749.37 426.22 764.95 431.95 766.76 438.3 752.86 426.22 749.37"/><polygon class="cls-2" points="411.35 745.08 409.9 759.58 412.26 760.28 418.29 747.08 411.35 745.08"/><polygon class="cls-1" points="411.35 745.08 397.43 757.18 395.27 754.49 407.7 740.11 411.35 745.08"/><line class="cls-2" x1="355.04" y1="691.16" x2="336.84" y2="691.16"/><line class="cls-2" x1="355.04" y1="712.55" x2="336.84" y2="712.55"/><polygon class="cls-1" points="297.42 170.61 178.37 277.71 161.05 730.4 174.17 1175.09 291.51 1190.31 323.14 664.23 297.42 170.61"/><polygon class="cls-1" points="306.84 1205.93 340.74 664.23 312.35 153.02 318.55 153.02 345.94 664.23 313.04 1205.93 306.84 1205.93"/><polygon class="cls-1" points="294.14 1205.93 327.04 664.23 299.65 153.02 305.85 153.02 332.24 664.23 300.34 1205.93 294.14 1205.93"/><polygon class="cls-1" points="299.65 153.02 176.27 267.21 178.37 277.71 297.42 170.61 299.65 153.02"/><polygon class="cls-1" points="299.65 153.02 297.42 170.61 323.14 664.23 327.04 664.23 299.65 153.02"/><polygon class="cls-1" points="327.04 664.23 294.14 1205.93 291.51 1190.31 323.14 664.23 327.04 664.23"/><polygon class="cls-1" points="294.14 1205.93 171.41 1189.13 174.17 1175.09 291.51 1190.31 294.14 1205.93"/><polygon class="cls-1" points="174.17 1175.09 161.05 730.4 178.37 277.71 176.27 267.21 156.71 731.32 171.41 1189.13 174.17 1175.09"/><polygon class="cls-1" points="312.35 153.02 305.85 153.02 332.24 664.23 300.34 1205.93 306.84 1205.93 340.74 664.23 312.35 153.02"/><polygon class="cls-1" points="205.15 692.48 210.04 620.11 225.26 593.1 232.91 589.78 250.36 604.01 258.26 672.46 258.26 710.28 246.81 790.65 232.04 813.2 222.08 814.81 209.32 788.02 205.15 726.42 205.15 692.48"/><polygon class="cls-1" points="157.4 715.05 209.61 690.37 209.61 729.22 157.23 747.24 156.71 731.32 157.4 715.05"/><path class="cls-1" d="M203.73,698.58c.88,34.24,8.14,61.83,16.23,61.62l11.43-.3c8.09-.2,13.93-28.13,13.05-62.37s-8.14-61.81-16.23-61.6l-11.43.29C208.69,636.43,202.85,664.34,203.73,698.58Z"/><ellipse class="cls-1" cx="218.36" cy="698.21" rx="14.65" ry="62.01" transform="translate(-17.87 5.84) rotate(-1.47)"/><path class="cls-1" d="M203,698.6c.56,21.79,5.18,39.35,10.32,39.22l6-.16c5.14-.13,8.86-17.91,8.3-39.7s-5.19-39.34-10.32-39.2l-6.05.15C206.17,659,202.46,676.81,203,698.6Z"/><ellipse class="cls-1" cx="212.33" cy="698.36" rx="9.32" ry="39.46" transform="translate(-17.88 5.69) rotate(-1.47)"/><ellipse class="cls-1" cx="206.79" cy="698.5" rx="3.78" ry="16.01" transform="translate(-17.88 5.55) rotate(-1.47)"/><polygon class="cls-1" points="322.23 646.75 258.26 672.46 258.26 710.28 321.84 685.93 323.14 664.23 322.23 646.75"/><polygon class="cls-1" points="292.81 174.76 232.91 589.78 250.36 604.01 298.76 196.34 297.42 170.61 292.81 174.76"/><polygon class="cls-1" points="181.98 274.46 225.26 593.1 210.04 620.11 177.51 300.3 178.37 277.71 181.98 274.46"/><polygon class="cls-1" points="291.36 184.8 188.87 274.46 181.98 274.46 292.81 174.76 291.36 184.8"/><polygon class="cls-1" points="188.87 274.46 230.57 590.8 225.26 593.1 181.98 274.46 188.87 274.46"/><polygon class="cls-1" points="250.36 604.01 255.81 604.01 300.65 232.72 298.76 196.34 250.36 604.01"/><polygon class="cls-1" points="255.81 604.01 264 670.16 258.26 672.46 250.36 604.01 255.81 604.01"/><polygon class="cls-1" points="180.41 335.3 165.82 711.07 161.71 713.01 177.36 304.24 180.41 335.3"/><polygon class="cls-1" points="287.68 1189.81 232.04 813.2 246.81 790.65 295.73 1120.08 291.51 1190.31 287.68 1189.81"/><polygon class="cls-1" points="222.08 814.81 209.32 788.02 172.72 1125.88 174.17 1175.09 178.37 1175.63 222.08 814.81"/><polygon class="cls-1" points="264.74 710.28 253.1 790.65 246.81 790.65 258.26 710.28 264.74 710.28"/><polygon class="cls-1" points="253.1 790.65 296.8 1102.33 295.73 1120.08 246.81 790.65 253.1 790.65"/><polygon class="cls-1" points="258.26 710.28 264.74 710.28 321.68 688.6 321.84 685.93 258.26 710.28"/><polygon class="cls-1" points="228.34 813.8 181.43 1176.03 178.37 1175.63 222.08 814.81 228.34 813.8"/></svg>
