<svg id="Layer_2" data-name="Layer 2" xmlns="http://www.w3.org/2000/svg" viewBox="0 0 1200 1500"><defs><style>.cls-1{fill:#0a0a0a;}.cls-1,.cls-2{stroke:#fefefe;stroke-linejoin:round;stroke-width:2px;}.cls-2{fill:none;}</style></defs><title>Artboard 1 copy 9</title><polygon class="cls-1" points="30 1030.58 111.51 1108.31 596.22 901.58 675.57 898.34 760.31 953.39 826.16 912.37 826.16 889.7 1087.95 1026.26 1170 966.89 1170 951.78 995.65 807.12 1024.8 789.3 1024.8 729.39 946.53 688.91 1040.99 600.92 991.34 569.08 952.47 560.98 924.94 570.7 936.82 456.8 799.72 400.67 767.87 444.93 729.01 294.87 684.21 272.2 611.34 251.69 607.02 541.55 575.17 558.28 575.17 577.71 531.45 597.68 500.68 647.34 500.68 660.85 432.13 620.89 374.38 644.64 290.17 612.8 364.52 656.53 371.68 707.26 424.03 740.72 412.16 780.13 30 1030.58"/><polygon class="cls-2" points="757.91 776.43 949.05 867.57 960.93 842.38 994.39 891.22 966.69 935.58 826.16 850.57 742.93 802.05 757.91 776.43"/><polygon class="cls-2" points="364.52 656.53 371.68 707.26 424.03 740.72 493.13 762.13 675.57 898.34 760.31 953.39 760.31 888.44 364.52 656.53"/><polygon class="cls-2" points="493.13 762.13 466.14 806.31 412.16 780.13 424.03 740.72 493.13 762.13"/><polygon class="cls-2" points="466.14 806.31 596.22 901.58 675.57 898.34 493.13 762.13 466.14 806.31"/><polygon class="cls-2" points="466.14 806.31 384.09 860.55 330.83 833.43 412.16 780.13 466.14 806.31"/><polygon class="cls-2" points="376.14 856.51 230.79 937.2 200.68 918.73 330.83 833.43 376.14 856.51"/><polygon class="cls-2" points="221.57 931.54 65.08 1027.88 49.92 1017.53 200.68 918.73 221.57 931.54"/><polygon class="cls-2" points="483.33 818.9 390.03 863.79 398.48 870.27 230.79 937.2 221.57 931.54 65.08 1027.88 52.85 1019.52 33.25 1032.33 65.63 1049.74 91.07 1082.22 308.79 1001.43 295.57 988.48 470.99 915.07 490.7 930.46 583.11 891.98 483.33 818.9"/><polygon class="cls-2" points="30 1030.58 65.63 1049.74 111.51 1108.31 30 1030.58"/><polygon class="cls-2" points="583.11 891.98 435.39 841.96 483.33 818.9 583.11 891.98"/><polygon class="cls-2" points="428.69 932.77 336.45 895.03 241.89 932.77 333.62 973.31 428.69 932.77"/><polygon class="cls-2" points="262.12 1018.75 182.22 979.03 153.74 973.31 85.06 1015.58 112.86 1021.14 163.41 1055.38 262.12 1018.75"/><polygon class="cls-2" points="65.08 1027.88 88.03 1035.98 133.47 1066.49 140.73 1063.8 92.88 1031.93 70.75 1024.39 65.08 1027.88"/><polygon class="cls-2" points="44.34 1038.29 70.75 1045.44 114.28 1073.61 91.07 1082.22 65.63 1049.74 44.34 1038.29"/><polygon class="cls-2" points="826.16 850.57 760.31 888.44 760.31 953.39 826.16 912.37 826.16 850.57"/><polygon class="cls-2" points="826.16 850.57 432.13 620.89 374.38 644.64 364.52 656.53 760.31 888.44 826.16 850.57"/><polyline class="cls-2" points="615.16 853.24 615.16 802.05 683.32 767.31"/><polygon class="cls-2" points="604.32 788.4 652.18 765.37 588.85 726.87 549.62 745.94 604.32 788.4"/><polygon class="cls-2" points="559.99 695.42 541.71 705.28 522.27 695.42 497.8 705.28 462.15 685.49 512.69 667.85 559.99 695.42"/><line class="cls-2" x1="478.61" y1="757.64" x2="478.61" y2="718.59"/><line class="cls-2" x1="449.76" y1="748.7" x2="449.76" y2="699.52"/><polyline class="cls-2" points="410.09 731.81 408.56 672.89 475.58 646.22"/><polygon class="cls-1" points="290.17 612.8 519.39 699.49 641.63 818.9 290.17 612.8"/><polyline class="cls-2" points="803.14 837.08 737.29 874.95 737.29 937.38"/><polyline class="cls-2" points="742.93 878.25 760.31 921.19 742.93 942.05 742.93 878.25 808.78 840.38"/><polyline class="cls-2" points="742.93 928.03 751.5 916.51 742.93 896.36"/><polygon class="cls-2" points="816.29 865.99 770.19 892.5 770.19 937.97 816.29 909.25 816.29 865.99"/><polygon class="cls-2" points="500.68 647.34 533.53 680 500.68 660.85 500.68 647.34"/><polygon class="cls-2" points="533.53 680 582.01 602.54 531.45 597.68 500.68 647.34 533.53 680"/><polyline class="cls-2" points="533.53 680 582.01 602.54 792.7 716.97 742.93 802.05 675.57 838.79 675.57 898.34"/><polygon class="cls-2" points="780.33 738.12 568.73 623.75 541.35 667.52 752.63 785.47 780.33 738.12"/><polyline class="cls-2" points="568.73 623.75 518.2 619.07 515.3 623.75 541.35 667.52"/><line class="cls-2" x1="559.99" y1="695.42" x2="610.37" y2="617.95"/><line class="cls-2" x1="634.49" y1="738.84" x2="683.32" y2="657.57"/><line class="cls-2" x1="700.82" y1="777.51" x2="750.34" y2="693.97"/><line class="cls-2" x1="737.29" y1="798.77" x2="787.11" y2="713.94"/><polygon class="cls-2" points="966.69 935.58 1088.67 1012.23 1088.67 1026.26 826.16 889.7 826.16 850.57 966.69 935.58"/><polygon class="cls-2" points="994.39 891.22 1088.67 1012.23 966.69 935.58 994.39 891.22"/><polygon class="cls-2" points="1088.67 1012.23 1170 951.78 1170 966.89 1088.67 1026.26 1088.67 1012.23"/><polygon class="cls-2" points="1050.4 852.54 1138.05 975.52 1123.1 986.64 994.39 891.22 1050.4 852.54"/><ellipse class="cls-2" cx="807.96" cy="883.82" rx="8.04" ry="4.74" transform="translate(-181.33 1558.54) rotate(-81.86)"/><ellipse class="cls-2" cx="807.96" cy="901.98" rx="8.04" ry="4.74" transform="translate(-199.31 1574.13) rotate(-81.86)"/><ellipse class="cls-2" cx="793.24" cy="892.9" rx="8.04" ry="4.74" transform="translate(-202.96 1551.75) rotate(-81.86)"/><ellipse class="cls-2" cx="793.24" cy="911.06" rx="8.04" ry="4.74" transform="translate(-220.94 1567.34) rotate(-81.86)"/><ellipse class="cls-2" cx="778.51" cy="901.98" rx="8.04" ry="4.74" transform="translate(-224.59 1544.97) rotate(-81.86)"/><ellipse class="cls-2" cx="778.51" cy="920.14" rx="8.04" ry="4.74" transform="translate(-242.57 1560.56) rotate(-81.86)"/><polygon class="cls-2" points="1050.4 852.54 851.67 687.65 792.7 716.97 960.93 842.38 994.39 891.22 1050.4 852.54"/><polygon class="cls-2" points="1017.32 825.09 997.99 817.91 851.67 687.65 1017.32 825.09"/><polygon class="cls-2" points="997.99 817.91 960.93 842.38 868.66 773.6 879.96 756.35 905.15 741.62 916.32 745.21 997.99 817.91"/><polygon class="cls-2" points="905.15 741.62 832.79 697.03 817.56 704.61 879.96 756.35 905.15 741.62"/><polygon class="cls-1" points="611.34 251.69 667.29 277.6 729.01 294.87 684.21 272.2 611.34 251.69"/><polygon class="cls-2" points="575.17 577.71 614.93 578.61 575.17 558.28 575.17 577.71"/><polygon class="cls-2" points="582.01 602.54 619.07 587.61 851.67 687.65 792.7 716.97 582.01 602.54"/><polyline class="cls-2" points="971.58 762.13 892.26 721.33 946.53 688.91"/><line class="cls-2" x1="1024.8" y1="729.39" x2="808.78" y2="617.65"/><polygon class="cls-1" points="729.01 294.87 840.2 713.02 714.25 665.52 667.29 277.6 729.01 294.87"/><polyline class="cls-2" points="1009.22 721.33 954.31 753.25 954.31 772.81"/><polyline class="cls-2" points="950.13 769.34 950.13 751.1 1004.49 718.88"/><polygon class="cls-1" points="611.34 251.69 605.59 593.04 714.25 665.52 667.29 277.6 611.34 251.69"/><polyline class="cls-2" points="954.31 753.25 971.58 787.14 971.58 762.13 1024.8 729.39"/><line class="cls-2" x1="954.31" y1="767.04" x2="958.67" y2="776.43"/><polygon class="cls-2" points="981.76 795.59 981.76 765.55 1017.32 744.11 1017.32 780.49 986.37 799.41 981.76 795.59"/><ellipse class="cls-2" cx="1010.98" cy="758.07" rx="6.54" ry="3.85" transform="translate(117.43 1651.56) rotate(-81.86)"/><ellipse class="cls-2" cx="1010.98" cy="772.84" rx="6.54" ry="3.85" transform="translate(102.81 1664.24) rotate(-81.86)"/><ellipse class="cls-2" cx="999.54" cy="765.46" rx="6.54" ry="3.85" transform="translate(100.3 1646.57) rotate(-81.86)"/><ellipse class="cls-2" cx="999.54" cy="780.23" rx="6.54" ry="3.85" transform="translate(85.68 1659.25) rotate(-81.86)"/><ellipse class="cls-2" cx="988.1" cy="772.84" rx="6.54" ry="3.85" transform="translate(83.17 1641.59) rotate(-81.86)"/><ellipse class="cls-2" cx="988.1" cy="787.61" rx="6.54" ry="3.85" transform="translate(68.55 1654.27) rotate(-81.86)"/><polygon class="cls-2" points="936.82 456.8 914.35 672.26 815.81 621.29 768.63 443.87 799.72 400.67 936.82 456.8"/><polyline class="cls-2" points="794.22 408.31 833.72 427.12 782.31 495.31"/><polyline class="cls-2" points="785.36 506.8 808.78 517.08 817.56 578.61 808.78 594.86"/><line class="cls-2" x1="884.24" y1="656.69" x2="924.61" y2="451.81"/><polyline class="cls-2" points="641.63 818.9 507.16 713.02 290.17 612.8"/><polygon class="cls-2" points="671.88 315.5 813.21 682.97 711.92 646.22 704.46 584.63 721.45 578.61 671.88 315.5"/><polygon class="cls-2" points="704.46 584.63 623.75 584.63 711.92 646.22 704.46 584.63"/><polygon class="cls-2" points="1017.32 585.74 969.21 635.47 958.77 628.99 914.35 672.26 924 579.78 955.89 567.1 943.5 564.15 952.47 560.98 991.34 569.08 1017.32 585.74"/><polygon class="cls-2" points="1012.55 590.67 985.76 570.34 965.84 563.76 991.34 569.08 1017.32 585.74 1012.55 590.67"/><polygon class="cls-2" points="955.89 567.1 979.28 573.22 1008.5 594.86 1006.09 597.34 974.15 574.38 951.99 568.65 955.89 567.1"/><polygon class="cls-2" points="945.63 571.18 968.85 576.63 1002.03 601.54 980.61 623.68 940.69 588.78 923.74 582.22 924 579.78 945.63 571.18"/><polygon class="cls-2" points="920.3 615.22 948.29 639.2 918.44 668.28 915.1 665.08 920.3 615.22"/><line class="cls-2" x1="866.71" y1="647.62" x2="828.3" y2="668.28"/></svg>
