<svg id="Layer_2" data-name="Layer 2" xmlns="http://www.w3.org/2000/svg" viewBox="0 0 1200 1500"><defs><style>.cls-1{fill:#0a0a0a;}.cls-1,.cls-2{stroke:#fefefe;stroke-linecap:round;stroke-linejoin:round;stroke-width:2px;}.cls-2{fill:none;}</style></defs><title>Artboard 1 copy 5</title><polygon class="cls-1" points="556.19 365.43 523.57 356.92 487.13 357.48 374.4 367.94 294.1 382.99 204.73 411.71 115.24 454.93 91.81 471.35 91.81 495.6 556.19 365.43"/><path class="cls-1" d="M556.19,365.43h0c-1.13.69-37,22.78-57,48.13,0,0-96.68-3.73-137.47,42.65L91.82,495.6c52.6-41,100.11-65.73,134.25-80,82-34.25,153-41.57,208-46.84A896.39,896.39,0,0,1,556.19,365.43Z"/><path class="cls-1" d="M501.54,419.24,369.92,461.52l-8.27-5.3c40.79-46.38,137.47-42.65,137.47-42.65Z"/><ellipse class="cls-1" cx="259.5" cy="432.54" rx="29.25" ry="7.64" transform="translate(-97.04 75.74) rotate(-14.02)"/><ellipse class="cls-1" cx="322.43" cy="431.06" rx="30.81" ry="8.4" transform="translate(-73.14 65.96) rotate(-10.5)"/><ellipse class="cls-1" cx="381.38" cy="406.94" rx="27.54" ry="7.2" transform="translate(-51.46 55.23) rotate(-7.76)"/><ellipse class="cls-1" cx="446.46" cy="395.76" rx="28.21" ry="7.37" transform="matrix(1, -0.07, 0.07, 1, -26.62, 32.24)"/><ellipse class="cls-1" cx="342.66" cy="396.64" rx="26.86" ry="6.2" transform="translate(-66.53 69.07) rotate(-10.5)"/><ellipse class="cls-1" cx="439.55" cy="379.42" rx="26.93" ry="6" transform="translate(-25.5 31.72) rotate(-4.02)"/><path class="cls-1" d="M561,369.05s-35.69,24-59.48,50.19l-2.42-5.67c20-25.35,55.92-47.44,57-48.13h0Z"/><path class="cls-1" d="M91.82,495.6c36.33-7.18,180.35-31.38,269.83-39.38l8.26,5.3L92.8,503.64Z"/><polygon class="cls-1" points="131.66 466.8 122.35 439.17 125.98 436.52 136.08 463.88 131.66 466.8"/><polygon class="cls-1" points="122.35 439.17 113.57 440.71 108.04 459.98 131.66 466.8 122.35 439.17"/><polygon class="cls-1" points="113.57 440.71 118.03 437.85 125.98 436.52 122.35 439.17 113.57 440.71"/><polygon class="cls-1" points="213.44 421.11 205.09 396.58 209.26 395.33 217.87 419.13 213.44 421.11"/><polygon class="cls-1" points="205.09 396.58 198.96 398.88 196.9 415.49 213.44 421.11 205.09 396.58"/><path class="cls-2" d="M133.82,465.37c39.28-9.15,207.44-23.64,242.41-22.25"/><ellipse class="cls-1" cx="350.79" cy="443.12" rx="9.83" ry="3.59" transform="translate(-74.86 71.33) rotate(-10.5)"/><polygon class="cls-1" points="376.91 375.22 373.49 353.44 379.82 352.58 383.52 374.32 376.91 375.22"/><polygon class="cls-1" points="376.91 375.22 370.03 368.76 371.33 357.62 373.49 353.44 376.91 375.22"/><polygon class="cls-1" points="483.18 365.43 483.18 342.98 490.39 342.98 491.09 365.14 483.18 365.43"/><path class="cls-2" d="M380.16,374.77s32.13,20.3,46.92,44.47"/><path class="cls-2" d="M487.18,365.28s-3.76,35.49-3.16,47.79"/><path class="cls-2" d="M215.82,420c52.63-8.33,121.1-13.1,179.87,9.74"/><ellipse class="cls-1" cx="484.52" cy="403.51" rx="9.27" ry="3.38"/><path class="cls-1" d="M485.57,382.28c14.88-.18,44.91,1.24,44.91,1.24"/><path class="cls-1" d="M232.85,452.51c-10.6,7.93-24.22,23.43-24.22,23.43"/><line class="cls-2" x1="335.42" y1="391.84" x2="294.1" y2="382.99"/><line class="cls-2" x1="285.16" y1="423.2" x2="318.74" y2="403.51"/><line class="cls-2" x1="368.8" y1="391.12" x2="413.35" y2="382.51"/><polygon class="cls-1" points="394.27 513.55 415.65 504.64 372.73 469.5 351.74 478.53 394.27 513.55"/><path class="cls-1" d="M369.91,461.52S180.07,481.13,66,510C13.89,562,33.69,623.39,33.69,623.39l62.45-29.55L372.73,469.5Z"/><path class="cls-1" d="M33.69,623.39l8.92,3.66s4.65,25.36,10.62,41.73c6.11,16.73,13.7,26.76,13.7,26.76L96.74,595l-.6-1.16Z"/><polygon class="cls-1" points="394.27 513.55 384.08 499.56 127.93 592.29 151.23 651.07 394.27 513.55"/><line class="cls-2" x1="162.3" y1="579.85" x2="184.7" y2="632.13"/><line class="cls-2" x1="196.64" y1="567.42" x2="216.36" y2="614.22"/><line class="cls-2" x1="228.98" y1="555.71" x2="245.59" y2="597.68"/><line class="cls-2" x1="261.1" y1="544.08" x2="277.1" y2="579.85"/><line class="cls-2" x1="294.77" y1="531.89" x2="308.7" y2="561.97"/><line class="cls-2" x1="324.29" y1="521.21" x2="336.33" y2="546.33"/><line class="cls-2" x1="355.38" y1="509.95" x2="364.78" y2="530.23"/><polygon class="cls-1" points="127.93 592.29 98.65 561.97 96.14 593.84 135.73 670.45 151.23 651.07 127.93 592.29"/><polygon class="cls-1" points="98.65 561.97 345.02 474.17 384.08 499.56 127.93 592.29 98.65 561.97"/><line class="cls-2" x1="117.76" y1="555.16" x2="148.79" y2="584.74"/><polyline class="cls-2" points="162.3 579.85 187.59 557.9 371.52 491.39"/><polyline class="cls-2" points="351.74 478.53 170.85 543.03 133.82 549.43"/><line class="cls-2" x1="228.98" y1="555.71" x2="199.01" y2="526.2"/><line class="cls-2" x1="294.77" y1="531.89" x2="261.1" y2="504.07"/><line class="cls-2" x1="355.38" y1="509.95" x2="318.47" y2="483.63"/><polygon class="cls-2" points="132.2 557.51 160.08 548.04 171.79 554.93 142.24 566.98 132.2 557.51"/><polyline class="cls-2" points="142.24 566.98 142.24 572.4 132.2 563.08 132.2 557.51"/><polyline class="cls-2" points="171.79 554.93 171.79 559.62 142.24 572.4"/><path class="cls-1" d="M144.73,707.88l-.23.09L93.39,728.25a1.11,1.11,0,0,1-.21.08c-7.43,2.4-21.37-20.18-31.15-50.45-9.44-29.19-11.55-54.85-5-58.8l48.37-29.31a4.71,4.71,0,0,1,.82-.38c8-2.58,23.11,21.85,33.69,54.6C150.36,676.41,152.49,704.8,144.73,707.88Z"/><path class="cls-1" d="M93.39,728.27a1.29,1.29,0,0,0-.21.07c-7.43,2.4-21.37-20.19-31.15-50.46-9.44-29.19-11.55-54.85-5-58.8a2.89,2.89,0,0,1,.76-.34c7.41-2.4,21.36,20.18,31.14,50.45a200.85,200.85,0,0,1,7.69,31.94l-3.79-2,4.66,9.73c0,.4.05.77.08,1.14C98.17,720.09,96.85,726.89,93.39,728.27Z"/><path class="cls-1" d="M97.46,708.9l-4.66-9.73,3.79,2C97,703.87,97.28,706.48,97.46,708.9Z"/><path class="cls-1" d="M138.18,722.63l-12.1,32a188.81,188.81,0,0,1-32.9-26.31,1.29,1.29,0,0,1,.21-.07c3.46-1.38,4.78-8.18,4.15-18.23l-.08-1.14-4.66-9.73,3.79,2Z"/><line class="cls-2" x1="80.34" y1="646.84" x2="132.2" y2="623.39"/><polyline class="cls-2" points="71.76 630.63 89.64 621.99 92.8 623.39 105.06 617.75 105.06 613.36 122.59 604.27"/><line class="cls-2" x1="62.71" y1="620.03" x2="112.63" y2="591.61"/><polyline class="cls-1" points="90.26 673.54 112.63 666.73 113.8 658.86 122.59 655.12 128.86 660.88 143.43 655.96"/><path class="cls-1" d="M84.13,669.65c8.66,26.8,10.42,50.27,4,52.81l-.19.07c-6.63,2.15-19.1-18-27.85-45.11-8.43-26.1-10.32-49-4.49-52.57a3.39,3.39,0,0,1,.67-.31C62.92,622.4,75.39,642.59,84.13,669.65Z"/><path class="cls-2" d="M371.68,466.51c-121.35,19.78-237.86,45.08-323.4,65.38"/><path class="cls-2" d="M163.26,489.94c-8.52,12.76-18.11,32.84-17,55.05"/><path class="cls-2" d="M245.59,477.05c-2.81,6.5-4.12,24.91-2.81,33.55"/><path class="cls-2" d="M120.24,497.9c-13.13,15.76-22,41.5-20,63.48"/><path class="cls-2" d="M146.65,533.23C101.31,546,44.86,567.2,32.12,572.4"/><path class="cls-2" d="M71.76,557.57c-1.64,14.83,0,34.72,3.7,46.06"/><path class="cls-2" d="M103.23,531.89s-58.42,15.39-64.17,17.54"/><polygon class="cls-1" points="92.8 503.64 91.81 495.6 91.81 486.34 66.03 509.95 92.8 503.64"/><line class="cls-2" x1="242.35" y1="497.9" x2="224.66" y2="493.3"/><line class="cls-2" x1="167.4" y1="505.11" x2="149.98" y2="517.46"/><polyline class="cls-2" points="345.02 474.17 260.09 491.39 257.86 499.2 242.27 504.07"/><line class="cls-2" x1="98.02" y1="569.95" x2="71.46" y2="579.85"/><polygon class="cls-1" points="593.79 449.24 579.05 456 542.99 424.07 593.79 449.24"/><polygon class="cls-1" points="768.36 388.94 785.75 431.78 593.79 449.24 593.79 434.85 768.36 388.94"/><polygon class="cls-1" points="768.36 388.94 725.89 369.8 552.28 413.07 593.79 434.85 768.36 388.94"/><polygon class="cls-1" points="593.79 434.85 593.79 449.24 542.99 424.07 552.28 413.07 593.79 434.85"/><line class="cls-2" x1="714.61" y1="372.61" x2="755.67" y2="392.28"/><path class="cls-2" d="M724.44,387.09c-.06,1.16-1.56,2.14-3.9,2.76a27.09,27.09,0,0,1-8.08.66c-6.49-.33-11.67-2.41-11.55-4.64.06-1.22,1.69-2.23,4.2-2.84a28,28,0,0,1,7.77-.59C719.38,382.78,724.55,384.86,724.44,387.09Z"/><polyline class="cls-2" points="705.11 383.03 633.63 400.39 575.23 414.99"/><line class="cls-2" x1="720.54" y1="389.85" x2="651.2" y2="408.16"/><path class="cls-1" d="M655.64,405c-.07,1.33-1.78,2.44-4.44,3.14a31.25,31.25,0,0,1-9.2.76c-7.41-.38-13.3-2.75-13.16-5.3a1.69,1.69,0,0,1,.12-.54l1.63-3.94c.8-2,5.84-3.26,11.85-2.94s10.66,2,11.44,4l1.63,4.07A1.93,1.93,0,0,1,655.64,405Z"/><path class="cls-2" d="M653.89,400.2a1.6,1.6,0,0,1,.11.64c-.12,2.23-5.48,3.77-12,3.43s-11.67-2.42-11.55-4.65a1.67,1.67,0,0,1,.11-.48c.81-2,5.85-3.26,11.86-2.94S653.1,398.23,653.89,400.2Z"/><line class="cls-2" x1="684.98" y1="387.92" x2="699.66" y2="395.36"/><polyline class="cls-2" points="624.98 394.95 575.23 414.99 594.04 424.11 663.94 416.4 673.7 441.97"/><line class="cls-2" x1="651.2" y1="408.16" x2="594.04" y2="424.11"/><line class="cls-2" x1="616.19" y1="428.96" x2="622.62" y2="446.62"/><line class="cls-2" x1="638.12" y1="423.19" x2="646.17" y2="444.48"/><line class="cls-2" x1="684.44" y1="411.01" x2="694.97" y2="440.04"/><line class="cls-2" x1="706.14" y1="405.3" x2="718.43" y2="437.9"/><line class="cls-2" x1="727.43" y1="399.71" x2="739.76" y2="435.96"/><line class="cls-2" x1="748.62" y1="394.13" x2="764.55" y2="433.71"/><path class="cls-1" d="M769.46,391.64c17.4,4.55,32.46,23.33,31.53,39.68l-15.24.46Z"/><path class="cls-1" d="M543,424.07l-41.45-4.83C525.33,393,561,369.05,561,369.05c30.67-.74,103.05,10.78,112.68,13.75L552.28,413.07Z"/><path class="cls-2" d="M528.36,393.88c13.7.08,50.81,6.91,62.28,9.63"/><path class="cls-2" d="M547.52,378.73c20,.92,64.09,8.44,88,13.6"/><path class="cls-1" d="M580.35,382.44c-18.4,9.66-56.47,30.78-68.76,38"/><path class="cls-1" d="M586.32,370.13c-9.69,2.48-22.72,10.05-22.72,10.05"/><path class="cls-1" d="M629.73,375.16c-13.54,2.26-38.23,9-38.23,9"/><polyline class="cls-2" points="613.18 387.92 632.4 383.03 653.18 387.92"/><polygon class="cls-1" points="907.77 524.62 1165.12 830.77 1124.97 859.77 928.68 735.14 922.55 718.49 843.89 665.49 895.23 522.4 907.77 524.62"/><polygon class="cls-1" points="684.44 740.49 775.52 798.24 809.35 806.42 1006.38 942.85 956.57 985.79 310.83 764.23 684.44 740.49"/><path class="cls-1" d="M871.81,628.17C827.07,709,731.32,731,630.91,752.52c-69.64,15-180.43,30.06-320.08,11.71v-7.07c139.65,18.35,250.44,3.24,320.08-11.71,100.41-21.54,196.16-43.55,240.9-124.35,19.09-34.48,23.18-69.36,23.42-94v2.36C895.46,554.24,892.15,591.42,871.81,628.17Z"/><path class="cls-1" d="M895.23,527.11V522.4Q895.25,524.68,895.23,527.11Z"/><path class="cls-1" d="M579.05,466.51V452.42C661,432.9,818.55,431,818.55,431a186.69,186.69,0,0,1,51,35.69c19.58,19.29,32.06,38.9,38.19,58l-12.54-2.22"/><path class="cls-1" d="M895.23,522.4v4.71c-.24,24.63-4.33,59.51-23.42,94-44.74,80.8-140.49,102.81-240.9,124.35-69.64,14.95-180.43,30.06-320.08,11.71,0,0-165.62-15-218-58C211.57,588.2,414,505,414,505l165.06-38.51Z"/><polygon class="cls-1" points="1122.37 893.97 1035.38 850.1 1008.98 844.15 919.02 779.84 914.56 762.74 888.45 744.56 840.29 669.03 843.89 665.49 922.55 718.49 928.68 735.14 1124.97 859.77 1122.37 893.97"/><polygon class="cls-1" points="929.99 933.1 962.7 908.65 984.82 923.89 952.48 949.36 929.99 933.1"/><polygon class="cls-1" points="995.11 935.05 984.82 923.89 952.48 949.36 962.89 960.51 995.11 935.05"/><polygon class="cls-1" points="929.99 933.1 929.99 937.28 962.89 960.51 952.48 949.36 929.99 933.1"/><polygon class="cls-1" points="1081.46 827.22 1114.17 801.17 1136.29 816.41 1103.95 841.87 1081.46 827.22"/><polygon class="cls-1" points="1146.58 827.57 1136.29 816.41 1103.95 841.87 1114.36 853.03 1146.58 827.57"/><polygon class="cls-1" points="1081.46 827.22 1081.46 832.14 1114.36 853.03 1103.95 841.87 1081.46 827.22"/><polygon class="cls-1" points="1006.38 942.85 1020.14 973.52 971.56 1017.02 956.57 985.79 1006.38 942.85"/><polygon class="cls-1" points="1124.97 859.77 1122.37 893.97 1165.12 859.63 1165.12 830.77 1124.97 859.77"/><line class="cls-2" x1="895.52" y1="740.69" x2="1122.37" y2="893.97"/><polygon class="cls-1" points="787.42 801.12 813.81 803.72 949.04 896.01 957.4 908.94 809.35 806.42 787.42 801.12"/><polyline class="cls-2" points="897.65 720.48 1053.32 819.29 1081.46 832.14"/><polyline class="cls-2" points="907.22 734.3 1055.83 829.65 1081.46 840.12 1124.42 867.06"/><line class="cls-2" x1="982.63" y1="782.69" x2="981.12" y2="798.53"/><polyline class="cls-2" points="1055.83 829.65 1087.89 863.14 1122.77 888.76"/><path class="cls-1" d="M753.59,849.43c-4.37-6-13.75-12.48-20.27-13.85L730,837.71a55.27,55.27,0,0,0-15.43-2.13c-18.41,0-33.83,8.53-37.95,20a18,18,0,0,1-1.09-6.14c0-9,6.84-17,17.24-21.69a53.36,53.36,0,0,1,21.8-4.45q.93,0,1.86,0C737.12,824,753.59,835.41,753.59,849.43Z"/><path class="cls-1" d="M753.59,849.43a18,18,0,0,1-1.09,6.14l-26.7,9.21-9.38-6.69,9-5.76,1.86-12.91,2.7-1.71,3.33-2.13C739.84,837,749.22,843.41,753.59,849.43Z"/><path class="cls-2" d="M600.41,795.1a13,13,0,0,1-.38,3.17c-4.61-9.12-18.65-15.76-35.25-15.76-18.58,0-34,8.31-36.5,19.13a14.24,14.24,0,0,1-1.61-6.54c0-12.31,16.5-22.29,36.87-22.29S600.41,782.79,600.41,795.1Z"/><path class="cls-2" d="M571.23,816.91a60.11,60.11,0,0,1-7.69.49c-16.61,0-30.65-6.64-35.26-15.76a18.58,18.58,0,0,1,6.39-9.7Z"/><path class="cls-2" d="M600,798.27a17.28,17.28,0,0,1-4.46,7.87l-33.25-23.57c.8-.05,1.63-.06,2.46-.06C581.38,782.51,595.42,789.15,600,798.27Z"/><path class="cls-1" d="M752.5,855.57a23.07,23.07,0,0,1-5.87,8.76l-20.83,7v-6.51Z"/><path class="cls-1" d="M746.63,864.33c-7,6.79-18.78,11.24-32.07,11.24-18.41,0-33.83-8.53-37.95-20,4.12-11.46,19.54-20,37.95-20A55.27,55.27,0,0,1,730,837.71l-2.7,1.71-1.86,12.91-9,5.76v6.51l9.38,6.69Z"/><path class="cls-2" d="M1020.81,697.56a9.76,9.76,0,0,1-1.1,3.4,19.46,19.46,0,0,0-6-6.81v-4.88c-1.26-1.53-6.41-3.85-6.41-3.85l-2.51,3.82a55.92,55.92,0,0,0-13.37-3.37c-12.23-1.52-23.3.91-29.22,5.76l-2-1.25c-1.67,2-1.34,5.21-1.34,5.21a10.29,10.29,0,0,1-1.1-6c1.19-9.43,16.26-15.3,33.68-13.11S1022,688.13,1020.81,697.56Z"/><path class="cls-2" d="M1019.71,701c-3.34,6.26-13.5,10.26-25.78,10.18h0l-31.71-19.51c5.92-4.85,17-7.28,29.22-5.76a55.92,55.92,0,0,1,13.37,3.37L996,702.65l7,3.34,10.74-11.67v-.17A19.46,19.46,0,0,1,1019.71,701Z"/><path class="cls-2" d="M951.41,622.83a8,8,0,0,1-1.06,3.24c-3.29-6.24-13.79-11.53-26.64-12.79-13.84-1.34-25.91,2.43-29.51,8.72a8.33,8.33,0,0,1-1.07-4.86c.8-8.17,14.5-13.53,30.58-11.95S952.21,614.65,951.41,622.83Z"/><path class="cls-2" d="M950.35,626.07c-3.61,6.29-15.68,10.06-29.52,8.71C908,633.52,897.49,628.24,894.2,622c3.6-6.29,15.67-10.06,29.51-8.72C936.56,614.54,947.06,619.83,950.35,626.07Z"/><polygon class="cls-1" points="1165.12 835.44 1170 832.14 1165.12 821.52 1008.43 637.69 1003.79 638.84 1165.12 830.77 1165.12 835.44"/><polygon class="cls-1" points="956.57 985.79 971.56 1017.02 330.63 814.32 310.83 764.23 956.57 985.79"/><polygon class="cls-1" points="957.95 988.67 954.34 991.37 934.08 987.65 560.46 863.14 567.9 858.09 957.95 988.67"/><polygon class="cls-1" points="957.95 988.67 969.11 1012.56 966.05 1014.79 954.34 991.37 957.95 988.67"/><polygon class="cls-1" points="934.08 987.65 946.44 1011.72 966.05 1014.79 954.34 991.37 934.08 987.65"/><polygon class="cls-1" points="946.44 1011.72 565.39 890.99 560.46 863.14 934.08 987.65 946.44 1011.72"/><polygon class="cls-1" points="847.22 659 827.74 641.66 847.44 630.41 863.98 650.86 847.22 659"/><polygon class="cls-1" points="848.33 668.49 843.89 665.49 843.05 659.26 827.74 645.64 827.74 641.66 847.22 659 848.33 668.49"/><polygon class="cls-1" points="847.22 659 863.98 650.86 865.25 659.3 848.33 668.49 847.22 659"/><path class="cls-1" d="M897.46,653s.83-10.82-16.73-23.53L864.36,619.3l-27.41-17c-.41-6.26,2.48-11.28,8.9-13.23s10.62-2.79,16.2.7,33.47,21.32,35.42,22.57,3.75,2.19,3.76,5.17v6.58s16.3,7.55,16.11,21.3Z"/><path class="cls-1" d="M897.46,653l-31.25-22.61-1.85-11.11,16.37,10.19C898.29,642.2,897.46,653,897.46,653Z"/><path class="cls-1" d="M844.62,610.23s22.59,18.39,30.39,31.43v-4.81l-11.85-21.19-18.54-10.31Z"/><line class="cls-2" x1="901.23" y1="624.06" x2="880.73" y2="629.49"/><path class="cls-2" d="M841.2,604.91s.12-10,6.07-12.16,10.85-5.49,14.78-3"/><line class="cls-2" x1="603.03" y1="758.04" x2="692.76" y2="827.74"/><polyline class="cls-2" points="658.61 801.21 675.52 791.74 716.42 823.32"/><line class="cls-2" x1="665.94" y1="744.83" x2="939.96" y2="925.64"/><line class="cls-2" x1="1101.28" y1="811.43" x2="864.62" y2="655.07"/><polyline class="cls-2" points="469.2 772.18 505.26 783.93 447.16 811.01"/><path class="cls-1" d="M595.57,806.14c-5.12,5.44-13.91,9.43-24.33,10.77h0l-36.56-25c0-.15.1-7.93,21.52-13.72l6.13,4.35Z"/><polygon class="cls-1" points="725.8 864.78 725.8 871.29 716.42 864.6 716.42 858.09 725.8 864.78"/><path class="cls-2" d="M993.92,711.14a61,61,0,0,1-6.78-.46c-13.71-1.72-24.78-7.93-28.29-15.09,0,0-.33-3.25,1.34-5.21l2,1.25Z"/><line class="cls-2" x1="993.93" y1="711.14" x2="993.92" y2="711.14"/><path class="cls-2" d="M1013.72,689.27l-2.17,3.37L1003,706l-7-3.34,8.78-13.41,2.51-3.82S1012.46,687.74,1013.72,689.27Z"/><polygon class="cls-2" points="1013.72 689.26 1013.72 694.32 1002.98 705.99 1011.55 692.64 1013.72 689.26"/><polyline class="cls-2" points="787.42 801.12 781.75 804.28 950.33 917.9"/><path class="cls-1" d="M624.53,759.88c12.05,9.92,12.05,19.45,12.05,19.45l-26.86,8.78L598,766.35Z"/><path class="cls-1" d="M598,766.35c12.13,12.75,11.76,21.76,11.76,21.76l-26.38-26.72L579,747.2Z"/><path class="cls-1" d="M557.4,725.46c.89-5.4.55-9.23,11.13-13.41,0,0,3.89-1.34,9.9-3.46s9.9,3.9,14.14,8.46c0,0,25.33,25.78,29,29.43s3.11,5.85,3.11,8.55l-.11,4.85L598,766.35Z"/><path class="cls-2" d="M561.41,729.47c.86-5.18,1.63-9.85,7-12.15l15-5.74a5.85,5.85,0,0,1,5.33,1.18"/><path class="cls-1" d="M554,724l17.4,7.67,19.91,36.92-.63,3.81S563,729.24,553.41,727.65Z"/><polygon class="cls-1" points="648.7 722.03 666.35 738.84 648.29 742.41 624.22 726.63 648.7 722.03"/><polygon class="cls-1" points="648.29 742.41 650.55 751.66 669.06 746.89 666.35 738.84 648.29 742.41"/><polygon class="cls-1" points="624.22 726.63 623.24 729.99 643.3 742.78 645.28 749.42 650.55 751.66 648.29 742.41 624.22 726.63"/><path class="cls-1" d="M610.17,857.25C606,863,600,866,596.05,864.68L546.9,848.55a6,6,0,0,1-1.49-.76c-3.84-2.82-3.08-10.38,1.68-16.9,4.21-5.73,10.14-8.73,14.12-7.43l49.15,16.14a5.47,5.47,0,0,1,1.48.76C615.69,843.18,614.93,850.73,610.17,857.25Z"/><path class="cls-1" d="M610.36,839.6a5.19,5.19,0,0,1,1.48.76c3.85,2.82,3.1,10.38-1.67,16.89C606,863,600,866,596.05,864.68a5.38,5.38,0,0,1-1.49-.76c-3.84-2.82-3.09-10.38,1.68-16.89C600.44,841.29,606.38,838.29,610.36,839.6Z"/><path class="cls-2" d="M612,854.36l295.24,93.9s14.83,3.86,21.25-2.57l5.88-5.33"/><polyline class="cls-2" points="529.99 839.43 541.07 812.78 518.27 804.67 486.06 824.36 482.58 831.61 482.58 845.83 561.9 871.29"/><line class="cls-2" x1="482.58" y1="831.61" x2="565.12" y2="859.98"/><polyline class="cls-2" points="774.42 923.29 828.31 890.63 912.24 949.41 891.85 963.59"/><polyline class="cls-2" points="752.5 843.28 840.29 867.06 935.46 929"/><path class="cls-1" d="M467.11,800.78c-.81,3.68-3.67,6.18-6.36,5.57a2.77,2.77,0,0,1-.49-.15l-77.71-29c-2.72-1-4.19-4.75-3.31-8.7.94-4.2,4.19-7,7.26-6.37a4.25,4.25,0,0,1,.66.21l77.14,30.86C466.63,794.13,467.88,797.36,467.11,800.78Z"/><path class="cls-2" d="M464.29,793.2c2.33.93,3.58,4.16,2.82,7.58-.82,3.68-3.67,6.18-6.37,5.58a4.58,4.58,0,0,1-.49-.15c-2.38-.89-3.67-4.16-2.9-7.61.82-3.68,3.67-6.18,6.37-5.58A2.7,2.7,0,0,1,464.29,793.2Z"/><line class="cls-2" x1="578.63" y1="829.18" x2="648.89" y2="793.66"/><line class="cls-2" x1="639.65" y1="786.48" x2="689.98" y2="760.7"/><line class="cls-2" x1="730.99" y1="825.71" x2="762.73" y2="808.7"/><line class="cls-2" x1="681.59" y1="863.43" x2="650.55" y2="880.79"/><polyline class="cls-2" points="1055.83 781.39 1062.24 776.31 1012.19 707.53"/><polyline class="cls-2" points="922.55 718.49 958.85 695.59 915.86 669.24 928.68 662.55 906.29 649.61"/><line class="cls-2" x1="1008.95" y1="681.79" x2="1030.05" y2="670.09"/><polyline class="cls-2" points="982.63 676.1 951.45 633.93 984.16 615.49"/><path class="cls-2" d="M287.87,565.86a321.56,321.56,0,0,0,68.69,24c46.47,10.23,105.67,7.07,105.67,7.07l-3.08,70.69"/><path class="cls-2" d="M473.94,523.79c-6.23,14.78-25,61-28,73.58"/><line class="cls-2" x1="425.78" y1="502.27" x2="387.01" y2="544.61"/><path class="cls-2" d="M421.43,597.09c-8.37,24.2-43.3,142.33-48.7,166.25"/><line class="cls-2" x1="350.38" y1="681.76" x2="394.27" y2="686.1"/><line class="cls-2" x1="490.88" y1="537.13" x2="540.46" y2="760.07"/><path class="cls-2" d="M384.08,721.32c28.61,2.65,122.93,1.21,147-3.59"/><path class="cls-2" d="M399.58,668.06c20.92,2.11,148.67-.79,219.62-22.18"/><path class="cls-2" d="M526.67,698.05c23.57-1.48,88.83-13.39,123.88-27"/><line class="cls-2" x1="414.82" y1="569.89" x2="454.82" y2="571.93"/><line class="cls-2" x1="453.38" y1="575.78" x2="499.16" y2="574.34"/><path class="cls-1" d="M425.78,551.34S338.71,695.45,310.83,757.16L138.18,722.63,348.24,535C363.72,540.29,404.14,548.61,425.78,551.34Z"/><line class="cls-2" x1="199.01" y1="699.55" x2="368.43" y2="540.5"/><line class="cls-1" x1="425.78" y1="551.34" x2="460.04" y2="494.28"/><line class="cls-1" x1="471.49" y1="529.68" x2="449.07" y2="512.55"/><line class="cls-1" x1="437.42" y1="499.56" x2="436.42" y2="533.62"/><line class="cls-1" x1="206.52" y1="613.35" x2="241.17" y2="630.63"/><line class="cls-1" x1="261.61" y1="612.36" x2="230.89" y2="598.29"/><path class="cls-2" d="M324.53,556.15s16.4-10.36,36.57-8.76,44.27,18.76,50.07,28.39"/><path class="cls-2" d="M322.46,583.66c-7.82-2.71-25.41-2.95-35.76,6.29"/><path class="cls-2" d="M312,593.47c-8.74-3-29.45.17-35.41,5.49"/><path class="cls-2" d="M299.38,605.32c-8.62-1.69-31.68,1.6-40.83,9.78"/><path class="cls-2" d="M302.56,575.78c5.41-4.83,23.69-3.84,30.83-2.38,10.88,2.22,38.74,15.68,54.1,42.66"/><path class="cls-2" d="M347.49,560.17c16.8,2.7,40,14.89,51.81,35.7"/><polyline class="cls-2" points="460.04 643.03 394.27 643.03 408.42 606.97 461.75 607.92"/><line class="cls-2" x1="404.58" y1="616.75" x2="461.33" y2="617.75"/><line class="cls-2" x1="400.5" y1="627.15" x2="460.87" y2="628.17"/><line class="cls-2" x1="427.28" y1="627.6" x2="434.82" y2="597.37"/><line class="cls-2" x1="444.1" y1="627.88" x2="449.68" y2="597.32"/><path class="cls-2" d="M290.5,613.67c20.33,3.08,55.76,28.6,64.67,58.86"/><polyline class="cls-2" points="275.05 628.16 283.1 629.51 211.85 695.54 204.82 694.09"/><path class="cls-2" d="M273.93,638s44.61,18.3,62.64,68.31"/><path class="cls-2" d="M242.94,666.73s57,17.94,69.68,86.53"/><path class="cls-1" d="M331.57,766.74c-18.95-21.89-72.88-71.2-132.56-67.19-26.33,1.77-47.51,12.25-60.83,23.08-16.39,13.34-15.35,49.93-1.61,68l44.71,65.6Z"/><path class="cls-1" d="M347.29,924.35c-15.25,10-33.2,11.19-46,4.37L203.5,876.41a60.48,60.48,0,0,1-22.22-20.19c-21.07-32.13-5.86-76.44,30.85-103.41,47.77-35.08,117.85-9,127.37,30.28l27.71,91C374.3,890.48,366.14,912,347.29,924.35Z"/><path class="cls-2" d="M364.79,869.66a30.61,30.61,0,0,1,2.41,4.46c7.1,16.36-1.07,37.88-19.91,50.23-15.25,10-33.21,11.18-46,4.36a30.24,30.24,0,0,1-11.17-10.13c-10.94-16.7-3.11-41.18,17.5-54.69S353.85,853,364.79,869.66Z"/><path class="cls-2" d="M364,874.34a26.15,26.15,0,0,1,2.17,4c6.35,14.81-1.33,34.45-18.73,45.85-14.07,9.23-30.56,10.47-42.19,4.39a27,27,0,0,1-10.16-9.11c-9.88-15.08-2.47-37.42,16.56-49.89S354.16,859.26,364,874.34Z"/><path class="cls-2" d="M360.36,876.75a23.17,23.17,0,0,1,1.93,3.6c5.68,13.23-1.18,30.77-16.72,41-12.57,8.24-27.3,9.35-37.68,3.92a24.17,24.17,0,0,1-9.08-8.14c-8.83-13.47-2.2-33.42,14.79-44.56S351.53,863.28,360.36,876.75Z"/><line class="cls-2" x1="320.45" y1="868.82" x2="337.09" y2="925.69"/><line class="cls-2" x1="324.87" y1="867.16" x2="341.14" y2="923.87"/><line class="cls-2" x1="362.29" y1="880.35" x2="295.77" y2="910.3"/><line class="cls-2" x1="363.64" y1="884.53" x2="297.44" y2="914.7"/><line class="cls-2" x1="343.82" y1="865.98" x2="310.18" y2="926.29"/><line class="cls-2" x1="348.96" y1="867.53" x2="315.87" y2="927.96"/><line class="cls-2" x1="303.42" y1="881.63" x2="360.34" y2="905.3"/><line class="cls-2" x1="300.56" y1="885.55" x2="357.63" y2="909.74"/><path class="cls-1" d="M352.3,882a16.66,16.66,0,0,1,1.43,2.66c4.19,9.76-.87,22.72-12.34,30.23-9.28,6.09-20.16,6.91-27.82,2.9a17.68,17.68,0,0,1-6.7-6c-6.52-9.95-1.63-24.67,10.92-32.9S345.79,872.09,352.3,882Z"/><path class="cls-2" d="M347.6,885.11a13.9,13.9,0,0,1,1.14,2.11c3.32,7.74-.7,18-9.8,24-7.36,4.82-16,5.47-22.06,2.29a14.05,14.05,0,0,1-5.31-4.76c-5.17-7.89-1.29-19.57,8.66-26.09S342.43,877.22,347.6,885.11Z"/><path class="cls-2" d="M341.78,790.59c-8-26.27-47.39-33.9-79.09-20.79C202.93,794.52,188,868,200.44,874.66"/><line class="cls-2" x1="285.22" y1="764.03" x2="333.01" y2="855.32"/><line class="cls-2" x1="303.18" y1="867.16" x2="240.1" y2="782.79"/><path class="cls-2" d="M251.88,798.55c6.53-8.07,32-18.8,42-18"/><path class="cls-2" d="M258,815.75c-6.92,5.48-13.43,13.46-18.51,22.61l-5.23-5A83.79,83.79,0,0,1,254.11,811h0Z"/><line class="cls-2" x1="288.8" y1="885.55" x2="239.48" y2="838.36"/><path class="cls-2" d="M254.11,811a83.79,83.79,0,0,0-19.86,22.36l-16.41-15.69a48.56,48.56,0,0,1,29.55-14.92Z"/><line class="cls-2" x1="301.23" y1="868.82" x2="257.99" y2="815.75"/><path class="cls-2" d="M231.22,838.78a87.23,87.23,0,0,0-8.57,27.86l-14-8.12c-5.58-18,5.29-35.42,5.29-35.42Z"/><line class="cls-2" x1="285.25" y1="902.99" x2="229.26" y2="870.48"/><path class="cls-2" d="M236.71,843.75a78.22,78.22,0,0,0-7.45,26.73l-6.61-3.84a87.23,87.23,0,0,1,8.57-27.86Z"/><line class="cls-2" x1="287.23" y1="889.59" x2="236.71" y2="843.75"/><path class="cls-2" d="M338.17,855.32l-29.35-59.59-2.44-5h0l-6-12.15s11.72-5,21.76-3.89l7.67,22,2.06,5.89,19.46,55.82"/><path class="cls-2" d="M354.43,860l-18.17-55-2-6.14L327,777s13.57,9.67,15.87,17.18"/><path class="cls-2" d="M308.82,795.73a64.74,64.74,0,0,1,23.06,6.88"/><path class="cls-2" d="M336.26,805c6,3.54,10.85,7.66,13.4,11.47"/><path class="cls-2" d="M306.37,790.75h0a67.23,67.23,0,0,1,23.44,6"/><path class="cls-2" d="M334.24,798.87c5.58,3,10.22,6.45,13.05,9.83"/><line class="cls-2" x1="129.63" y1="734.93" x2="177.12" y2="796.72"/><path class="cls-2" d="M155.45,768.53c18.57-59.88,99.9-65.46,137.21-37"/><path class="cls-2" d="M233.13,675.82s-31.3-10.05-47.47,4.4l-41-24.26"/><path class="cls-2" d="M199,699.55s-27.3-6.87-41,5.4"/><polygon class="cls-1" points="461.75 607.92 506.32 606.56 519.11 614.94 527.61 641.92 517.31 655.95 459.48 660.09 449.12 648.6 451.35 620.4 461.75 607.92"/><line class="cls-2" x1="243.96" y1="604.27" x2="170.24" y2="671.09"/><line class="cls-2" x1="891.3" y1="574" x2="918.09" y2="604.91"/><line class="cls-2" x1="909.54" y1="595.05" x2="950.85" y2="575.86"/><line class="cls-2" x1="951.45" y1="633.93" x2="947.11" y2="629.6"/><path class="cls-2" d="M779.85,620.18c15-13.58,64.51-41.06,73.4-105.2"/><path class="cls-2" d="M643.55,501.87s93.68,29.45,128.63,44.88c27.75,12.25,111.91,46.86,111.91,46.86"/><path class="cls-2" d="M665.07,518.73c5-6.74,16.58-21,19.37-33.59"/><path class="cls-2" d="M579.05,452.42s249.63,4.92,290.53,14.22"/><path class="cls-2" d="M666.43,454.65c4.07,12.73,2.09,37.42-15.32,53.14"/><path class="cls-2" d="M683.67,437.64c4.68,2.79,12.33,11.19,15.1,18.05"/><path class="cls-2" d="M712.52,456.17c5.94,8.61,10.07,23.58,9.49,35.61"/><path class="cls-2" d="M756.92,432.93c8.94,5.45,18.89,18.45,22.93,26.08"/><line class="cls-2" x1="691.89" y1="445.09" x2="768.39" y2="443.04"/><line class="cls-2" x1="633.52" y1="442.94" x2="640.4" y2="453.9"/><line class="cls-2" x1="603.03" y1="447.53" x2="605.54" y2="453.01"/><line class="cls-2" x1="659.66" y1="497.63" x2="676.4" y2="502.85"/><path class="cls-2" d="M679.83,496.94l70.64,18.57c-4.92,15.41-25.51,36.82-36.1,45.55"/><path class="cls-2" d="M809.22,562.54c-16.22,22.11-46,44.22-46,44.22"/><polygon class="cls-1" points="1170 832.14 1169.4 850.4 1165.12 853.03 1165.12 835.44 1170 832.14"/><path class="cls-1" d="M473.9,508.11C414,511.17,364.53,495,363.36,472a17.71,17.71,0,0,1,1.81-8.56l6.58-13.87c8.64-18.24,48.94-33.67,98.05-36.18,50.48-2.57,93.08,9.4,102,27.49l6.58,13.29a17.4,17.4,0,0,1,1.82,6.79C581.38,484,533.79,505.07,473.9,508.11Z"/><path class="cls-1" d="M571.82,440.9a16,16,0,0,1,1.71,6.37c1.1,21.55-43.56,41.35-99.75,44.21s-102.63-12.29-103.73-33.85a16.63,16.63,0,0,1,1.7-8c8.64-18.24,48.94-33.67,98.05-36.17C520.27,410.84,562.88,422.81,571.82,440.9Z"/><path class="cls-2" d="M556.09,435.53l-28.64,14.2-72.14,23-44.08,8.73a16.74,16.74,0,0,1-3.31-8.94,16.31,16.31,0,0,1,1.54-7.62c7.89-17.27,44.75-31.84,89.68-34.13C520.41,429.73,540.16,431.56,556.09,435.53Z"/><polyline class="cls-2" points="563.79 431.72 556.09 435.53 527.45 449.73 455.31 472.77 411.23 481.5 400.79 483.57"/><path class="cls-1" d="M538.09,457.56a7,7,0,0,1,.75,2.8c.49,9.46-19.11,18.14-43.77,19.4s-45-5.39-45.52-14.85a7.37,7.37,0,0,1,.74-3.53c3.8-8,21.48-14.78,43-15.88C515.47,444.37,534.17,449.62,538.09,457.56Z"/><line class="cls-2" x1="408.43" y1="467.81" x2="375.74" y2="469.57"/><line class="cls-2" x1="418.66" y1="454.03" x2="374.36" y2="445.35"/><line class="cls-2" x1="439.55" y1="442.6" x2="393.32" y2="430.95"/><line class="cls-2" x1="459.95" y1="436.28" x2="445.96" y2="415.72"/><line class="cls-2" x1="494.01" y1="431.13" x2="489.84" y2="413.15"/><line class="cls-2" x1="528.59" y1="431.19" x2="538.85" y2="420.11"/><line class="cls-2" x1="538.49" y1="458.53" x2="567.84" y2="461.23"/><polyline class="cls-2" points="530.78 470.89 542.15 471.28 548.82 474.67"/><polyline class="cls-2" points="502.12 479.19 499.59 483.83 505.37 487.94"/><line class="cls-2" x1="473.94" y1="478.81" x2="473.78" y2="491.48"/><polygon class="cls-1" points="450.61 460.78 419.57 453.32 419.92 445.35 451 452.97 450.61 460.78"/><path class="cls-1" d="M451,453s11.13-7.8,19.5-9.38,28.62-3.44,28.62-3.44l-9.28-16.45-40.3,5.2-29.62,16.45Z"/><polygon class="cls-1" points="506.44 441.64 489.62 444.19 487.18 447.8 488.46 461.26 491.47 463.26 509.9 458.84 509.08 443.74 506.44 441.64"/><path class="cls-1" d="M534.33,470.2a3.08,3.08,0,0,1-3.84,2.05l-.2-.07L502.2,459.51a4.32,4.32,0,0,1,3.15-8l.49.22L533,466.34A3.16,3.16,0,0,1,534.33,470.2Z"/><ellipse class="cls-1" cx="531.57" cy="469.21" rx="3.22" ry="2.92" transform="translate(-88.82 812.49) rotate(-70.39)"/><path class="cls-1" d="M526.29,473.07a3.28,3.28,0,0,1-4.08,2.19l-.22-.08-29.84-13.46a4.6,4.6,0,0,1,3.35-8.47,4.9,4.9,0,0,1,.52.24L524.89,469A3.34,3.34,0,0,1,526.29,473.07Z"/><ellipse class="cls-1" cx="523.36" cy="472.03" rx="3.43" ry="3.11" transform="translate(-96.93 806.63) rotate(-70.39)"/><path class="cls-1" d="M534.33,462.55a3.08,3.08,0,0,1-3.84,2.06l-.2-.07L502.2,451.87a4.32,4.32,0,0,1,3.15-8l.49.22L533,458.7A3.14,3.14,0,0,1,534.33,462.55Z"/><ellipse class="cls-1" cx="531.57" cy="461.57" rx="3.22" ry="2.92" transform="translate(-81.62 807.42) rotate(-70.39)"/><path class="cls-1" d="M526.29,465.43a3.28,3.28,0,0,1-4.08,2.19l-.22-.08-29.84-13.46a4.4,4.4,0,0,1-2.07-5.57,4.36,4.36,0,0,1,5.42-2.9,4.9,4.9,0,0,1,.52.24l28.87,15.49A3.33,3.33,0,0,1,526.29,465.43Z"/><ellipse class="cls-1" cx="523.36" cy="464.39" rx="3.43" ry="3.11" transform="translate(-89.73 801.55) rotate(-70.39)"/><polygon class="cls-1" points="489.62 444.19 470.45 435.55 487.18 447.8 489.62 444.19"/><polygon class="cls-1" points="506.44 441.64 485.09 433.6 470.45 435.55 489.62 444.19 506.44 441.64"/><polygon class="cls-1" points="470.45 435.55 471.79 448.75 488.46 461.26 487.18 447.8 470.45 435.55"/><path class="cls-1" d="M486.43,460.16a3.35,3.35,0,0,1-4,2.5,2.64,2.64,0,0,1-1-.54l-14.4-12.3a3.59,3.59,0,0,1-.93-3.76,3.34,3.34,0,0,1,4-2.5,2.5,2.5,0,0,1,1,.54l14.4,12.3A3.58,3.58,0,0,1,486.43,460.16Z"/><ellipse class="cls-1" cx="483.49" cy="459.26" rx="3.55" ry="3.07" transform="translate(-96.78 787.85) rotate(-73.05)"/><polygon class="cls-1" points="809.35 787.83 693.46 702.88 636.71 660.84 580.72 613.01 585.05 611.26 809.35 787.83"/><polygon class="cls-1" points="597.45 472.77 889.65 708.93 804.89 753.26 479.24 514.31 597.45 472.77"/><polygon class="cls-1" points="479.24 514.31 473.94 523.79 809.35 787.83 804.89 753.26 479.24 514.31"/><polygon class="cls-1" points="889.65 708.93 907.22 734.3 809.35 787.83 804.89 753.26 889.65 708.93"/><polygon class="cls-1" points="522.4 545.98 513.67 547.63 585.46 602.7 596.16 600.1 522.4 545.98"/><polygon class="cls-1" points="513.67 547.63 510.32 557.11 580.72 613.01 585.46 602.7 513.67 547.63"/><polygon class="cls-1" points="580.72 613.01 585.05 611.26 596.16 600.1 585.46 602.7 580.72 613.01"/><polygon class="cls-1" points="700.88 676.94 685.87 697.26 693.46 702.88 708.68 682.67 700.88 676.94"/><polygon class="cls-1" points="690.95 669.65 675.98 689.93 683.56 695.54 698.75 675.38 690.95 669.65"/><polygon class="cls-1" points="681.11 662.44 666.17 682.67 673.76 688.29 688.92 668.17 681.11 662.44"/><polygon class="cls-1" points="671.19 655.16 656.29 675.34 663.87 680.96 679 660.89 671.19 655.16"/><polygon class="cls-1" points="661.35 647.94 646.47 668.07 654.06 673.69 669.15 653.66 661.35 647.94"/><polygon class="cls-1" points="651.55 640.74 636.71 660.84 644.29 666.46 659.35 646.47 651.55 640.74"/><line class="cls-2" x1="629.72" y1="624.73" x2="619.2" y2="638.14"/><line class="cls-2" x1="589.74" y1="606.56" x2="624.02" y2="632"/><polyline class="cls-2" points="704.94 687.64 733.1 707.95 740.12 705.74"/><line class="cls-2" x1="793.04" y1="744.56" x2="779.67" y2="764.47"/><polyline class="cls-2" points="889.65 708.93 865.53 735.14 844.48 746.99 804.89 753.26"/><line class="cls-2" x1="844.48" y1="746.99" x2="852.06" y2="764.47"/><line class="cls-2" x1="865.53" y1="735.14" x2="873.3" y2="752.85"/><line class="cls-2" x1="607.49" y1="480.88" x2="490.88" y2="522.86"/><path class="cls-2" d="M512.55,515.06l8.51,7.8s10.31-2.13,20.63,8.46l63.85-22.58s-9-9.2-6-15.62L591,486.84"/><polyline class="cls-2" points="527.12 509.82 811.58 735.14 863.16 707.95 576.05 492.2"/><polygon class="cls-1" points="701.74 557.05 710.09 554 643.55 501.87 636.65 504.45 701.74 557.05"/><polygon class="cls-1" points="710.09 554 714.37 561.06 709.3 563.17 701.74 557.05 710.09 554"/><line class="cls-2" x1="537.09" y1="506.23" x2="565.61" y2="522.86"/><line class="cls-2" x1="569.24" y1="494.65" x2="586.74" y2="515.39"/><polygon class="cls-1" points="589.74 584.85 601.63 578.44 636.1 606.18 624.46 613.67 589.74 584.85"/><path class="cls-2" d="M626.71,612.22s23.16,17.59,26.09,20c3.93,3.29,10-3.29,13.94,0,4.92,4.1,24.26,19.89,26.49,21.79s5.08,8.59-5.8,13"/><polygon class="cls-1" points="659.35 646.47 666.27 643.4 715.49 679.37 708.68 682.67 659.35 646.47"/><polyline class="cls-1" points="605.54 571.93 592.43 578.44 523.56 522.69"/><path class="cls-2" d="M560.72,524.59S693.37,627.51,703.12,634.2s15.62,1.74,22.31-2.2"/><path class="cls-2" d="M570.46,521.15s129.6,99.4,134.89,103.58,8.37,8.08,14.78,3.9"/><polygon class="cls-1" points="716.61 628.35 725.43 635.46 731.42 632.95 722.36 625.42 716.61 628.35"/><path class="cls-2" d="M603.73,538.43s7-2.93,8.36-3.48,3.9-.42,8.78,3.48S742.72,629.6,742.72,629.6"/><polygon class="cls-1" points="734.35 631.42 734.35 636.16 744.74 643.4 756.1 638.67 755.12 633.93 734.35 631.42"/><polygon class="cls-1" points="734.35 631.42 747.32 626.12 755.12 633.93 744.67 638.67 734.35 631.42"/><polyline class="cls-2" points="630.87 499.78 622.17 503.81 679.8 549.72 688.04 545.98"/><polygon class="cls-2" points="766.98 640.8 724.04 659.21 766.14 693.08 809.22 672.31 766.98 640.8"/><polygon class="cls-2" points="804.59 674.54 819.39 685.14 786.47 701.47 772.05 690.23 804.59 674.54"/><polygon class="cls-2" points="755.12 667.66 773.11 659.86 793.04 674.54 775.55 683 755.12 667.66"/><polygon class="cls-2" points="694.03 573.14 705.63 582.15 718.18 576.63 706.66 568.13 694.03 573.14"/><path class="cls-2" d="M710.09,580.19S768,623.33,772.69,627a11.74,11.74,0,0,0,15-.41"/><path class="cls-2" d="M816.35,676.91s17.82,13.15,21.44,16.17,3.35,6.52-1.11,8.39-21.47,9.69-21.47,9.69"/><line class="cls-2" x1="819.69" y1="675.28" x2="811.32" y2="679.35"/><line class="cls-2" x1="827.85" y1="705.4" x2="843.17" y2="718.49"/><path class="cls-1" d="M737.09,736.65c-2.21,3.12-5.6,4.52-7.56,3.13l-.12-.09-32-25.41c-2.23-1.77-2.32-5.56-.16-8.59s5.95-4.28,8.35-2.57l.18.14,31.9,25.31C739.49,730,739.25,733.59,737.09,736.65Z"/><ellipse class="cls-1" cx="733.53" cy="734.13" rx="6.92" ry="4.36" transform="translate(-289.56 908.21) rotate(-54.68)"/><ellipse class="cls-1" cx="780.58" cy="500.14" rx="40.82" ry="22.76"/><ellipse class="cls-1" cx="783.63" cy="491.46" rx="35.76" ry="14.08"/><polygon class="cls-1" points="768.36 466.52 761.4 462.59 754.57 496.05 763.38 499.78 768.36 466.52"/><polyline class="cls-1" points="768.36 466.52 770.84 460.83 761.4 462.59 768.36 466.52"/><ellipse class="cls-1" cx="809.69" cy="481.85" rx="59.21" ry="44.07" transform="translate(54.77 1045.65) rotate(-67.51)"/><path class="cls-2" d="M832.34,427.14c-13.88-5.49-61.5,7.53-69.23,65.06"/><ellipse class="cls-1" cx="804.47" cy="481.91" rx="4.4" ry="3.76" transform="translate(51.49 1040.87) rotate(-67.51)"/></svg>
